solid OpenSCAD_Model
  facet normal -0 0 -1
    outer loop
      vertex -16 -6.36396 -2.5
      vertex -25 -10 -2.5
      vertex -24 -6.36396 -2.5
    endloop
  endfacet
  facet normal -0 -0 -1
    outer loop
      vertex 25 -9.94522 -2.5
      vertex 25 -10 -2.5
      vertex 16 -6.36396 -2.5
    endloop
  endfacet
  facet normal 0 0 -1
    outer loop
      vertex -25 -5.36396 -2.5
      vertex -24 -6.36396 -2.5
      vertex -25 -10 -2.5
    endloop
  endfacet
  facet normal 0 -0 -1
    outer loop
      vertex -20 -2.36396 -2.5
      vertex -16 -6.36396 -2.5
      vertex -24 -6.36396 -2.5
    endloop
  endfacet
  facet normal 0 -0 -1
    outer loop
      vertex 4.44089e-16 -6.36396 -2.5
      vertex 25 -10 -2.5
      vertex -25 -10 -2.5
    endloop
  endfacet
  facet normal 0 -0 -1
    outer loop
      vertex -12 -2.36396 -2.5
      vertex -8 -6.36396 -2.5
      vertex -16 -6.36396 -2.5
    endloop
  endfacet
  facet normal -0 0 -1
    outer loop
      vertex -8 -6.36396 -2.5
      vertex -25 -10 -2.5
      vertex -16 -6.36396 -2.5
    endloop
  endfacet
  facet normal 0 -0 -1
    outer loop
      vertex -4 -2.36396 -2.5
      vertex 4.44089e-16 -6.36396 -2.5
      vertex -8 -6.36396 -2.5
    endloop
  endfacet
  facet normal -0 0 -1
    outer loop
      vertex 4.44089e-16 -6.36396 -2.5
      vertex -25 -10 -2.5
      vertex -8 -6.36396 -2.5
    endloop
  endfacet
  facet normal 0 -0 -1
    outer loop
      vertex 4 -2.36396 -2.5
      vertex 8 -6.36396 -2.5
      vertex 4.44089e-16 -6.36396 -2.5
    endloop
  endfacet
  facet normal -0 -0 -1
    outer loop
      vertex 8 -6.36396 -2.5
      vertex 25 -10 -2.5
      vertex 4.44089e-16 -6.36396 -2.5
    endloop
  endfacet
  facet normal 0 -0 -1
    outer loop
      vertex 12 -2.36396 -2.5
      vertex 16 -6.36396 -2.5
      vertex 8 -6.36396 -2.5
    endloop
  endfacet
  facet normal -0 -0 -1
    outer loop
      vertex 16 -6.36396 -2.5
      vertex 25 -10 -2.5
      vertex 8 -6.36396 -2.5
    endloop
  endfacet
  facet normal 0 -0 -1
    outer loop
      vertex 20 -2.36396 -2.5
      vertex 24 -6.36396 -2.5
      vertex 16 -6.36396 -2.5
    endloop
  endfacet
  facet normal 0 0 -1
    outer loop
      vertex 20 2.36396 -2.5
      vertex 16 6.36396 -2.5
      vertex 24 6.36396 -2.5
    endloop
  endfacet
  facet normal 0 0 -1
    outer loop
      vertex 12 2.36396 -2.5
      vertex 8 6.36396 -2.5
      vertex 16 6.36396 -2.5
    endloop
  endfacet
  facet normal 0 0 -1
    outer loop
      vertex 25 9.94522 -2.5
      vertex 24 6.36396 -2.5
      vertex 16 6.36396 -2.5
    endloop
  endfacet
  facet normal 0 0 -1
    outer loop
      vertex 4 2.36396 -2.5
      vertex -4.44089e-16 6.36396 -2.5
      vertex 8 6.36396 -2.5
    endloop
  endfacet
  facet normal 0 0 -1
    outer loop
      vertex 25 10 -2.5
      vertex 16 6.36396 -2.5
      vertex 8 6.36396 -2.5
    endloop
  endfacet
  facet normal -0 0 -1
    outer loop
      vertex -4.44089e-16 6.36396 -2.5
      vertex -4 2.36396 -2.5
      vertex -8 6.36396 -2.5
    endloop
  endfacet
  facet normal 0 0 -1
    outer loop
      vertex -16 6.36396 -2.5
      vertex -8 6.36396 -2.5
      vertex -12 2.36396 -2.5
    endloop
  endfacet
  facet normal 0 0 -1
    outer loop
      vertex 25 10 -2.5
      vertex 8 6.36396 -2.5
      vertex -4.44089e-16 6.36396 -2.5
    endloop
  endfacet
  facet normal 0 0 -1
    outer loop
      vertex -25 10 -2.5
      vertex -4.44089e-16 6.36396 -2.5
      vertex -8 6.36396 -2.5
    endloop
  endfacet
  facet normal 0 0 -1
    outer loop
      vertex -25 10 -2.5
      vertex -8 6.36396 -2.5
      vertex -16 6.36396 -2.5
    endloop
  endfacet
  facet normal 0 0 -1
    outer loop
      vertex -24 6.36396 -2.5
      vertex -16 6.36396 -2.5
      vertex -20 2.36396 -2.5
    endloop
  endfacet
  facet normal 0 0 -1
    outer loop
      vertex -25 5.36396 -2.5
      vertex -25 10 -2.5
      vertex -24 6.36396 -2.5
    endloop
  endfacet
  facet normal 0 0 -1
    outer loop
      vertex -25 10 -2.5
      vertex -16 6.36396 -2.5
      vertex -24 6.36396 -2.5
    endloop
  endfacet
  facet normal 0 0 -1
    outer loop
      vertex -25 10 -2.5
      vertex 25 10 -2.5
      vertex -4.44089e-16 6.36396 -2.5
    endloop
  endfacet
  facet normal -0 0 -1
    outer loop
      vertex 26.0453 9.94522 -2.5
      vertex 24 6.36396 -2.5
      vertex 25 9.94522 -2.5
    endloop
  endfacet
  facet normal 0 -0 -1
    outer loop
      vertex 25 10 -2.5
      vertex 25 9.94522 -2.5
      vertex 16 6.36396 -2.5
    endloop
  endfacet
  facet normal 0 0 -1
    outer loop
      vertex 31.6913 7.43145 -2.5
      vertex 30.364 4.44089e-16 -2.5
      vertex 24 6.36396 -2.5
    endloop
  endfacet
  facet normal 0 -0 -1
    outer loop
      vertex 26.0453 9.94522 -2.5
      vertex 28.0902 9.51057 -2.5
      vertex 24 6.36396 -2.5
    endloop
  endfacet
  facet normal 0 -0 -1
    outer loop
      vertex 28.0902 9.51057 -2.5
      vertex 30 8.66025 -2.5
      vertex 24 6.36396 -2.5
    endloop
  endfacet
  facet normal 0 -0 -1
    outer loop
      vertex 30 8.66025 -2.5
      vertex 31.6913 7.43145 -2.5
      vertex 24 6.36396 -2.5
    endloop
  endfacet
  facet normal 0 -0 -1
    outer loop
      vertex 31.6913 7.43145 -2.5
      vertex 33.0902 5.87785 -2.5
      vertex 30.364 4.44089e-16 -2.5
    endloop
  endfacet
  facet normal 0 -0 -1
    outer loop
      vertex 33.0902 5.87785 -2.5
      vertex 34.1355 4.06737 -2.5
      vertex 30.364 4.44089e-16 -2.5
    endloop
  endfacet
  facet normal 0 0 -1
    outer loop
      vertex 31.6913 -7.43145 -2.5
      vertex 24 -6.36396 -2.5
      vertex 30.364 4.44089e-16 -2.5
    endloop
  endfacet
  facet normal 0 -0 -1
    outer loop
      vertex 34.1355 4.06737 -2.5
      vertex 34.7815 2.07912 -2.5
      vertex 30.364 4.44089e-16 -2.5
    endloop
  endfacet
  facet normal 0 -0 -1
    outer loop
      vertex 34.7815 2.07912 -2.5
      vertex 35 0 -2.5
      vertex 30.364 4.44089e-16 -2.5
    endloop
  endfacet
  facet normal -0 0 -1
    outer loop
      vertex 35 0 -2.5
      vertex 34.7815 -2.07912 -2.5
      vertex 30.364 4.44089e-16 -2.5
    endloop
  endfacet
  facet normal -0 0 -1
    outer loop
      vertex 34.7815 -2.07912 -2.5
      vertex 34.1355 -4.06737 -2.5
      vertex 30.364 4.44089e-16 -2.5
    endloop
  endfacet
  facet normal -0 0 -1
    outer loop
      vertex 34.1355 -4.06737 -2.5
      vertex 33.0902 -5.87785 -2.5
      vertex 30.364 4.44089e-16 -2.5
    endloop
  endfacet
  facet normal -0 0 -1
    outer loop
      vertex 33.0902 -5.87785 -2.5
      vertex 31.6913 -7.43145 -2.5
      vertex 30.364 4.44089e-16 -2.5
    endloop
  endfacet
  facet normal -0 0 -1
    outer loop
      vertex 31.6913 -7.43145 -2.5
      vertex 30 -8.66025 -2.5
      vertex 24 -6.36396 -2.5
    endloop
  endfacet
  facet normal -0 0 -1
    outer loop
      vertex 30 -8.66025 -2.5
      vertex 28.0902 -9.51057 -2.5
      vertex 24 -6.36396 -2.5
    endloop
  endfacet
  facet normal -0 0 -1
    outer loop
      vertex 28.0902 -9.51057 -2.5
      vertex 26.0453 -9.94522 -2.5
      vertex 24 -6.36396 -2.5
    endloop
  endfacet
  facet normal 0 0 -1
    outer loop
      vertex 26.0453 -9.94522 -2.5
      vertex 25 -9.94522 -2.5
      vertex 24 -6.36396 -2.5
    endloop
  endfacet
  facet normal 0 0 -1
    outer loop
      vertex 25 -9.94522 -2.5
      vertex 16 -6.36396 -2.5
      vertex 24 -6.36396 -2.5
    endloop
  endfacet
  facet normal 0.207912 -0.978148 0
    outer loop
      vertex 28.0902 -9.51057 -2.5
      vertex 26.0453 -9.94522 2.5
      vertex 26.0453 -9.94522 -2.5
    endloop
  endfacet
  facet normal 0.207912 -0.978148 0
    outer loop
      vertex 28.0902 -9.51057 -2.5
      vertex 28.0902 -9.51057 2.5
      vertex 26.0453 -9.94522 2.5
    endloop
  endfacet
  facet normal 0 0 1
    outer loop
      vertex -25 -10 2.5
      vertex -8 -6.36396 2.5
      vertex -16 -6.36396 2.5
    endloop
  endfacet
  facet normal 0 0 1
    outer loop
      vertex 24 -6.36396 2.5
      vertex 25 -9.94522 2.5
      vertex 26.0453 -9.94522 2.5
    endloop
  endfacet
  facet normal 0 0 1
    outer loop
      vertex 24 -6.36396 2.5
      vertex 26.0453 -9.94522 2.5
      vertex 28.0902 -9.51057 2.5
    endloop
  endfacet
  facet normal 0 0 1
    outer loop
      vertex 24 -6.36396 2.5
      vertex 28.0902 -9.51057 2.5
      vertex 30 -8.66025 2.5
    endloop
  endfacet
  facet normal 0 0 1
    outer loop
      vertex 24 -6.36396 2.5
      vertex 30 -8.66025 2.5
      vertex 31.6913 -7.43145 2.5
    endloop
  endfacet
  facet normal 0 0 1
    outer loop
      vertex 30.364 4.44089e-16 2.5
      vertex 31.6913 -7.43145 2.5
      vertex 33.0902 -5.87785 2.5
    endloop
  endfacet
  facet normal 0 -0 1
    outer loop
      vertex 33.0902 -5.87785 2.5
      vertex 34.1355 -4.06737 2.5
      vertex 30.364 4.44089e-16 2.5
    endloop
  endfacet
  facet normal 0 0 1
    outer loop
      vertex 30.364 4.44089e-16 2.5
      vertex 34.7815 -2.07912 2.5
      vertex 35 0 2.5
    endloop
  endfacet
  facet normal -0 0 1
    outer loop
      vertex 30.364 4.44089e-16 2.5
      vertex 35 0 2.5
      vertex 34.7815 2.07912 2.5
    endloop
  endfacet
  facet normal 0 0 1
    outer loop
      vertex 30.364 4.44089e-16 2.5
      vertex 34.7815 2.07912 2.5
      vertex 34.1355 4.06737 2.5
    endloop
  endfacet
  facet normal 0 0 1
    outer loop
      vertex 30.364 4.44089e-16 2.5
      vertex 34.1355 4.06737 2.5
      vertex 33.0902 5.87785 2.5
    endloop
  endfacet
  facet normal 0 0 1
    outer loop
      vertex 30.364 4.44089e-16 2.5
      vertex 33.0902 5.87785 2.5
      vertex 31.6913 7.43145 2.5
    endloop
  endfacet
  facet normal 0 0 1
    outer loop
      vertex 24 6.36396 2.5
      vertex 31.6913 7.43145 2.5
      vertex 30 8.66025 2.5
    endloop
  endfacet
  facet normal -0 0 1
    outer loop
      vertex 16 6.36396 2.5
      vertex 20 2.36396 2.5
      vertex 24 6.36396 2.5
    endloop
  endfacet
  facet normal 0 0 1
    outer loop
      vertex -25 10 2.5
      vertex -25 5.36396 2.5
      vertex -24 6.36396 2.5
    endloop
  endfacet
  facet normal 0 0 1
    outer loop
      vertex -25 10 2.5
      vertex -16 6.36396 2.5
      vertex -8 6.36396 2.5
    endloop
  endfacet
  facet normal -0 0 1
    outer loop
      vertex -24 6.36396 2.5
      vertex -20 2.36396 2.5
      vertex -16 6.36396 2.5
    endloop
  endfacet
  facet normal 0 0 1
    outer loop
      vertex -25 10 2.5
      vertex -8 6.36396 2.5
      vertex -4.44089e-16 6.36396 2.5
    endloop
  endfacet
  facet normal 0 0 1
    outer loop
      vertex -16 6.36396 2.5
      vertex -25 10 2.5
      vertex -24 6.36396 2.5
    endloop
  endfacet
  facet normal -0 0 1
    outer loop
      vertex -25 10 2.5
      vertex -4.44089e-16 6.36396 2.5
      vertex 25 10 2.5
    endloop
  endfacet
  facet normal 0 0 1
    outer loop
      vertex 25 10 2.5
      vertex -4.44089e-16 6.36396 2.5
      vertex 8 6.36396 2.5
    endloop
  endfacet
  facet normal 0 0 1
    outer loop
      vertex 24 -6.36396 2.5
      vertex 20 -2.36396 2.5
      vertex 16 -6.36396 2.5
    endloop
  endfacet
  facet normal 0 0 1
    outer loop
      vertex -8 6.36396 2.5
      vertex -16 6.36396 2.5
      vertex -12 2.36396 2.5
    endloop
  endfacet
  facet normal 0 0 1
    outer loop
      vertex -4.44089e-16 6.36396 2.5
      vertex -8 6.36396 2.5
      vertex -4 2.36396 2.5
    endloop
  endfacet
  facet normal 0 0 1
    outer loop
      vertex 25 -9.94522 2.5
      vertex 24 -6.36396 2.5
      vertex 16 -6.36396 2.5
    endloop
  endfacet
  facet normal 0 0 1
    outer loop
      vertex 8 6.36396 2.5
      vertex -4.44089e-16 6.36396 2.5
      vertex 4 2.36396 2.5
    endloop
  endfacet
  facet normal 0 -0 1
    outer loop
      vertex 25 9.94522 2.5
      vertex 25 10 2.5
      vertex 16 6.36396 2.5
    endloop
  endfacet
  facet normal 0 -0 1
    outer loop
      vertex 12 2.36396 2.5
      vertex 16 6.36396 2.5
      vertex 8 6.36396 2.5
    endloop
  endfacet
  facet normal 0 -0 1
    outer loop
      vertex 16 6.36396 2.5
      vertex 25 10 2.5
      vertex 8 6.36396 2.5
    endloop
  endfacet
  facet normal 0 0 1
    outer loop
      vertex 16 6.36396 2.5
      vertex 24 6.36396 2.5
      vertex 25 9.94522 2.5
    endloop
  endfacet
  facet normal 0 0 1
    outer loop
      vertex 24 6.36396 2.5
      vertex 26.0453 9.94522 2.5
      vertex 25 9.94522 2.5
    endloop
  endfacet
  facet normal 0 0 1
    outer loop
      vertex 26.0453 9.94522 2.5
      vertex 24 6.36396 2.5
      vertex 28.0902 9.51057 2.5
    endloop
  endfacet
  facet normal 0 0 1
    outer loop
      vertex 24 6.36396 2.5
      vertex 30 8.66025 2.5
      vertex 28.0902 9.51057 2.5
    endloop
  endfacet
  facet normal -0 0 1
    outer loop
      vertex 24 6.36396 2.5
      vertex 30.364 4.44089e-16 2.5
      vertex 31.6913 7.43145 2.5
    endloop
  endfacet
  facet normal 0 0 1
    outer loop
      vertex 30.364 4.44089e-16 2.5
      vertex 34.1355 -4.06737 2.5
      vertex 34.7815 -2.07912 2.5
    endloop
  endfacet
  facet normal 0 0 1
    outer loop
      vertex 30.364 4.44089e-16 2.5
      vertex 24 -6.36396 2.5
      vertex 31.6913 -7.43145 2.5
    endloop
  endfacet
  facet normal 0 0 1
    outer loop
      vertex 16 -6.36396 2.5
      vertex 25 -10 2.5
      vertex 25 -9.94522 2.5
    endloop
  endfacet
  facet normal 0 0 1
    outer loop
      vertex 25 -10 2.5
      vertex 4.44089e-16 -6.36396 2.5
      vertex -25 -10 2.5
    endloop
  endfacet
  facet normal 0 0 1
    outer loop
      vertex 12 -2.36396 2.5
      vertex 8 -6.36396 2.5
      vertex 16 -6.36396 2.5
    endloop
  endfacet
  facet normal 0 0 1
    outer loop
      vertex 16 -6.36396 2.5
      vertex 8 -6.36396 2.5
      vertex 25 -10 2.5
    endloop
  endfacet
  facet normal 0 0 1
    outer loop
      vertex 4 -2.36396 2.5
      vertex 4.44089e-16 -6.36396 2.5
      vertex 8 -6.36396 2.5
    endloop
  endfacet
  facet normal -0 0 1
    outer loop
      vertex 4.44089e-16 -6.36396 2.5
      vertex 25 -10 2.5
      vertex 8 -6.36396 2.5
    endloop
  endfacet
  facet normal 0 0 1
    outer loop
      vertex -24 -6.36396 2.5
      vertex -16 -6.36396 2.5
      vertex -20 -2.36396 2.5
    endloop
  endfacet
  facet normal 0 0 1
    outer loop
      vertex -4 -2.36396 2.5
      vertex -8 -6.36396 2.5
      vertex 4.44089e-16 -6.36396 2.5
    endloop
  endfacet
  facet normal -0 0 1
    outer loop
      vertex -8 -6.36396 2.5
      vertex -25 -10 2.5
      vertex 4.44089e-16 -6.36396 2.5
    endloop
  endfacet
  facet normal 0 0 1
    outer loop
      vertex -25 -10 2.5
      vertex -16 -6.36396 2.5
      vertex -24 -6.36396 2.5
    endloop
  endfacet
  facet normal 0 0 1
    outer loop
      vertex -16 -6.36396 2.5
      vertex -8 -6.36396 2.5
      vertex -12 -2.36396 2.5
    endloop
  endfacet
  facet normal 0 0 1
    outer loop
      vertex -25 -10 2.5
      vertex -24 -6.36396 2.5
      vertex -25 -5.36396 2.5
    endloop
  endfacet
  facet normal 0.587785 -0.809017 0
    outer loop
      vertex 31.6913 -7.43145 -2.5
      vertex 30 -8.66025 2.5
      vertex 30 -8.66025 -2.5
    endloop
  endfacet
  facet normal 0.587785 -0.809017 0
    outer loop
      vertex 31.6913 -7.43145 -2.5
      vertex 31.6913 -7.43145 2.5
      vertex 30 -8.66025 2.5
    endloop
  endfacet
  facet normal 0 -1 0
    outer loop
      vertex 26.0453 -9.94522 -2.5
      vertex 25 -9.94522 2.5
      vertex 25 -9.94522 -2.5
    endloop
  endfacet
  facet normal 0 -1 0
    outer loop
      vertex 26.0453 -9.94522 -2.5
      vertex 26.0453 -9.94522 2.5
      vertex 25 -9.94522 2.5
    endloop
  endfacet
  facet normal 0.866025 -0.5 0
    outer loop
      vertex 34.1355 -4.06737 -2.5
      vertex 33.0902 -5.87785 2.5
      vertex 33.0902 -5.87785 -2.5
    endloop
  endfacet
  facet normal 0.866025 -0.5 0
    outer loop
      vertex 34.1355 -4.06737 -2.5
      vertex 34.1355 -4.06737 2.5
      vertex 33.0902 -5.87785 2.5
    endloop
  endfacet
  facet normal 0.587785 0.809017 0
    outer loop
      vertex 30 8.66025 2.5
      vertex 31.6913 7.43145 -2.5
      vertex 30 8.66025 -2.5
    endloop
  endfacet
  facet normal 0.587785 0.809017 0
    outer loop
      vertex 30 8.66025 2.5
      vertex 31.6913 7.43145 2.5
      vertex 31.6913 7.43145 -2.5
    endloop
  endfacet
  facet normal 0.207912 0.978148 0
    outer loop
      vertex 26.0453 9.94522 2.5
      vertex 28.0902 9.51057 -2.5
      vertex 26.0453 9.94522 -2.5
    endloop
  endfacet
  facet normal 0.207912 0.978148 0
    outer loop
      vertex 26.0453 9.94522 2.5
      vertex 28.0902 9.51057 2.5
      vertex 28.0902 9.51057 -2.5
    endloop
  endfacet
  facet normal 0.406737 -0.913545 0
    outer loop
      vertex 30 -8.66025 -2.5
      vertex 28.0902 -9.51057 2.5
      vertex 28.0902 -9.51057 -2.5
    endloop
  endfacet
  facet normal 0.406737 -0.913545 0
    outer loop
      vertex 30 -8.66025 -2.5
      vertex 30 -8.66025 2.5
      vertex 28.0902 -9.51057 2.5
    endloop
  endfacet
  facet normal 0.951057 -0.309017 0
    outer loop
      vertex 34.7815 -2.07912 -2.5
      vertex 34.1355 -4.06737 2.5
      vertex 34.1355 -4.06737 -2.5
    endloop
  endfacet
  facet normal 0.951057 -0.309017 0
    outer loop
      vertex 34.7815 -2.07912 -2.5
      vertex 34.7815 -2.07912 2.5
      vertex 34.1355 -4.06737 2.5
    endloop
  endfacet
  facet normal 0.743145 -0.669131 0
    outer loop
      vertex 33.0902 -5.87785 -2.5
      vertex 31.6913 -7.43145 2.5
      vertex 31.6913 -7.43145 -2.5
    endloop
  endfacet
  facet normal 0.743145 -0.669131 0
    outer loop
      vertex 33.0902 -5.87785 -2.5
      vertex 33.0902 -5.87785 2.5
      vertex 31.6913 -7.43145 2.5
    endloop
  endfacet
  facet normal 0.406737 0.913545 0
    outer loop
      vertex 28.0902 9.51057 2.5
      vertex 30 8.66025 -2.5
      vertex 28.0902 9.51057 -2.5
    endloop
  endfacet
  facet normal 0.406737 0.913545 0
    outer loop
      vertex 28.0902 9.51057 2.5
      vertex 30 8.66025 2.5
      vertex 30 8.66025 -2.5
    endloop
  endfacet
  facet normal 0 1 0
    outer loop
      vertex 25 9.94522 2.5
      vertex 26.0453 9.94522 -2.5
      vertex 25 9.94522 -2.5
    endloop
  endfacet
  facet normal -0 1 0
    outer loop
      vertex 25 9.94522 2.5
      vertex 26.0453 9.94522 2.5
      vertex 26.0453 9.94522 -2.5
    endloop
  endfacet
  facet normal 0.743145 0.669131 0
    outer loop
      vertex 33.0902 5.87785 2.5
      vertex 33.0902 5.87785 -2.5
      vertex 31.6913 7.43145 -2.5
    endloop
  endfacet
  facet normal 0.743145 0.669131 0
    outer loop
      vertex 31.6913 7.43145 2.5
      vertex 33.0902 5.87785 2.5
      vertex 31.6913 7.43145 -2.5
    endloop
  endfacet
  facet normal 0.951057 0.309017 0
    outer loop
      vertex 34.7815 2.07912 2.5
      vertex 34.7815 2.07912 -2.5
      vertex 34.1355 4.06737 -2.5
    endloop
  endfacet
  facet normal 0.951057 0.309017 0
    outer loop
      vertex 34.1355 4.06737 2.5
      vertex 34.7815 2.07912 2.5
      vertex 34.1355 4.06737 -2.5
    endloop
  endfacet
  facet normal 0.994522 0.104528 0
    outer loop
      vertex 35 0 2.5
      vertex 35 0 -2.5
      vertex 34.7815 2.07912 -2.5
    endloop
  endfacet
  facet normal 0.994522 0.104528 0
    outer loop
      vertex 34.7815 2.07912 2.5
      vertex 35 0 2.5
      vertex 34.7815 2.07912 -2.5
    endloop
  endfacet
  facet normal 0.994522 -0.104528 0
    outer loop
      vertex 35 0 -2.5
      vertex 34.7815 -2.07912 2.5
      vertex 34.7815 -2.07912 -2.5
    endloop
  endfacet
  facet normal 0.994522 -0.104528 0
    outer loop
      vertex 35 0 -2.5
      vertex 35 0 2.5
      vertex 34.7815 -2.07912 2.5
    endloop
  endfacet
  facet normal 0.866025 0.5 0
    outer loop
      vertex 34.1355 4.06737 2.5
      vertex 34.1355 4.06737 -2.5
      vertex 33.0902 5.87785 -2.5
    endloop
  endfacet
  facet normal 0.866025 0.5 0
    outer loop
      vertex 33.0902 5.87785 2.5
      vertex 34.1355 4.06737 2.5
      vertex 33.0902 5.87785 -2.5
    endloop
  endfacet
  facet normal -1 0 0
    outer loop
      vertex -25 -10 2.5
      vertex -25 -5.36396 -2.5
      vertex -25 -10 -2.5
    endloop
  endfacet
  facet normal -1 0 0
    outer loop
      vertex -25 -10 2.5
      vertex -25 -5.36396 2.5
      vertex -25 -5.36396 -2.5
    endloop
  endfacet
  facet normal -1 0 0
    outer loop
      vertex -25 5.36396 2.5
      vertex -25 10 -2.5
      vertex -25 5.36396 -2.5
    endloop
  endfacet
  facet normal -1 0 0
    outer loop
      vertex -25 5.36396 2.5
      vertex -25 10 2.5
      vertex -25 10 -2.5
    endloop
  endfacet
  facet normal 0 -1 0
    outer loop
      vertex 25 -10 -2.5
      vertex -25 -10 2.5
      vertex -25 -10 -2.5
    endloop
  endfacet
  facet normal 0 -1 0
    outer loop
      vertex 25 -10 -2.5
      vertex 25 -10 2.5
      vertex -25 -10 2.5
    endloop
  endfacet
  facet normal 0 1 0
    outer loop
      vertex -25 10 2.5
      vertex 25 10 -2.5
      vertex -25 10 -2.5
    endloop
  endfacet
  facet normal -0 1 0
    outer loop
      vertex -25 10 2.5
      vertex 25 10 2.5
      vertex 25 10 -2.5
    endloop
  endfacet
  facet normal 1 0 0
    outer loop
      vertex 25 -9.94522 -2.5
      vertex 25 -10 2.5
      vertex 25 -10 -2.5
    endloop
  endfacet
  facet normal 1 0 -0
    outer loop
      vertex 25 -9.94522 -2.5
      vertex 25 -9.94522 2.5
      vertex 25 -10 2.5
    endloop
  endfacet
  facet normal 1 0 0
    outer loop
      vertex 25 10 -2.5
      vertex 25 9.94522 2.5
      vertex 25 9.94522 -2.5
    endloop
  endfacet
  facet normal 1 0 -0
    outer loop
      vertex 25 10 -2.5
      vertex 25 10 2.5
      vertex 25 9.94522 2.5
    endloop
  endfacet
  facet normal 0.707107 0.707107 -0
    outer loop
      vertex 24 -6.36396 -2.5
      vertex 20 -2.36396 2.5
      vertex 24 -6.36396 2.5
    endloop
  endfacet
  facet normal 0.707107 0.707107 0
    outer loop
      vertex 24 -6.36396 -2.5
      vertex 20 -2.36396 -2.5
      vertex 20 -2.36396 2.5
    endloop
  endfacet
  facet normal 0.707107 -0.707107 0
    outer loop
      vertex 20 2.36396 2.5
      vertex 24 6.36396 -2.5
      vertex 24 6.36396 2.5
    endloop
  endfacet
  facet normal 0.707107 -0.707107 0
    outer loop
      vertex 20 2.36396 2.5
      vertex 20 2.36396 -2.5
      vertex 24 6.36396 -2.5
    endloop
  endfacet
  facet normal -0.707107 0.707107 0
    outer loop
      vertex 30.364 4.44089e-16 -2.5
      vertex 24 -6.36396 2.5
      vertex 30.364 4.44089e-16 2.5
    endloop
  endfacet
  facet normal -0.707107 0.707107 0
    outer loop
      vertex 30.364 4.44089e-16 -2.5
      vertex 24 -6.36396 -2.5
      vertex 24 -6.36396 2.5
    endloop
  endfacet
  facet normal -0.707107 -0.707107 0
    outer loop
      vertex 24 6.36396 2.5
      vertex 30.364 4.44089e-16 -2.5
      vertex 30.364 4.44089e-16 2.5
    endloop
  endfacet
  facet normal -0.707107 -0.707107 -0
    outer loop
      vertex 24 6.36396 2.5
      vertex 24 6.36396 -2.5
      vertex 30.364 4.44089e-16 -2.5
    endloop
  endfacet
  facet normal 0.707107 0.707107 -0
    outer loop
      vertex 16 -6.36396 -2.5
      vertex 12 -2.36396 2.5
      vertex 16 -6.36396 2.5
    endloop
  endfacet
  facet normal 0.707107 0.707107 0
    outer loop
      vertex 16 -6.36396 -2.5
      vertex 12 -2.36396 -2.5
      vertex 12 -2.36396 2.5
    endloop
  endfacet
  facet normal -0.707107 0.707107 0
    outer loop
      vertex 20 -2.36396 -2.5
      vertex 16 -6.36396 2.5
      vertex 20 -2.36396 2.5
    endloop
  endfacet
  facet normal -0.707107 0.707107 0
    outer loop
      vertex 20 -2.36396 -2.5
      vertex 16 -6.36396 -2.5
      vertex 16 -6.36396 2.5
    endloop
  endfacet
  facet normal 0.707107 -0.707107 0
    outer loop
      vertex 12 2.36396 2.5
      vertex 16 6.36396 -2.5
      vertex 16 6.36396 2.5
    endloop
  endfacet
  facet normal 0.707107 -0.707107 0
    outer loop
      vertex 12 2.36396 2.5
      vertex 12 2.36396 -2.5
      vertex 16 6.36396 -2.5
    endloop
  endfacet
  facet normal -0.707107 -0.707107 0
    outer loop
      vertex 16 6.36396 2.5
      vertex 20 2.36396 -2.5
      vertex 20 2.36396 2.5
    endloop
  endfacet
  facet normal -0.707107 -0.707107 -0
    outer loop
      vertex 16 6.36396 2.5
      vertex 16 6.36396 -2.5
      vertex 20 2.36396 -2.5
    endloop
  endfacet
  facet normal 0.707107 0.707107 -0
    outer loop
      vertex 8 -6.36396 -2.5
      vertex 4 -2.36396 2.5
      vertex 8 -6.36396 2.5
    endloop
  endfacet
  facet normal 0.707107 0.707107 0
    outer loop
      vertex 8 -6.36396 -2.5
      vertex 4 -2.36396 -2.5
      vertex 4 -2.36396 2.5
    endloop
  endfacet
  facet normal 0.707107 -0.707107 0
    outer loop
      vertex 4 2.36396 2.5
      vertex 8 6.36396 -2.5
      vertex 8 6.36396 2.5
    endloop
  endfacet
  facet normal 0.707107 -0.707107 0
    outer loop
      vertex 4 2.36396 2.5
      vertex 4 2.36396 -2.5
      vertex 8 6.36396 -2.5
    endloop
  endfacet
  facet normal -0.707107 0.707107 0
    outer loop
      vertex 12 -2.36396 -2.5
      vertex 8 -6.36396 2.5
      vertex 12 -2.36396 2.5
    endloop
  endfacet
  facet normal -0.707107 0.707107 0
    outer loop
      vertex 12 -2.36396 -2.5
      vertex 8 -6.36396 -2.5
      vertex 8 -6.36396 2.5
    endloop
  endfacet
  facet normal -0.707107 -0.707107 0
    outer loop
      vertex 8 6.36396 2.5
      vertex 12 2.36396 -2.5
      vertex 12 2.36396 2.5
    endloop
  endfacet
  facet normal -0.707107 -0.707107 -0
    outer loop
      vertex 8 6.36396 2.5
      vertex 8 6.36396 -2.5
      vertex 12 2.36396 -2.5
    endloop
  endfacet
  facet normal 0.707107 -0.707107 0
    outer loop
      vertex -4 2.36396 2.5
      vertex -4.44089e-16 6.36396 -2.5
      vertex -4.44089e-16 6.36396 2.5
    endloop
  endfacet
  facet normal 0.707107 -0.707107 0
    outer loop
      vertex -4 2.36396 2.5
      vertex -4 2.36396 -2.5
      vertex -4.44089e-16 6.36396 -2.5
    endloop
  endfacet
  facet normal 0.707107 0.707107 -0
    outer loop
      vertex 4.44089e-16 -6.36396 -2.5
      vertex -4 -2.36396 2.5
      vertex 4.44089e-16 -6.36396 2.5
    endloop
  endfacet
  facet normal 0.707107 0.707107 0
    outer loop
      vertex 4.44089e-16 -6.36396 -2.5
      vertex -4 -2.36396 -2.5
      vertex -4 -2.36396 2.5
    endloop
  endfacet
  facet normal -0.707107 -0.707107 0
    outer loop
      vertex -4.44089e-16 6.36396 2.5
      vertex 4 2.36396 -2.5
      vertex 4 2.36396 2.5
    endloop
  endfacet
  facet normal -0.707107 -0.707107 -0
    outer loop
      vertex -4.44089e-16 6.36396 2.5
      vertex -4.44089e-16 6.36396 -2.5
      vertex 4 2.36396 -2.5
    endloop
  endfacet
  facet normal -0.707107 0.707107 0
    outer loop
      vertex 4 -2.36396 -2.5
      vertex 4.44089e-16 -6.36396 2.5
      vertex 4 -2.36396 2.5
    endloop
  endfacet
  facet normal -0.707107 0.707107 0
    outer loop
      vertex 4 -2.36396 -2.5
      vertex 4.44089e-16 -6.36396 -2.5
      vertex 4.44089e-16 -6.36396 2.5
    endloop
  endfacet
  facet normal 0.707107 0.707107 -0
    outer loop
      vertex -8 -6.36396 -2.5
      vertex -12 -2.36396 2.5
      vertex -8 -6.36396 2.5
    endloop
  endfacet
  facet normal 0.707107 0.707107 0
    outer loop
      vertex -8 -6.36396 -2.5
      vertex -12 -2.36396 -2.5
      vertex -12 -2.36396 2.5
    endloop
  endfacet
  facet normal 0.707107 -0.707107 0
    outer loop
      vertex -12 2.36396 2.5
      vertex -8 6.36396 -2.5
      vertex -8 6.36396 2.5
    endloop
  endfacet
  facet normal 0.707107 -0.707107 0
    outer loop
      vertex -12 2.36396 2.5
      vertex -12 2.36396 -2.5
      vertex -8 6.36396 -2.5
    endloop
  endfacet
  facet normal -0.707107 0.707107 0
    outer loop
      vertex -4 -2.36396 -2.5
      vertex -8 -6.36396 2.5
      vertex -4 -2.36396 2.5
    endloop
  endfacet
  facet normal -0.707107 0.707107 0
    outer loop
      vertex -4 -2.36396 -2.5
      vertex -8 -6.36396 -2.5
      vertex -8 -6.36396 2.5
    endloop
  endfacet
  facet normal -0.707107 -0.707107 0
    outer loop
      vertex -8 6.36396 2.5
      vertex -4 2.36396 -2.5
      vertex -4 2.36396 2.5
    endloop
  endfacet
  facet normal -0.707107 -0.707107 -0
    outer loop
      vertex -8 6.36396 2.5
      vertex -8 6.36396 -2.5
      vertex -4 2.36396 -2.5
    endloop
  endfacet
  facet normal 0.707107 0.707107 -0
    outer loop
      vertex -16 -6.36396 -2.5
      vertex -20 -2.36396 2.5
      vertex -16 -6.36396 2.5
    endloop
  endfacet
  facet normal 0.707107 0.707107 0
    outer loop
      vertex -16 -6.36396 -2.5
      vertex -20 -2.36396 -2.5
      vertex -20 -2.36396 2.5
    endloop
  endfacet
  facet normal 0.707107 -0.707107 0
    outer loop
      vertex -20 2.36396 2.5
      vertex -16 6.36396 -2.5
      vertex -16 6.36396 2.5
    endloop
  endfacet
  facet normal 0.707107 -0.707107 0
    outer loop
      vertex -20 2.36396 2.5
      vertex -20 2.36396 -2.5
      vertex -16 6.36396 -2.5
    endloop
  endfacet
  facet normal -0.707107 0.707107 0
    outer loop
      vertex -12 -2.36396 -2.5
      vertex -16 -6.36396 2.5
      vertex -12 -2.36396 2.5
    endloop
  endfacet
  facet normal -0.707107 0.707107 0
    outer loop
      vertex -12 -2.36396 -2.5
      vertex -16 -6.36396 -2.5
      vertex -16 -6.36396 2.5
    endloop
  endfacet
  facet normal -0.707107 -0.707107 0
    outer loop
      vertex -16 6.36396 2.5
      vertex -12 2.36396 -2.5
      vertex -12 2.36396 2.5
    endloop
  endfacet
  facet normal -0.707107 -0.707107 -0
    outer loop
      vertex -16 6.36396 2.5
      vertex -16 6.36396 -2.5
      vertex -12 2.36396 -2.5
    endloop
  endfacet
  facet normal 0.707107 0.707107 -0
    outer loop
      vertex -24 -6.36396 -2.5
      vertex -25 -5.36396 2.5
      vertex -24 -6.36396 2.5
    endloop
  endfacet
  facet normal 0.707107 0.707107 0
    outer loop
      vertex -24 -6.36396 -2.5
      vertex -25 -5.36396 -2.5
      vertex -25 -5.36396 2.5
    endloop
  endfacet
  facet normal 0.707107 -0.707107 0
    outer loop
      vertex -25 5.36396 2.5
      vertex -24 6.36396 -2.5
      vertex -24 6.36396 2.5
    endloop
  endfacet
  facet normal 0.707107 -0.707107 0
    outer loop
      vertex -25 5.36396 2.5
      vertex -25 5.36396 -2.5
      vertex -24 6.36396 -2.5
    endloop
  endfacet
  facet normal -0.707107 0.707107 0
    outer loop
      vertex -20 -2.36396 -2.5
      vertex -24 -6.36396 2.5
      vertex -20 -2.36396 2.5
    endloop
  endfacet
  facet normal -0.707107 0.707107 0
    outer loop
      vertex -20 -2.36396 -2.5
      vertex -24 -6.36396 -2.5
      vertex -24 -6.36396 2.5
    endloop
  endfacet
  facet normal -0.707107 -0.707107 0
    outer loop
      vertex -24 6.36396 2.5
      vertex -20 2.36396 -2.5
      vertex -20 2.36396 2.5
    endloop
  endfacet
  facet normal -0.707107 -0.707107 -0
    outer loop
      vertex -24 6.36396 2.5
      vertex -24 6.36396 -2.5
      vertex -20 2.36396 -2.5
    endloop
  endfacet
endsolid OpenSCAD_Model
