solid OpenSCAD_Model
  facet normal -1 0 0
    outer loop
      vertex 0 0 0
      vertex 0 0 10
      vertex 0 30 0
    endloop
  endfacet
  facet normal -1 0 0
    outer loop
      vertex 0 30 0
      vertex 0 0 10
      vertex 0 30 10
    endloop
  endfacet
  facet normal 0 -1 0
    outer loop
      vertex 0 0 10
      vertex 0 0 0
      vertex 75 0 0
    endloop
  endfacet
  facet normal 0 -1 0
    outer loop
      vertex 75 0 10
      vertex 0 0 10
      vertex 75 0 0
    endloop
  endfacet
  facet normal 0 0 -1
    outer loop
      vertex 0 0 0
      vertex 0 30 0
      vertex 75 0 0
    endloop
  endfacet
  facet normal 0 0 -1
    outer loop
      vertex 75 0 0
      vertex 0 30 0
      vertex 75 30 0
    endloop
  endfacet
  facet normal 0 1 0
    outer loop
      vertex 0 30 0
      vertex 0 30 10
      vertex 75 30 0
    endloop
  endfacet
  facet normal 0 1 0
    outer loop
      vertex 75 30 0
      vertex 0 30 10
      vertex 75 30 10
    endloop
  endfacet
  facet normal 0 0 1
    outer loop
      vertex 7.80902 6.54894 10
      vertex 0 0 10
      vertex 75 0 10
    endloop
  endfacet
  facet normal 0 0 1
    outer loop
      vertex 0 30 10
      vertex 0 0 10
      vertex 4.14177 21.5139 10
    endloop
  endfacet
  facet normal 0 0 1
    outer loop
      vertex 0 30 10
      vertex 4.14177 21.5139 10
      vertex 4.14177 23.4861 10
    endloop
  endfacet
  facet normal 0 0 1
    outer loop
      vertex 19.506 19.8475 10
      vertex 18.6162 21.5427 10
      vertex 10.4444 24.3922 10
    endloop
  endfacet
  facet normal 0 0 1
    outer loop
      vertex 0 30 10
      vertex 4.14177 23.4861 10
      vertex 5.20799 25.1451 10
    endloop
  endfacet
  facet normal 0 0 1
    outer loop
      vertex 65.0729 5.73664 10
      vertex 64.5 7.5 10
      vertex 42 22.5 10
    endloop
  endfacet
  facet normal 0 0 1
    outer loop
      vertex 0 30 10
      vertex 5.20799 25.1451 10
      vertex 7.0019 25.9644 10
    endloop
  endfacet
  facet normal 0 0 1
    outer loop
      vertex 22.9821 26.4708 10
      vertex 37.0296 26.9753 10
      vertex 75 30 10
    endloop
  endfacet
  facet normal 0 0 1
    outer loop
      vertex 0 30 10
      vertex 7.0019 25.9644 10
      vertex 8.95395 25.6837 10
    endloop
  endfacet
  facet normal 0 0 1
    outer loop
      vertex 21.0816 18.7599 10
      vertex 19.506 19.8475 10
      vertex 11 22.5 10
    endloop
  endfacet
  facet normal 0 0 1
    outer loop
      vertex 54.2678 5.73223 10
      vertex 52.5 5 10
      vertex 75 0 10
    endloop
  endfacet
  facet normal 0 0 1
    outer loop
      vertex 7.0019 19.0356 10
      vertex 0 0 10
      vertex 8.95395 19.3163 10
    endloop
  endfacet
  facet normal 0 0 1
    outer loop
      vertex 5.20799 19.8549 10
      vertex 0 0 10
      vertex 7.0019 19.0356 10
    endloop
  endfacet
  facet normal 0 0 1
    outer loop
      vertex 4.14177 21.5139 10
      vertex 0 0 10
      vertex 5.20799 19.8549 10
    endloop
  endfacet
  facet normal 0 0 1
    outer loop
      vertex 21.2865 6.61832 10
      vertex 21.2865 8.38168 10
      vertex 7.80902 8.45106 10
    endloop
  endfacet
  facet normal 0 0 1
    outer loop
      vertex 6.69098 8.08778 10
      vertex 0 0 10
      vertex 6.69098 6.91221 10
    endloop
  endfacet
  facet normal 0 0 1
    outer loop
      vertex 8.5 7.5 10
      vertex 7.80902 6.54894 10
      vertex 75 0 10
    endloop
  endfacet
  facet normal 0 0 1
    outer loop
      vertex 8.95395 19.3163 10
      vertex 0 0 10
      vertex 6.69098 8.08778 10
    endloop
  endfacet
  facet normal 0 0 1
    outer loop
      vertex 35.6981 6.63223 10
      vertex 35.6981 8.36777 10
      vertex 22.9635 8.92658 10
    endloop
  endfacet
  facet normal 0 0 1
    outer loop
      vertex 22.9635 6.07341 10
      vertex 8.5 7.5 10
      vertex 75 0 10
    endloop
  endfacet
  facet normal 0 0 1
    outer loop
      vertex 6.69098 6.91221 10
      vertex 0 0 10
      vertex 7.80902 6.54894 10
    endloop
  endfacet
  facet normal 0 0 1
    outer loop
      vertex 38.8906 26.7798 10
      vertex 40.5111 25.8442 10
      vertex 50.5866 27.1194 10
    endloop
  endfacet
  facet normal 0 0 1
    outer loop
      vertex 33.8594 19.855 10
      vertex 33.0983 21.5644 10
      vertex 26.5 22.5 10
    endloop
  endfacet
  facet normal 0 0 1
    outer loop
      vertex 19.506 25.1525 10
      vertex 0 30 10
      vertex 18.6162 23.4573 10
    endloop
  endfacet
  facet normal 0 0 1
    outer loop
      vertex 21.0816 26.2401 10
      vertex 0 30 10
      vertex 19.506 25.1525 10
    endloop
  endfacet
  facet normal 0 0 1
    outer loop
      vertex 22.9821 26.4708 10
      vertex 0 30 10
      vertex 21.0816 26.2401 10
    endloop
  endfacet
  facet normal 0 0 1
    outer loop
      vertex 38.8906 26.7798 10
      vertex 52.5 27.5 10
      vertex 75 30 10
    endloop
  endfacet
  facet normal 0 0 1
    outer loop
      vertex 75 30 10
      vertex 0 30 10
      vertex 22.9821 26.4708 10
    endloop
  endfacet
  facet normal 0 0 1
    outer loop
      vertex 26.0418 24.3589 10
      vertex 26.5 22.5 10
      vertex 33.8594 25.145 10
    endloop
  endfacet
  facet normal 0 0 1
    outer loop
      vertex 55 7.5 10
      vertex 54.2678 5.73223 10
      vertex 75 0 10
    endloop
  endfacet
  facet normal 0 0 1
    outer loop
      vertex 35.25 18.6029 10
      vertex 26.5 22.5 10
      vertex 75 0 10
    endloop
  endfacet
  facet normal 0 0 1
    outer loop
      vertex 22.9821 26.4708 10
      vertex 24.7723 25.7919 10
      vertex 37.0296 26.9753 10
    endloop
  endfacet
  facet normal 0 0 1
    outer loop
      vertex 24.7723 25.7919 10
      vertex 26.0418 24.3589 10
      vertex 35.25 26.3971 10
    endloop
  endfacet
  facet normal 0 0 1
    outer loop
      vertex 41.611 24.3303 10
      vertex 42 22.5 10
      vertex 47.8806 24.4134 10
    endloop
  endfacet
  facet normal 0 0 1
    outer loop
      vertex 10.4444 20.6078 10
      vertex 8.95395 19.3163 10
      vertex 50 7.5 10
    endloop
  endfacet
  facet normal 0 0 1
    outer loop
      vertex 11 22.5 10
      vertex 10.4444 20.6078 10
      vertex 21.0816 18.7599 10
    endloop
  endfacet
  facet normal 0 0 1
    outer loop
      vertex 65.0729 9.26336 10
      vertex 66.5729 10.3532 10
      vertex 57.1194 20.5866 10
    endloop
  endfacet
  facet normal 0 0 1
    outer loop
      vertex 7.80902 8.45106 10
      vertex 8.5 7.5 10
      vertex 21.2865 6.61832 10
    endloop
  endfacet
  facet normal 0 0 1
    outer loop
      vertex 37.055 5.55014 10
      vertex 22.9635 6.07341 10
      vertex 75 0 10
    endloop
  endfacet
  facet normal 0 0 1
    outer loop
      vertex 8.95395 19.3163 10
      vertex 7.80902 8.45106 10
      vertex 21.2865 8.38168 10
    endloop
  endfacet
  facet normal 0 0 1
    outer loop
      vertex 8.95395 19.3163 10
      vertex 21.2865 8.38168 10
      vertex 22.9635 8.92658 10
    endloop
  endfacet
  facet normal 0 0 1
    outer loop
      vertex 21.2865 6.61832 10
      vertex 8.5 7.5 10
      vertex 22.9635 6.07341 10
    endloop
  endfacet
  facet normal 0 0 1
    outer loop
      vertex 35.25 18.6029 10
      vertex 33.8594 19.855 10
      vertex 26.5 22.5 10
    endloop
  endfacet
  facet normal 0 0 1
    outer loop
      vertex 33.0983 23.4356 10
      vertex 26.5 22.5 10
      vertex 33.0983 21.5644 10
    endloop
  endfacet
  facet normal 0 0 1
    outer loop
      vertex 33.8594 25.145 10
      vertex 35.25 26.3971 10
      vertex 26.0418 24.3589 10
    endloop
  endfacet
  facet normal 0 0 1
    outer loop
      vertex 37.0296 26.9753 10
      vertex 38.8906 26.7798 10
      vertex 75 30 10
    endloop
  endfacet
  facet normal 0 0 1
    outer loop
      vertex 35.25 26.3971 10
      vertex 37.0296 26.9753 10
      vertex 24.7723 25.7919 10
    endloop
  endfacet
  facet normal 0 0 1
    outer loop
      vertex 38.747 9.06366 10
      vertex 39.5 7.5 10
      vertex 52.5 5 10
    endloop
  endfacet
  facet normal 0 0 1
    outer loop
      vertex 38.8906 26.7798 10
      vertex 50.5866 27.1194 10
      vertex 52.5 27.5 10
    endloop
  endfacet
  facet normal 0 0 1
    outer loop
      vertex 40.5111 25.8442 10
      vertex 41.611 24.3303 10
      vertex 48.9645 26.0355 10
    endloop
  endfacet
  facet normal 0 0 1
    outer loop
      vertex 40.5111 19.1558 10
      vertex 38.8906 18.2202 10
      vertex 66.5729 4.64683 10
    endloop
  endfacet
  facet normal 0 0 1
    outer loop
      vertex 64.5 7.5 10
      vertex 52.5 17.5 10
      vertex 50.5866 17.8806 10
    endloop
  endfacet
  facet normal 0 0 1
    outer loop
      vertex 64.5 7.5 10
      vertex 54.4134 17.8806 10
      vertex 52.5 17.5 10
    endloop
  endfacet
  facet normal 0 0 1
    outer loop
      vertex 37.055 5.55014 10
      vertex 35.6981 6.63223 10
      vertex 22.9635 8.92658 10
    endloop
  endfacet
  facet normal 0 0 1
    outer loop
      vertex 38.8906 18.2202 10
      vertex 37.0296 18.0247 10
      vertex 75 0 10
    endloop
  endfacet
  facet normal 0 0 1
    outer loop
      vertex 38.747 5.93634 10
      vertex 37.055 5.55014 10
      vertex 75 0 10
    endloop
  endfacet
  facet normal 0 0 1
    outer loop
      vertex 37.0296 18.0247 10
      vertex 35.25 18.6029 10
      vertex 75 0 10
    endloop
  endfacet
  facet normal 0 0 1
    outer loop
      vertex 50 7.5 10
      vertex 24.7723 19.2081 10
      vertex 22.9821 18.5292 10
    endloop
  endfacet
  facet normal 0 0 1
    outer loop
      vertex 33.0983 23.4356 10
      vertex 33.8594 25.145 10
      vertex 26.5 22.5 10
    endloop
  endfacet
  facet normal 0 0 1
    outer loop
      vertex 39.5 7.5 10
      vertex 38.747 5.93634 10
      vertex 75 0 10
    endloop
  endfacet
  facet normal 0 0 1
    outer loop
      vertex 8.95395 19.3163 10
      vertex 22.9635 8.92658 10
      vertex 35.6981 8.36777 10
    endloop
  endfacet
  facet normal 0 0 1
    outer loop
      vertex 50 7.5 10
      vertex 50.7322 9.26777 10
      vertex 24.7723 19.2081 10
    endloop
  endfacet
  facet normal 0 0 1
    outer loop
      vertex 8.95395 19.3163 10
      vertex 35.6981 8.36777 10
      vertex 37.055 9.44986 10
    endloop
  endfacet
  facet normal 0 0 1
    outer loop
      vertex 50 7.5 10
      vertex 22.9821 18.5292 10
      vertex 21.0816 18.7599 10
    endloop
  endfacet
  facet normal 0 0 1
    outer loop
      vertex 8.95395 19.3163 10
      vertex 37.055 9.44986 10
      vertex 38.747 9.06366 10
    endloop
  endfacet
  facet normal 0 0 1
    outer loop
      vertex 56.0355 26.0355 10
      vertex 66.5449 27.9164 10
      vertex 75 30 10
    endloop
  endfacet
  facet normal 0 0 1
    outer loop
      vertex 24 7.5 10
      vertex 22.9635 6.07341 10
      vertex 37.055 5.55014 10
    endloop
  endfacet
  facet normal 0 0 1
    outer loop
      vertex 38.747 9.06366 10
      vertex 52.5 5 10
      vertex 50.7322 5.73223 10
    endloop
  endfacet
  facet normal 0 0 1
    outer loop
      vertex 50.7322 5.73223 10
      vertex 50 7.5 10
      vertex 8.95395 19.3163 10
    endloop
  endfacet
  facet normal 0 0 1
    outer loop
      vertex 62.3317 24.3811 10
      vertex 63.2868 26.0353 10
      vertex 57.5 22.5 10
    endloop
  endfacet
  facet normal 0 0 1
    outer loop
      vertex 47.5 22.5 10
      vertex 42 22.5 10
      vertex 47.8806 20.5866 10
    endloop
  endfacet
  facet normal 0 0 1
    outer loop
      vertex 56.0355 26.0355 10
      vertex 57.1194 24.4134 10
      vertex 64.75 27.2631 10
    endloop
  endfacet
  facet normal 0 0 1
    outer loop
      vertex 66.5729 4.64683 10
      vertex 38.8906 18.2202 10
      vertex 75 0 10
    endloop
  endfacet
  facet normal 0 0 1
    outer loop
      vertex 54.4134 27.1194 10
      vertex 56.0355 26.0355 10
      vertex 75 30 10
    endloop
  endfacet
  facet normal 0 0 1
    outer loop
      vertex 54.2678 9.26777 10
      vertex 55 7.5 10
      vertex 75 0 10
    endloop
  endfacet
  facet normal 0 0 1
    outer loop
      vertex 52.5 5 10
      vertex 39.5 7.5 10
      vertex 75 0 10
    endloop
  endfacet
  facet normal 0 0 1
    outer loop
      vertex 56.0355 26.0355 10
      vertex 64.75 27.2631 10
      vertex 66.5449 27.9164 10
    endloop
  endfacet
  facet normal 0 0 1
    outer loop
      vertex 52.5 27.5 10
      vertex 54.4134 27.1194 10
      vertex 75 30 10
    endloop
  endfacet
  facet normal 0 0 1
    outer loop
      vertex 47.8806 24.4134 10
      vertex 48.9645 26.0355 10
      vertex 41.611 24.3303 10
    endloop
  endfacet
  facet normal 0 0 1
    outer loop
      vertex 69.9271 9.26336 10
      vertex 70.5 7.5 10
      vertex 75 0 10
    endloop
  endfacet
  facet normal 0 0 1
    outer loop
      vertex 68.4271 10.3532 10
      vertex 64.75 17.7369 10
      vertex 63.2868 18.9647 10
    endloop
  endfacet
  facet normal 0 0 1
    outer loop
      vertex 48.9645 18.9645 10
      vertex 42 22.5 10
      vertex 50.5866 17.8806 10
    endloop
  endfacet
  facet normal 0 0 1
    outer loop
      vertex 47.8806 20.5866 10
      vertex 42 22.5 10
      vertex 48.9645 18.9645 10
    endloop
  endfacet
  facet normal 0 0 1
    outer loop
      vertex 47.5 22.5 10
      vertex 47.8806 24.4134 10
      vertex 42 22.5 10
    endloop
  endfacet
  facet normal 0 0 1
    outer loop
      vertex 57.1194 24.4134 10
      vertex 57.5 22.5 10
      vertex 63.2868 26.0353 10
    endloop
  endfacet
  facet normal 0 0 1
    outer loop
      vertex 6.69098 8.08778 10
      vertex 7.80902 8.45106 10
      vertex 8.95395 19.3163 10
    endloop
  endfacet
  facet normal 0 0 1
    outer loop
      vertex 18.6162 21.5427 10
      vertex 18.6162 23.4573 10
      vertex 0 30 10
    endloop
  endfacet
  facet normal 0 0 1
    outer loop
      vertex 63.2868 26.0353 10
      vertex 64.75 27.2631 10
      vertex 57.1194 24.4134 10
    endloop
  endfacet
  facet normal 0 0 1
    outer loop
      vertex 26.5 22.5 10
      vertex 26.0418 20.6411 10
      vertex 52.5 10 10
    endloop
  endfacet
  facet normal 0 0 1
    outer loop
      vertex 26.5 22.5 10
      vertex 54.2678 9.26777 10
      vertex 75 0 10
    endloop
  endfacet
  facet normal 0 0 1
    outer loop
      vertex 26.5 22.5 10
      vertex 52.5 10 10
      vertex 54.2678 9.26777 10
    endloop
  endfacet
  facet normal 0 0 1
    outer loop
      vertex 18.6162 21.5427 10
      vertex 0 30 10
      vertex 8.95395 25.6837 10
    endloop
  endfacet
  facet normal 0 0 1
    outer loop
      vertex 50.7322 9.26777 10
      vertex 52.5 10 10
      vertex 26.0418 20.6411 10
    endloop
  endfacet
  facet normal 0 0 1
    outer loop
      vertex 50 7.5 10
      vertex 21.0816 18.7599 10
      vertex 10.4444 20.6078 10
    endloop
  endfacet
  facet normal 0 0 1
    outer loop
      vertex 50.7322 5.73223 10
      vertex 8.95395 19.3163 10
      vertex 38.747 9.06366 10
    endloop
  endfacet
  facet normal 0 0 1
    outer loop
      vertex 66.5729 4.64683 10
      vertex 65.0729 5.73664 10
      vertex 40.5111 19.1558 10
    endloop
  endfacet
  facet normal 0 0 1
    outer loop
      vertex 62 22.5 10
      vertex 57.5 22.5 10
      vertex 62.3317 20.6189 10
    endloop
  endfacet
  facet normal 0 0 1
    outer loop
      vertex 73 22.5 10
      vertex 72.6683 20.6189 10
      vertex 75 0 10
    endloop
  endfacet
  facet normal 0 0 1
    outer loop
      vertex 62.3317 24.3811 10
      vertex 57.5 22.5 10
      vertex 62 22.5 10
    endloop
  endfacet
  facet normal 0 0 1
    outer loop
      vertex 68.4551 27.9164 10
      vertex 70.25 27.2631 10
      vertex 75 30 10
    endloop
  endfacet
  facet normal 0 0 1
    outer loop
      vertex 48.9645 26.0355 10
      vertex 50.5866 27.1194 10
      vertex 40.5111 25.8442 10
    endloop
  endfacet
  facet normal 0 0 1
    outer loop
      vertex 70.25 27.2631 10
      vertex 71.7132 26.0353 10
      vertex 75 30 10
    endloop
  endfacet
  facet normal 0 0 1
    outer loop
      vertex 66.5449 27.9164 10
      vertex 68.4551 27.9164 10
      vertex 75 30 10
    endloop
  endfacet
  facet normal 0 0 1
    outer loop
      vertex 70.5 7.5 10
      vertex 69.9271 5.73664 10
      vertex 75 0 10
    endloop
  endfacet
  facet normal 0 0 1
    outer loop
      vertex 72.6683 20.6189 10
      vertex 71.7132 18.9647 10
      vertex 75 0 10
    endloop
  endfacet
  facet normal 0 0 1
    outer loop
      vertex 75 30 10
      vertex 71.7132 26.0353 10
      vertex 72.6683 24.3811 10
    endloop
  endfacet
  facet normal 0 0 1
    outer loop
      vertex 75 30 10
      vertex 73 22.5 10
      vertex 75 0 10
    endloop
  endfacet
  facet normal 0 0 1
    outer loop
      vertex 75 30 10
      vertex 72.6683 24.3811 10
      vertex 73 22.5 10
    endloop
  endfacet
  facet normal 0 0 1
    outer loop
      vertex 71.7132 18.9647 10
      vertex 70.25 17.7369 10
      vertex 75 0 10
    endloop
  endfacet
  facet normal 0 0 1
    outer loop
      vertex 70.25 17.7369 10
      vertex 68.4551 17.0836 10
      vertex 75 0 10
    endloop
  endfacet
  facet normal 0 0 1
    outer loop
      vertex 68.4551 17.0836 10
      vertex 66.5449 17.0836 10
      vertex 75 0 10
    endloop
  endfacet
  facet normal 0 0 1
    outer loop
      vertex 62.3317 20.6189 10
      vertex 57.5 22.5 10
      vertex 63.2868 18.9647 10
    endloop
  endfacet
  facet normal 0 0 1
    outer loop
      vertex 64.5 7.5 10
      vertex 65.0729 9.26336 10
      vertex 54.4134 17.8806 10
    endloop
  endfacet
  facet normal 0 0 1
    outer loop
      vertex 41.611 20.6697 10
      vertex 40.5111 19.1558 10
      vertex 65.0729 5.73664 10
    endloop
  endfacet
  facet normal 0 0 1
    outer loop
      vertex 65.0729 9.26336 10
      vertex 57.1194 20.5866 10
      vertex 56.0355 18.9645 10
    endloop
  endfacet
  facet normal 0 0 1
    outer loop
      vertex 50.5866 17.8806 10
      vertex 42 22.5 10
      vertex 64.5 7.5 10
    endloop
  endfacet
  facet normal 0 0 1
    outer loop
      vertex 68.4271 10.3532 10
      vertex 69.9271 9.26336 10
      vertex 64.75 17.7369 10
    endloop
  endfacet
  facet normal 0 0 1
    outer loop
      vertex 56.0355 18.9645 10
      vertex 54.4134 17.8806 10
      vertex 65.0729 9.26336 10
    endloop
  endfacet
  facet normal 0 0 1
    outer loop
      vertex 69.9271 5.73664 10
      vertex 68.4271 4.64683 10
      vertex 75 0 10
    endloop
  endfacet
  facet normal 0 0 1
    outer loop
      vertex 57.5 22.5 10
      vertex 57.1194 20.5866 10
      vertex 66.5729 10.3532 10
    endloop
  endfacet
  facet normal 0 0 1
    outer loop
      vertex 63.2868 18.9647 10
      vertex 57.5 22.5 10
      vertex 68.4271 10.3532 10
    endloop
  endfacet
  facet normal 0 0 1
    outer loop
      vertex 66.5449 17.0836 10
      vertex 69.9271 9.26336 10
      vertex 75 0 10
    endloop
  endfacet
  facet normal 0 0 1
    outer loop
      vertex 66.5449 17.0836 10
      vertex 64.75 17.7369 10
      vertex 69.9271 9.26336 10
    endloop
  endfacet
  facet normal 0 0 1
    outer loop
      vertex 65.0729 5.73664 10
      vertex 42 22.5 10
      vertex 41.611 20.6697 10
    endloop
  endfacet
  facet normal 0 0 1
    outer loop
      vertex 66.5729 10.3532 10
      vertex 68.4271 10.3532 10
      vertex 57.5 22.5 10
    endloop
  endfacet
  facet normal 0 0 1
    outer loop
      vertex 68.4271 4.64683 10
      vertex 66.5729 4.64683 10
      vertex 75 0 10
    endloop
  endfacet
  facet normal 0 0 1
    outer loop
      vertex 37.055 5.55014 10
      vertex 22.9635 8.92658 10
      vertex 24 7.5 10
    endloop
  endfacet
  facet normal 0 0 1
    outer loop
      vertex 8.95395 25.6837 10
      vertex 10.4444 24.3922 10
      vertex 18.6162 21.5427 10
    endloop
  endfacet
  facet normal 0 0 1
    outer loop
      vertex 10.4444 24.3922 10
      vertex 11 22.5 10
      vertex 19.506 19.8475 10
    endloop
  endfacet
  facet normal 0 0 1
    outer loop
      vertex 50.7322 9.26777 10
      vertex 26.0418 20.6411 10
      vertex 24.7723 19.2081 10
    endloop
  endfacet
  facet normal 1 0 0
    outer loop
      vertex 75 0 10
      vertex 75 0 0
      vertex 75 30 0
    endloop
  endfacet
  facet normal 1 0 0
    outer loop
      vertex 75 30 10
      vertex 75 0 10
      vertex 75 30 0
    endloop
  endfacet
  facet normal 1 0 0
    outer loop
      vertex 4.14177 23.4861 5
      vertex 4.14177 23.4861 10
      vertex 4.14177 21.5139 10
    endloop
  endfacet
  facet normal 1 0 0
    outer loop
      vertex 4.14177 21.5139 5
      vertex 4.14177 23.4861 5
      vertex 4.14177 21.5139 10
    endloop
  endfacet
  facet normal 0.841254 0.54064 0
    outer loop
      vertex 4.14177 21.5139 10
      vertex 5.20799 19.8549 10
      vertex 5.20799 19.8549 5
    endloop
  endfacet
  facet normal 0.841254 0.54064 0
    outer loop
      vertex 4.14177 21.5139 5
      vertex 4.14177 21.5139 10
      vertex 5.20799 19.8549 5
    endloop
  endfacet
  facet normal 0.415415 0.909632 0
    outer loop
      vertex 7.0019 19.0356 10
      vertex 7.0019 19.0356 5
      vertex 5.20799 19.8549 10
    endloop
  endfacet
  facet normal 0.415415 0.909632 0
    outer loop
      vertex 5.20799 19.8549 10
      vertex 7.0019 19.0356 5
      vertex 5.20799 19.8549 5
    endloop
  endfacet
  facet normal -0.142315 0.989821 0
    outer loop
      vertex 8.95395 19.3163 10
      vertex 8.95395 19.3163 5
      vertex 7.0019 19.0356 10
    endloop
  endfacet
  facet normal -0.142315 0.989821 0
    outer loop
      vertex 7.0019 19.0356 10
      vertex 8.95395 19.3163 5
      vertex 7.0019 19.0356 5
    endloop
  endfacet
  facet normal -0.654861 0.755749 0
    outer loop
      vertex 10.4444 20.6078 10
      vertex 10.4444 20.6078 5
      vertex 8.95395 19.3163 10
    endloop
  endfacet
  facet normal -0.654861 0.755749 0
    outer loop
      vertex 8.95395 19.3163 10
      vertex 10.4444 20.6078 5
      vertex 8.95395 19.3163 5
    endloop
  endfacet
  facet normal -0.959493 0.281733 0
    outer loop
      vertex 11 22.5 10
      vertex 11 22.5 5
      vertex 10.4444 20.6078 10
    endloop
  endfacet
  facet normal -0.959493 0.281733 0
    outer loop
      vertex 10.4444 20.6078 10
      vertex 11 22.5 5
      vertex 10.4444 20.6078 5
    endloop
  endfacet
  facet normal -0.959493 -0.281733 0
    outer loop
      vertex 11 22.5 10
      vertex 10.4444 24.3922 10
      vertex 11 22.5 5
    endloop
  endfacet
  facet normal -0.959493 -0.281733 0
    outer loop
      vertex 11 22.5 5
      vertex 10.4444 24.3922 10
      vertex 10.4444 24.3922 5
    endloop
  endfacet
  facet normal -0.654861 -0.755749 0
    outer loop
      vertex 10.4444 24.3922 5
      vertex 10.4444 24.3922 10
      vertex 8.95395 25.6837 10
    endloop
  endfacet
  facet normal -0.654861 -0.755749 0
    outer loop
      vertex 8.95395 25.6837 5
      vertex 10.4444 24.3922 5
      vertex 8.95395 25.6837 10
    endloop
  endfacet
  facet normal -0.142315 -0.989821 0
    outer loop
      vertex 8.95395 25.6837 5
      vertex 8.95395 25.6837 10
      vertex 7.0019 25.9644 10
    endloop
  endfacet
  facet normal -0.142315 -0.989821 0
    outer loop
      vertex 7.0019 25.9644 5
      vertex 8.95395 25.6837 5
      vertex 7.0019 25.9644 10
    endloop
  endfacet
  facet normal 0.415415 -0.909632 0
    outer loop
      vertex 7.0019 25.9644 5
      vertex 7.0019 25.9644 10
      vertex 5.20799 25.1451 10
    endloop
  endfacet
  facet normal 0.415415 -0.909632 0
    outer loop
      vertex 5.20799 25.1451 5
      vertex 7.0019 25.9644 5
      vertex 5.20799 25.1451 10
    endloop
  endfacet
  facet normal 0.841254 -0.54064 0
    outer loop
      vertex 5.20799 25.1451 5
      vertex 5.20799 25.1451 10
      vertex 4.14177 23.4861 10
    endloop
  endfacet
  facet normal 0.841254 -0.54064 0
    outer loop
      vertex 4.14177 23.4861 5
      vertex 5.20799 25.1451 5
      vertex 4.14177 23.4861 10
    endloop
  endfacet
  facet normal 0.309018 0.951056 0
    outer loop
      vertex 7.80902 6.54894 10
      vertex 7.80902 6.54894 5
      vertex 6.69098 6.91221 10
    endloop
  endfacet
  facet normal 0.309018 0.951056 0
    outer loop
      vertex 6.69098 6.91221 10
      vertex 7.80902 6.54894 5
      vertex 6.69098 6.91221 5
    endloop
  endfacet
  facet normal 1 0 0
    outer loop
      vertex 6.69098 8.08778 5
      vertex 6.69098 8.08778 10
      vertex 6.69098 6.91221 10
    endloop
  endfacet
  facet normal 1 0 0
    outer loop
      vertex 6.69098 6.91221 5
      vertex 6.69098 8.08778 5
      vertex 6.69098 6.91221 10
    endloop
  endfacet
  facet normal -0.809017 0.587785 0
    outer loop
      vertex 8.5 7.5 10
      vertex 8.5 7.5 5
      vertex 7.80902 6.54894 10
    endloop
  endfacet
  facet normal -0.809017 0.587785 0
    outer loop
      vertex 7.80902 6.54894 10
      vertex 8.5 7.5 5
      vertex 7.80902 6.54894 5
    endloop
  endfacet
  facet normal -0.809017 -0.587785 0
    outer loop
      vertex 8.5 7.5 10
      vertex 7.80902 8.45106 10
      vertex 8.5 7.5 5
    endloop
  endfacet
  facet normal -0.809017 -0.587785 0
    outer loop
      vertex 8.5 7.5 5
      vertex 7.80902 8.45106 10
      vertex 7.80902 8.45106 5
    endloop
  endfacet
  facet normal 0.309018 -0.951056 0
    outer loop
      vertex 7.80902 8.45106 5
      vertex 7.80902 8.45106 10
      vertex 6.69098 8.08778 10
    endloop
  endfacet
  facet normal 0.309018 -0.951056 0
    outer loop
      vertex 6.69098 8.08778 5
      vertex 7.80902 8.45106 5
      vertex 6.69098 8.08778 10
    endloop
  endfacet
  facet normal 1 0 0
    outer loop
      vertex 18.6162 23.4573 5
      vertex 18.6162 23.4573 10
      vertex 18.6162 21.5427 10
    endloop
  endfacet
  facet normal 1 0 0
    outer loop
      vertex 18.6162 21.5427 5
      vertex 18.6162 23.4573 5
      vertex 18.6162 21.5427 10
    endloop
  endfacet
  facet normal 0.885456 0.464723 0
    outer loop
      vertex 18.6162 21.5427 10
      vertex 19.506 19.8475 10
      vertex 19.506 19.8475 5
    endloop
  endfacet
  facet normal 0.885456 0.464723 0
    outer loop
      vertex 18.6162 21.5427 5
      vertex 18.6162 21.5427 10
      vertex 19.506 19.8475 5
    endloop
  endfacet
  facet normal 0.568065 0.822984 0
    outer loop
      vertex 21.0816 18.7599 10
      vertex 21.0816 18.7599 5
      vertex 19.506 19.8475 10
    endloop
  endfacet
  facet normal 0.568065 0.822984 0
    outer loop
      vertex 19.506 19.8475 10
      vertex 21.0816 18.7599 5
      vertex 19.506 19.8475 5
    endloop
  endfacet
  facet normal 0.120536 0.992709 0
    outer loop
      vertex 22.9821 18.5292 10
      vertex 22.9821 18.5292 5
      vertex 21.0816 18.7599 10
    endloop
  endfacet
  facet normal 0.120536 0.992709 0
    outer loop
      vertex 21.0816 18.7599 10
      vertex 22.9821 18.5292 5
      vertex 21.0816 18.7599 5
    endloop
  endfacet
  facet normal -0.354605 0.935016 0
    outer loop
      vertex 24.7723 19.2081 10
      vertex 24.7723 19.2081 5
      vertex 22.9821 18.5292 10
    endloop
  endfacet
  facet normal -0.354605 0.935016 0
    outer loop
      vertex 22.9821 18.5292 10
      vertex 24.7723 19.2081 5
      vertex 22.9821 18.5292 5
    endloop
  endfacet
  facet normal -0.748511 0.663123 0
    outer loop
      vertex 26.0418 20.6411 10
      vertex 26.0418 20.6411 5
      vertex 24.7723 19.2081 10
    endloop
  endfacet
  facet normal -0.748511 0.663123 0
    outer loop
      vertex 24.7723 19.2081 10
      vertex 26.0418 20.6411 5
      vertex 24.7723 19.2081 5
    endloop
  endfacet
  facet normal -0.970942 0.239316 0
    outer loop
      vertex 26.5 22.5 10
      vertex 26.5 22.5 5
      vertex 26.0418 20.6411 10
    endloop
  endfacet
  facet normal -0.970942 0.239316 0
    outer loop
      vertex 26.0418 20.6411 10
      vertex 26.5 22.5 5
      vertex 26.0418 20.6411 5
    endloop
  endfacet
  facet normal -0.970942 -0.239316 0
    outer loop
      vertex 26.5 22.5 10
      vertex 26.0418 24.3589 10
      vertex 26.5 22.5 5
    endloop
  endfacet
  facet normal -0.970942 -0.239316 0
    outer loop
      vertex 26.5 22.5 5
      vertex 26.0418 24.3589 10
      vertex 26.0418 24.3589 5
    endloop
  endfacet
  facet normal -0.748511 -0.663123 0
    outer loop
      vertex 26.0418 24.3589 10
      vertex 24.7723 25.7919 10
      vertex 26.0418 24.3589 5
    endloop
  endfacet
  facet normal -0.748511 -0.663123 0
    outer loop
      vertex 26.0418 24.3589 5
      vertex 24.7723 25.7919 10
      vertex 24.7723 25.7919 5
    endloop
  endfacet
  facet normal -0.354605 -0.935016 0
    outer loop
      vertex 24.7723 25.7919 5
      vertex 24.7723 25.7919 10
      vertex 22.9821 26.4708 10
    endloop
  endfacet
  facet normal -0.354605 -0.935016 0
    outer loop
      vertex 22.9821 26.4708 5
      vertex 24.7723 25.7919 5
      vertex 22.9821 26.4708 10
    endloop
  endfacet
  facet normal 0.120536 -0.992709 0
    outer loop
      vertex 22.9821 26.4708 5
      vertex 22.9821 26.4708 10
      vertex 21.0816 26.2401 10
    endloop
  endfacet
  facet normal 0.120536 -0.992709 0
    outer loop
      vertex 21.0816 26.2401 5
      vertex 22.9821 26.4708 5
      vertex 21.0816 26.2401 10
    endloop
  endfacet
  facet normal 0.568065 -0.822984 0
    outer loop
      vertex 21.0816 26.2401 5
      vertex 21.0816 26.2401 10
      vertex 19.506 25.1525 10
    endloop
  endfacet
  facet normal 0.568065 -0.822984 0
    outer loop
      vertex 19.506 25.1525 5
      vertex 21.0816 26.2401 5
      vertex 19.506 25.1525 10
    endloop
  endfacet
  facet normal 0.885456 -0.464723 0
    outer loop
      vertex 19.506 25.1525 5
      vertex 19.506 25.1525 10
      vertex 18.6162 23.4573 10
    endloop
  endfacet
  facet normal 0.885456 -0.464723 0
    outer loop
      vertex 18.6162 23.4573 5
      vertex 19.506 25.1525 5
      vertex 18.6162 23.4573 10
    endloop
  endfacet
  facet normal 0.309017 0.951056 0
    outer loop
      vertex 22.9635 6.07341 10
      vertex 22.9635 6.07341 5
      vertex 21.2865 6.61832 10
    endloop
  endfacet
  facet normal 0.309017 0.951056 0
    outer loop
      vertex 21.2865 6.61832 10
      vertex 22.9635 6.07341 5
      vertex 21.2865 6.61832 5
    endloop
  endfacet
  facet normal 1 0 0
    outer loop
      vertex 21.2865 8.38168 5
      vertex 21.2865 8.38168 10
      vertex 21.2865 6.61832 10
    endloop
  endfacet
  facet normal 1 0 0
    outer loop
      vertex 21.2865 6.61832 5
      vertex 21.2865 8.38168 5
      vertex 21.2865 6.61832 10
    endloop
  endfacet
  facet normal -0.809017 0.587785 0
    outer loop
      vertex 24 7.5 10
      vertex 24 7.5 5
      vertex 22.9635 6.07341 10
    endloop
  endfacet
  facet normal -0.809017 0.587785 0
    outer loop
      vertex 22.9635 6.07341 10
      vertex 24 7.5 5
      vertex 22.9635 6.07341 5
    endloop
  endfacet
  facet normal -0.809017 -0.587785 0
    outer loop
      vertex 24 7.5 10
      vertex 22.9635 8.92658 10
      vertex 24 7.5 5
    endloop
  endfacet
  facet normal -0.809017 -0.587785 0
    outer loop
      vertex 24 7.5 5
      vertex 22.9635 8.92658 10
      vertex 22.9635 8.92658 5
    endloop
  endfacet
  facet normal 0.309017 -0.951056 0
    outer loop
      vertex 22.9635 8.92658 5
      vertex 22.9635 8.92658 10
      vertex 21.2865 8.38168 10
    endloop
  endfacet
  facet normal 0.309017 -0.951056 0
    outer loop
      vertex 21.2865 8.38168 5
      vertex 22.9635 8.92658 5
      vertex 21.2865 8.38168 10
    endloop
  endfacet
  facet normal 0.913545 0.406737 0
    outer loop
      vertex 33.0983 21.5644 10
      vertex 33.8594 19.855 10
      vertex 33.8594 19.855 5
    endloop
  endfacet
  facet normal 0.913545 0.406737 0
    outer loop
      vertex 33.0983 21.5644 5
      vertex 33.0983 21.5644 10
      vertex 33.8594 19.855 5
    endloop
  endfacet
  facet normal 1 0 0
    outer loop
      vertex 33.0983 23.4356 5
      vertex 33.0983 23.4356 10
      vertex 33.0983 21.5644 10
    endloop
  endfacet
  facet normal 1 0 0
    outer loop
      vertex 33.0983 21.5644 5
      vertex 33.0983 23.4356 5
      vertex 33.0983 21.5644 10
    endloop
  endfacet
  facet normal 0.669131 0.743145 0
    outer loop
      vertex 35.25 18.6029 10
      vertex 35.25 18.6029 5
      vertex 33.8594 19.855 10
    endloop
  endfacet
  facet normal 0.669131 0.743145 0
    outer loop
      vertex 33.8594 19.855 10
      vertex 35.25 18.6029 5
      vertex 33.8594 19.855 5
    endloop
  endfacet
  facet normal 0.309017 0.951056 0
    outer loop
      vertex 37.0296 18.0247 10
      vertex 37.0296 18.0247 5
      vertex 35.25 18.6029 10
    endloop
  endfacet
  facet normal 0.309017 0.951056 0
    outer loop
      vertex 35.25 18.6029 10
      vertex 37.0296 18.0247 5
      vertex 35.25 18.6029 5
    endloop
  endfacet
  facet normal -0.104529 0.994522 0
    outer loop
      vertex 38.8906 18.2202 10
      vertex 38.8906 18.2202 5
      vertex 37.0296 18.0247 10
    endloop
  endfacet
  facet normal -0.104529 0.994522 0
    outer loop
      vertex 37.0296 18.0247 10
      vertex 38.8906 18.2202 5
      vertex 37.0296 18.0247 5
    endloop
  endfacet
  facet normal -0.5 0.866026 0
    outer loop
      vertex 40.5111 19.1558 10
      vertex 40.5111 19.1558 5
      vertex 38.8906 18.2202 10
    endloop
  endfacet
  facet normal -0.5 0.866026 0
    outer loop
      vertex 38.8906 18.2202 10
      vertex 40.5111 19.1558 5
      vertex 38.8906 18.2202 5
    endloop
  endfacet
  facet normal -0.809017 0.587785 0
    outer loop
      vertex 41.611 20.6697 10
      vertex 41.611 20.6697 5
      vertex 40.5111 19.1558 10
    endloop
  endfacet
  facet normal -0.809017 0.587785 0
    outer loop
      vertex 40.5111 19.1558 10
      vertex 41.611 20.6697 5
      vertex 40.5111 19.1558 5
    endloop
  endfacet
  facet normal -0.978148 0.207911 0
    outer loop
      vertex 42 22.5 10
      vertex 42 22.5 5
      vertex 41.611 20.6697 10
    endloop
  endfacet
  facet normal -0.978148 0.207911 0
    outer loop
      vertex 41.611 20.6697 10
      vertex 42 22.5 5
      vertex 41.611 20.6697 5
    endloop
  endfacet
  facet normal -0.978148 -0.207911 0
    outer loop
      vertex 42 22.5 10
      vertex 41.611 24.3303 10
      vertex 42 22.5 5
    endloop
  endfacet
  facet normal -0.978148 -0.207911 0
    outer loop
      vertex 42 22.5 5
      vertex 41.611 24.3303 10
      vertex 41.611 24.3303 5
    endloop
  endfacet
  facet normal -0.809017 -0.587785 0
    outer loop
      vertex 41.611 24.3303 10
      vertex 40.5111 25.8442 10
      vertex 41.611 24.3303 5
    endloop
  endfacet
  facet normal -0.809017 -0.587785 0
    outer loop
      vertex 41.611 24.3303 5
      vertex 40.5111 25.8442 10
      vertex 40.5111 25.8442 5
    endloop
  endfacet
  facet normal -0.5 -0.866026 0
    outer loop
      vertex 40.5111 25.8442 5
      vertex 40.5111 25.8442 10
      vertex 38.8906 26.7798 10
    endloop
  endfacet
  facet normal -0.5 -0.866026 0
    outer loop
      vertex 38.8906 26.7798 5
      vertex 40.5111 25.8442 5
      vertex 38.8906 26.7798 10
    endloop
  endfacet
  facet normal -0.104529 -0.994522 0
    outer loop
      vertex 38.8906 26.7798 5
      vertex 38.8906 26.7798 10
      vertex 37.0296 26.9753 10
    endloop
  endfacet
  facet normal -0.104529 -0.994522 0
    outer loop
      vertex 37.0296 26.9753 5
      vertex 38.8906 26.7798 5
      vertex 37.0296 26.9753 10
    endloop
  endfacet
  facet normal 0.309017 -0.951056 0
    outer loop
      vertex 37.0296 26.9753 5
      vertex 37.0296 26.9753 10
      vertex 35.25 26.3971 10
    endloop
  endfacet
  facet normal 0.309017 -0.951056 0
    outer loop
      vertex 35.25 26.3971 5
      vertex 37.0296 26.9753 5
      vertex 35.25 26.3971 10
    endloop
  endfacet
  facet normal 0.669131 -0.743145 0
    outer loop
      vertex 35.25 26.3971 5
      vertex 35.25 26.3971 10
      vertex 33.8594 25.145 10
    endloop
  endfacet
  facet normal 0.669131 -0.743145 0
    outer loop
      vertex 33.8594 25.145 5
      vertex 35.25 26.3971 5
      vertex 33.8594 25.145 10
    endloop
  endfacet
  facet normal 0.913545 -0.406737 0
    outer loop
      vertex 33.8594 25.145 5
      vertex 33.8594 25.145 10
      vertex 33.0983 23.4356 10
    endloop
  endfacet
  facet normal 0.913545 -0.406737 0
    outer loop
      vertex 33.0983 23.4356 5
      vertex 33.8594 25.145 5
      vertex 33.0983 23.4356 10
    endloop
  endfacet
  facet normal 0.62349 0.781831 0
    outer loop
      vertex 37.055 5.55014 10
      vertex 37.055 5.55014 5
      vertex 35.6981 6.63223 10
    endloop
  endfacet
  facet normal 0.62349 0.781831 0
    outer loop
      vertex 35.6981 6.63223 10
      vertex 37.055 5.55014 5
      vertex 35.6981 6.63223 5
    endloop
  endfacet
  facet normal 1 0 0
    outer loop
      vertex 35.6981 8.36777 5
      vertex 35.6981 8.36777 10
      vertex 35.6981 6.63223 10
    endloop
  endfacet
  facet normal 1 0 0
    outer loop
      vertex 35.6981 6.63223 5
      vertex 35.6981 8.36777 5
      vertex 35.6981 6.63223 10
    endloop
  endfacet
  facet normal -0.222521 0.974928 0
    outer loop
      vertex 38.747 5.93634 10
      vertex 38.747 5.93634 5
      vertex 37.055 5.55014 10
    endloop
  endfacet
  facet normal -0.222521 0.974928 0
    outer loop
      vertex 37.055 5.55014 10
      vertex 38.747 5.93634 5
      vertex 37.055 5.55014 5
    endloop
  endfacet
  facet normal -0.900969 0.433884 0
    outer loop
      vertex 39.5 7.5 10
      vertex 39.5 7.5 5
      vertex 38.747 5.93634 10
    endloop
  endfacet
  facet normal -0.900969 0.433884 0
    outer loop
      vertex 38.747 5.93634 10
      vertex 39.5 7.5 5
      vertex 38.747 5.93634 5
    endloop
  endfacet
  facet normal -0.900969 -0.433884 0
    outer loop
      vertex 39.5 7.5 10
      vertex 38.747 9.06366 10
      vertex 39.5 7.5 5
    endloop
  endfacet
  facet normal -0.900969 -0.433884 0
    outer loop
      vertex 39.5 7.5 5
      vertex 38.747 9.06366 10
      vertex 38.747 9.06366 5
    endloop
  endfacet
  facet normal -0.222521 -0.974928 0
    outer loop
      vertex 38.747 9.06366 5
      vertex 38.747 9.06366 10
      vertex 37.055 9.44986 10
    endloop
  endfacet
  facet normal -0.222521 -0.974928 0
    outer loop
      vertex 37.055 9.44986 5
      vertex 38.747 9.06366 5
      vertex 37.055 9.44986 10
    endloop
  endfacet
  facet normal 0.62349 -0.781831 0
    outer loop
      vertex 37.055 9.44986 5
      vertex 37.055 9.44986 10
      vertex 35.6981 8.36777 10
    endloop
  endfacet
  facet normal 0.62349 -0.781831 0
    outer loop
      vertex 35.6981 8.36777 5
      vertex 37.055 9.44986 5
      vertex 35.6981 8.36777 10
    endloop
  endfacet
  facet normal 0.980785 0.19509 0
    outer loop
      vertex 47.5 22.5 10
      vertex 47.8806 20.5866 10
      vertex 47.8806 20.5866 5
    endloop
  endfacet
  facet normal 0.980785 0.19509 0
    outer loop
      vertex 47.5 22.5 5
      vertex 47.5 22.5 10
      vertex 47.8806 20.5866 5
    endloop
  endfacet
  facet normal 0.83147 0.55557 0
    outer loop
      vertex 47.8806 20.5866 10
      vertex 48.9645 18.9645 10
      vertex 48.9645 18.9645 5
    endloop
  endfacet
  facet normal 0.83147 0.55557 0
    outer loop
      vertex 47.8806 20.5866 5
      vertex 47.8806 20.5866 10
      vertex 48.9645 18.9645 5
    endloop
  endfacet
  facet normal 0.55557 0.83147 0
    outer loop
      vertex 50.5866 17.8806 10
      vertex 50.5866 17.8806 5
      vertex 48.9645 18.9645 10
    endloop
  endfacet
  facet normal 0.55557 0.83147 0
    outer loop
      vertex 48.9645 18.9645 10
      vertex 50.5866 17.8806 5
      vertex 48.9645 18.9645 5
    endloop
  endfacet
  facet normal 0.19509 0.980785 0
    outer loop
      vertex 52.5 17.5 10
      vertex 52.5 17.5 5
      vertex 50.5866 17.8806 10
    endloop
  endfacet
  facet normal 0.19509 0.980785 0
    outer loop
      vertex 50.5866 17.8806 10
      vertex 52.5 17.5 5
      vertex 50.5866 17.8806 5
    endloop
  endfacet
  facet normal -0.19509 0.980785 0
    outer loop
      vertex 54.4134 17.8806 10
      vertex 54.4134 17.8806 5
      vertex 52.5 17.5 10
    endloop
  endfacet
  facet normal -0.19509 0.980785 0
    outer loop
      vertex 52.5 17.5 10
      vertex 54.4134 17.8806 5
      vertex 52.5 17.5 5
    endloop
  endfacet
  facet normal -0.55557 0.83147 0
    outer loop
      vertex 56.0355 18.9645 10
      vertex 56.0355 18.9645 5
      vertex 54.4134 17.8806 10
    endloop
  endfacet
  facet normal -0.55557 0.83147 0
    outer loop
      vertex 54.4134 17.8806 10
      vertex 56.0355 18.9645 5
      vertex 54.4134 17.8806 5
    endloop
  endfacet
  facet normal -0.83147 0.55557 0
    outer loop
      vertex 57.1194 20.5866 10
      vertex 57.1194 20.5866 5
      vertex 56.0355 18.9645 10
    endloop
  endfacet
  facet normal -0.83147 0.55557 0
    outer loop
      vertex 56.0355 18.9645 10
      vertex 57.1194 20.5866 5
      vertex 56.0355 18.9645 5
    endloop
  endfacet
  facet normal -0.980785 0.19509 0
    outer loop
      vertex 57.5 22.5 10
      vertex 57.5 22.5 5
      vertex 57.1194 20.5866 10
    endloop
  endfacet
  facet normal -0.980785 0.19509 0
    outer loop
      vertex 57.1194 20.5866 10
      vertex 57.5 22.5 5
      vertex 57.1194 20.5866 5
    endloop
  endfacet
  facet normal -0.980785 -0.19509 0
    outer loop
      vertex 57.5 22.5 10
      vertex 57.1194 24.4134 10
      vertex 57.5 22.5 5
    endloop
  endfacet
  facet normal -0.980785 -0.19509 0
    outer loop
      vertex 57.5 22.5 5
      vertex 57.1194 24.4134 10
      vertex 57.1194 24.4134 5
    endloop
  endfacet
  facet normal -0.83147 -0.55557 0
    outer loop
      vertex 57.1194 24.4134 10
      vertex 56.0355 26.0355 10
      vertex 57.1194 24.4134 5
    endloop
  endfacet
  facet normal -0.83147 -0.55557 0
    outer loop
      vertex 57.1194 24.4134 5
      vertex 56.0355 26.0355 10
      vertex 56.0355 26.0355 5
    endloop
  endfacet
  facet normal -0.55557 -0.83147 0
    outer loop
      vertex 56.0355 26.0355 5
      vertex 56.0355 26.0355 10
      vertex 54.4134 27.1194 10
    endloop
  endfacet
  facet normal -0.55557 -0.83147 0
    outer loop
      vertex 54.4134 27.1194 5
      vertex 56.0355 26.0355 5
      vertex 54.4134 27.1194 10
    endloop
  endfacet
  facet normal -0.19509 -0.980785 0
    outer loop
      vertex 54.4134 27.1194 5
      vertex 54.4134 27.1194 10
      vertex 52.5 27.5 10
    endloop
  endfacet
  facet normal -0.19509 -0.980785 0
    outer loop
      vertex 52.5 27.5 5
      vertex 54.4134 27.1194 5
      vertex 52.5 27.5 10
    endloop
  endfacet
  facet normal 0.19509 -0.980785 0
    outer loop
      vertex 52.5 27.5 5
      vertex 52.5 27.5 10
      vertex 50.5866 27.1194 10
    endloop
  endfacet
  facet normal 0.19509 -0.980785 0
    outer loop
      vertex 50.5866 27.1194 5
      vertex 52.5 27.5 5
      vertex 50.5866 27.1194 10
    endloop
  endfacet
  facet normal 0.55557 -0.83147 0
    outer loop
      vertex 50.5866 27.1194 5
      vertex 50.5866 27.1194 10
      vertex 48.9645 26.0355 10
    endloop
  endfacet
  facet normal 0.55557 -0.83147 0
    outer loop
      vertex 48.9645 26.0355 5
      vertex 50.5866 27.1194 5
      vertex 48.9645 26.0355 10
    endloop
  endfacet
  facet normal 0.83147 -0.55557 0
    outer loop
      vertex 48.9645 26.0355 5
      vertex 48.9645 26.0355 10
      vertex 47.8806 24.4134 10
    endloop
  endfacet
  facet normal 0.83147 -0.55557 0
    outer loop
      vertex 47.8806 24.4134 5
      vertex 48.9645 26.0355 5
      vertex 47.8806 24.4134 10
    endloop
  endfacet
  facet normal 0.980785 -0.19509 0
    outer loop
      vertex 47.8806 24.4134 5
      vertex 47.8806 24.4134 10
      vertex 47.5 22.5 10
    endloop
  endfacet
  facet normal 0.980785 -0.19509 0
    outer loop
      vertex 47.5 22.5 5
      vertex 47.8806 24.4134 5
      vertex 47.5 22.5 10
    endloop
  endfacet
  facet normal 0.382683 0.92388 0
    outer loop
      vertex 52.5 5 10
      vertex 52.5 5 5
      vertex 50.7322 5.73223 10
    endloop
  endfacet
  facet normal 0.382683 0.92388 0
    outer loop
      vertex 50.7322 5.73223 10
      vertex 52.5 5 5
      vertex 50.7322 5.73223 5
    endloop
  endfacet
  facet normal 0.92388 0.382683 0
    outer loop
      vertex 50 7.5 10
      vertex 50.7322 5.73223 10
      vertex 50.7322 5.73223 5
    endloop
  endfacet
  facet normal 0.92388 0.382683 0
    outer loop
      vertex 50 7.5 5
      vertex 50 7.5 10
      vertex 50.7322 5.73223 5
    endloop
  endfacet
  facet normal -0.382683 0.92388 0
    outer loop
      vertex 54.2678 5.73223 10
      vertex 54.2678 5.73223 5
      vertex 52.5 5 10
    endloop
  endfacet
  facet normal -0.382683 0.92388 0
    outer loop
      vertex 52.5 5 10
      vertex 54.2678 5.73223 5
      vertex 52.5 5 5
    endloop
  endfacet
  facet normal -0.92388 0.382683 0
    outer loop
      vertex 55 7.5 10
      vertex 55 7.5 5
      vertex 54.2678 5.73223 10
    endloop
  endfacet
  facet normal -0.92388 0.382683 0
    outer loop
      vertex 54.2678 5.73223 10
      vertex 55 7.5 5
      vertex 54.2678 5.73223 5
    endloop
  endfacet
  facet normal -0.92388 -0.382683 0
    outer loop
      vertex 55 7.5 10
      vertex 54.2678 9.26777 10
      vertex 55 7.5 5
    endloop
  endfacet
  facet normal -0.92388 -0.382683 0
    outer loop
      vertex 55 7.5 5
      vertex 54.2678 9.26777 10
      vertex 54.2678 9.26777 5
    endloop
  endfacet
  facet normal -0.382683 -0.92388 0
    outer loop
      vertex 54.2678 9.26777 5
      vertex 54.2678 9.26777 10
      vertex 52.5 10 10
    endloop
  endfacet
  facet normal -0.382683 -0.92388 0
    outer loop
      vertex 52.5 10 5
      vertex 54.2678 9.26777 5
      vertex 52.5 10 10
    endloop
  endfacet
  facet normal 0.382683 -0.92388 0
    outer loop
      vertex 52.5 10 5
      vertex 52.5 10 10
      vertex 50.7322 9.26777 10
    endloop
  endfacet
  facet normal 0.382683 -0.92388 0
    outer loop
      vertex 50.7322 9.26777 5
      vertex 52.5 10 5
      vertex 50.7322 9.26777 10
    endloop
  endfacet
  facet normal 0.92388 -0.382683 0
    outer loop
      vertex 50.7322 9.26777 5
      vertex 50.7322 9.26777 10
      vertex 50 7.5 10
    endloop
  endfacet
  facet normal 0.92388 -0.382683 0
    outer loop
      vertex 50 7.5 5
      vertex 50.7322 9.26777 5
      vertex 50 7.5 10
    endloop
  endfacet
  facet normal 0.984808 0.173648 0
    outer loop
      vertex 62 22.5 10
      vertex 62.3317 20.6189 10
      vertex 62.3317 20.6189 5
    endloop
  endfacet
  facet normal 0.984808 0.173648 0
    outer loop
      vertex 62 22.5 5
      vertex 62 22.5 10
      vertex 62.3317 20.6189 5
    endloop
  endfacet
  facet normal 0.866025 0.5 0
    outer loop
      vertex 62.3317 20.6189 10
      vertex 63.2868 18.9647 10
      vertex 63.2868 18.9647 5
    endloop
  endfacet
  facet normal 0.866025 0.5 0
    outer loop
      vertex 62.3317 20.6189 5
      vertex 62.3317 20.6189 10
      vertex 63.2868 18.9647 5
    endloop
  endfacet
  facet normal 0.642788 0.766044 0
    outer loop
      vertex 64.75 17.7369 10
      vertex 64.75 17.7369 5
      vertex 63.2868 18.9647 10
    endloop
  endfacet
  facet normal 0.642788 0.766044 0
    outer loop
      vertex 63.2868 18.9647 10
      vertex 64.75 17.7369 5
      vertex 63.2868 18.9647 5
    endloop
  endfacet
  facet normal 0.34202 0.939693 0
    outer loop
      vertex 66.5449 17.0836 10
      vertex 66.5449 17.0836 5
      vertex 64.75 17.7369 10
    endloop
  endfacet
  facet normal 0.34202 0.939693 0
    outer loop
      vertex 64.75 17.7369 10
      vertex 66.5449 17.0836 5
      vertex 64.75 17.7369 5
    endloop
  endfacet
  facet normal 0 1 0
    outer loop
      vertex 68.4551 17.0836 10
      vertex 68.4551 17.0836 5
      vertex 66.5449 17.0836 10
    endloop
  endfacet
  facet normal 0 1 0
    outer loop
      vertex 66.5449 17.0836 10
      vertex 68.4551 17.0836 5
      vertex 66.5449 17.0836 5
    endloop
  endfacet
  facet normal -0.34202 0.939693 0
    outer loop
      vertex 70.25 17.7369 10
      vertex 70.25 17.7369 5
      vertex 68.4551 17.0836 10
    endloop
  endfacet
  facet normal -0.34202 0.939693 0
    outer loop
      vertex 68.4551 17.0836 10
      vertex 70.25 17.7369 5
      vertex 68.4551 17.0836 5
    endloop
  endfacet
  facet normal -0.642788 0.766044 0
    outer loop
      vertex 71.7132 18.9647 10
      vertex 71.7132 18.9647 5
      vertex 70.25 17.7369 10
    endloop
  endfacet
  facet normal -0.642788 0.766044 0
    outer loop
      vertex 70.25 17.7369 10
      vertex 71.7132 18.9647 5
      vertex 70.25 17.7369 5
    endloop
  endfacet
  facet normal -0.866025 0.5 0
    outer loop
      vertex 72.6683 20.6189 10
      vertex 72.6683 20.6189 5
      vertex 71.7132 18.9647 10
    endloop
  endfacet
  facet normal -0.866025 0.5 0
    outer loop
      vertex 71.7132 18.9647 10
      vertex 72.6683 20.6189 5
      vertex 71.7132 18.9647 5
    endloop
  endfacet
  facet normal -0.984808 0.173648 0
    outer loop
      vertex 73 22.5 10
      vertex 73 22.5 5
      vertex 72.6683 20.6189 10
    endloop
  endfacet
  facet normal -0.984808 0.173648 0
    outer loop
      vertex 72.6683 20.6189 10
      vertex 73 22.5 5
      vertex 72.6683 20.6189 5
    endloop
  endfacet
  facet normal -0.984808 -0.173648 0
    outer loop
      vertex 73 22.5 10
      vertex 72.6683 24.3811 10
      vertex 73 22.5 5
    endloop
  endfacet
  facet normal -0.984808 -0.173648 0
    outer loop
      vertex 73 22.5 5
      vertex 72.6683 24.3811 10
      vertex 72.6683 24.3811 5
    endloop
  endfacet
  facet normal -0.866025 -0.5 0
    outer loop
      vertex 72.6683 24.3811 10
      vertex 71.7132 26.0353 10
      vertex 72.6683 24.3811 5
    endloop
  endfacet
  facet normal -0.866025 -0.5 0
    outer loop
      vertex 72.6683 24.3811 5
      vertex 71.7132 26.0353 10
      vertex 71.7132 26.0353 5
    endloop
  endfacet
  facet normal -0.642788 -0.766044 0
    outer loop
      vertex 71.7132 26.0353 5
      vertex 71.7132 26.0353 10
      vertex 70.25 27.2631 10
    endloop
  endfacet
  facet normal -0.642788 -0.766044 0
    outer loop
      vertex 70.25 27.2631 5
      vertex 71.7132 26.0353 5
      vertex 70.25 27.2631 10
    endloop
  endfacet
  facet normal -0.34202 -0.939693 0
    outer loop
      vertex 70.25 27.2631 5
      vertex 70.25 27.2631 10
      vertex 68.4551 27.9164 10
    endloop
  endfacet
  facet normal -0.34202 -0.939693 0
    outer loop
      vertex 68.4551 27.9164 5
      vertex 70.25 27.2631 5
      vertex 68.4551 27.9164 10
    endloop
  endfacet
  facet normal 0 -1 0
    outer loop
      vertex 68.4551 27.9164 5
      vertex 68.4551 27.9164 10
      vertex 66.5449 27.9164 10
    endloop
  endfacet
  facet normal 0 -1 0
    outer loop
      vertex 66.5449 27.9164 5
      vertex 68.4551 27.9164 5
      vertex 66.5449 27.9164 10
    endloop
  endfacet
  facet normal 0.34202 -0.939693 0
    outer loop
      vertex 66.5449 27.9164 5
      vertex 66.5449 27.9164 10
      vertex 64.75 27.2631 10
    endloop
  endfacet
  facet normal 0.34202 -0.939693 0
    outer loop
      vertex 64.75 27.2631 5
      vertex 66.5449 27.9164 5
      vertex 64.75 27.2631 10
    endloop
  endfacet
  facet normal 0.642788 -0.766044 0
    outer loop
      vertex 64.75 27.2631 5
      vertex 64.75 27.2631 10
      vertex 63.2868 26.0353 10
    endloop
  endfacet
  facet normal 0.642788 -0.766044 0
    outer loop
      vertex 63.2868 26.0353 5
      vertex 64.75 27.2631 5
      vertex 63.2868 26.0353 10
    endloop
  endfacet
  facet normal 0.866025 -0.5 0
    outer loop
      vertex 63.2868 26.0353 5
      vertex 63.2868 26.0353 10
      vertex 62.3317 24.3811 10
    endloop
  endfacet
  facet normal 0.866025 -0.5 0
    outer loop
      vertex 62.3317 24.3811 5
      vertex 63.2868 26.0353 5
      vertex 62.3317 24.3811 10
    endloop
  endfacet
  facet normal 0.984808 -0.173648 0
    outer loop
      vertex 62.3317 24.3811 5
      vertex 62.3317 24.3811 10
      vertex 62 22.5 10
    endloop
  endfacet
  facet normal 0.984808 -0.173648 0
    outer loop
      vertex 62 22.5 5
      vertex 62.3317 24.3811 5
      vertex 62 22.5 10
    endloop
  endfacet
  facet normal 0.587785 0.809017 0
    outer loop
      vertex 66.5729 4.64683 10
      vertex 66.5729 4.64683 5
      vertex 65.0729 5.73664 10
    endloop
  endfacet
  facet normal 0.587785 0.809017 0
    outer loop
      vertex 65.0729 5.73664 10
      vertex 66.5729 4.64683 5
      vertex 65.0729 5.73664 5
    endloop
  endfacet
  facet normal 0.951057 0.309017 0
    outer loop
      vertex 64.5 7.5 10
      vertex 65.0729 5.73664 10
      vertex 65.0729 5.73664 5
    endloop
  endfacet
  facet normal 0.951057 0.309017 0
    outer loop
      vertex 64.5 7.5 5
      vertex 64.5 7.5 10
      vertex 65.0729 5.73664 5
    endloop
  endfacet
  facet normal 0 1 0
    outer loop
      vertex 68.4271 4.64683 10
      vertex 68.4271 4.64683 5
      vertex 66.5729 4.64683 10
    endloop
  endfacet
  facet normal 0 1 0
    outer loop
      vertex 66.5729 4.64683 10
      vertex 68.4271 4.64683 5
      vertex 66.5729 4.64683 5
    endloop
  endfacet
  facet normal -0.587785 0.809017 0
    outer loop
      vertex 69.9271 5.73664 10
      vertex 69.9271 5.73664 5
      vertex 68.4271 4.64683 10
    endloop
  endfacet
  facet normal -0.587785 0.809017 0
    outer loop
      vertex 68.4271 4.64683 10
      vertex 69.9271 5.73664 5
      vertex 68.4271 4.64683 5
    endloop
  endfacet
  facet normal -0.951057 0.309017 0
    outer loop
      vertex 70.5 7.5 10
      vertex 70.5 7.5 5
      vertex 69.9271 5.73664 10
    endloop
  endfacet
  facet normal -0.951057 0.309017 0
    outer loop
      vertex 69.9271 5.73664 10
      vertex 70.5 7.5 5
      vertex 69.9271 5.73664 5
    endloop
  endfacet
  facet normal -0.951057 -0.309017 0
    outer loop
      vertex 70.5 7.5 10
      vertex 69.9271 9.26336 10
      vertex 70.5 7.5 5
    endloop
  endfacet
  facet normal -0.951057 -0.309017 0
    outer loop
      vertex 70.5 7.5 5
      vertex 69.9271 9.26336 10
      vertex 69.9271 9.26336 5
    endloop
  endfacet
  facet normal -0.587785 -0.809017 0
    outer loop
      vertex 69.9271 9.26336 5
      vertex 69.9271 9.26336 10
      vertex 68.4271 10.3532 10
    endloop
  endfacet
  facet normal -0.587785 -0.809017 0
    outer loop
      vertex 68.4271 10.3532 5
      vertex 69.9271 9.26336 5
      vertex 68.4271 10.3532 10
    endloop
  endfacet
  facet normal 0 -1 0
    outer loop
      vertex 68.4271 10.3532 5
      vertex 68.4271 10.3532 10
      vertex 66.5729 10.3532 10
    endloop
  endfacet
  facet normal 0 -1 0
    outer loop
      vertex 66.5729 10.3532 5
      vertex 68.4271 10.3532 5
      vertex 66.5729 10.3532 10
    endloop
  endfacet
  facet normal 0.587785 -0.809017 0
    outer loop
      vertex 66.5729 10.3532 5
      vertex 66.5729 10.3532 10
      vertex 65.0729 9.26336 10
    endloop
  endfacet
  facet normal 0.587785 -0.809017 0
    outer loop
      vertex 65.0729 9.26336 5
      vertex 66.5729 10.3532 5
      vertex 65.0729 9.26336 10
    endloop
  endfacet
  facet normal 0.951057 -0.309017 0
    outer loop
      vertex 65.0729 9.26336 5
      vertex 65.0729 9.26336 10
      vertex 64.5 7.5 10
    endloop
  endfacet
  facet normal 0.951057 -0.309017 0
    outer loop
      vertex 64.5 7.5 5
      vertex 65.0729 9.26336 5
      vertex 64.5 7.5 10
    endloop
  endfacet
  facet normal 0 0 1
    outer loop
      vertex 5.20799 19.8549 5
      vertex 7.0019 19.0356 5
      vertex 8.95395 19.3163 5
    endloop
  endfacet
  facet normal 0 0 1
    outer loop
      vertex 11 22.5 5
      vertex 5.20799 19.8549 5
      vertex 10.4444 20.6078 5
    endloop
  endfacet
  facet normal 0 0 1
    outer loop
      vertex 10.4444 20.6078 5
      vertex 5.20799 19.8549 5
      vertex 8.95395 19.3163 5
    endloop
  endfacet
  facet normal 0 0 1
    outer loop
      vertex 10.4444 24.3922 5
      vertex 5.20799 19.8549 5
      vertex 11 22.5 5
    endloop
  endfacet
  facet normal 0 0 1
    outer loop
      vertex 8.95395 25.6837 5
      vertex 5.20799 19.8549 5
      vertex 10.4444 24.3922 5
    endloop
  endfacet
  facet normal 0 0 1
    outer loop
      vertex 7.0019 25.9644 5
      vertex 5.20799 19.8549 5
      vertex 8.95395 25.6837 5
    endloop
  endfacet
  facet normal 0 0 1
    outer loop
      vertex 5.20799 25.1451 5
      vertex 5.20799 19.8549 5
      vertex 7.0019 25.9644 5
    endloop
  endfacet
  facet normal 0 0 1
    outer loop
      vertex 4.14177 23.4861 5
      vertex 5.20799 19.8549 5
      vertex 5.20799 25.1451 5
    endloop
  endfacet
  facet normal 0 0 1
    outer loop
      vertex 4.14177 21.5139 5
      vertex 5.20799 19.8549 5
      vertex 4.14177 23.4861 5
    endloop
  endfacet
  facet normal 0 0 1
    outer loop
      vertex 7.80902 6.54894 5
      vertex 8.5 7.5 5
      vertex 7.80902 8.45106 5
    endloop
  endfacet
  facet normal 0 0 1
    outer loop
      vertex 6.69098 6.91221 5
      vertex 7.80902 6.54894 5
      vertex 6.69098 8.08778 5
    endloop
  endfacet
  facet normal 0 0 1
    outer loop
      vertex 6.69098 8.08778 5
      vertex 7.80902 6.54894 5
      vertex 7.80902 8.45106 5
    endloop
  endfacet
  facet normal 0 0 1
    outer loop
      vertex 19.506 19.8475 5
      vertex 21.0816 18.7599 5
      vertex 22.9821 18.5292 5
    endloop
  endfacet
  facet normal 0 0 1
    outer loop
      vertex 26.0418 20.6411 5
      vertex 19.506 19.8475 5
      vertex 24.7723 19.2081 5
    endloop
  endfacet
  facet normal 0 0 1
    outer loop
      vertex 24.7723 19.2081 5
      vertex 19.506 19.8475 5
      vertex 22.9821 18.5292 5
    endloop
  endfacet
  facet normal 0 0 1
    outer loop
      vertex 26.5 22.5 5
      vertex 19.506 19.8475 5
      vertex 26.0418 20.6411 5
    endloop
  endfacet
  facet normal 0 0 1
    outer loop
      vertex 26.0418 24.3589 5
      vertex 19.506 19.8475 5
      vertex 26.5 22.5 5
    endloop
  endfacet
  facet normal 0 0 1
    outer loop
      vertex 24.7723 25.7919 5
      vertex 19.506 19.8475 5
      vertex 26.0418 24.3589 5
    endloop
  endfacet
  facet normal 0 0 1
    outer loop
      vertex 22.9821 26.4708 5
      vertex 19.506 19.8475 5
      vertex 24.7723 25.7919 5
    endloop
  endfacet
  facet normal 0 0 1
    outer loop
      vertex 21.0816 26.2401 5
      vertex 19.506 19.8475 5
      vertex 22.9821 26.4708 5
    endloop
  endfacet
  facet normal 0 0 1
    outer loop
      vertex 19.506 25.1525 5
      vertex 19.506 19.8475 5
      vertex 21.0816 26.2401 5
    endloop
  endfacet
  facet normal 0 0 1
    outer loop
      vertex 18.6162 23.4573 5
      vertex 19.506 19.8475 5
      vertex 19.506 25.1525 5
    endloop
  endfacet
  facet normal 0 0 1
    outer loop
      vertex 18.6162 21.5427 5
      vertex 19.506 19.8475 5
      vertex 18.6162 23.4573 5
    endloop
  endfacet
  facet normal 0 0 1
    outer loop
      vertex 22.9635 6.07341 5
      vertex 24 7.5 5
      vertex 22.9635 8.92658 5
    endloop
  endfacet
  facet normal 0 0 1
    outer loop
      vertex 21.2865 6.61832 5
      vertex 22.9635 6.07341 5
      vertex 21.2865 8.38168 5
    endloop
  endfacet
  facet normal 0 0 1
    outer loop
      vertex 21.2865 8.38168 5
      vertex 22.9635 6.07341 5
      vertex 22.9635 8.92658 5
    endloop
  endfacet
  facet normal 0 0 1
    outer loop
      vertex 33.8594 19.855 5
      vertex 35.25 18.6029 5
      vertex 37.0296 18.0247 5
    endloop
  endfacet
  facet normal 0 0 1
    outer loop
      vertex 40.5111 19.1558 5
      vertex 33.8594 19.855 5
      vertex 38.8906 18.2202 5
    endloop
  endfacet
  facet normal 0 0 1
    outer loop
      vertex 38.8906 18.2202 5
      vertex 33.8594 19.855 5
      vertex 37.0296 18.0247 5
    endloop
  endfacet
  facet normal 0 0 1
    outer loop
      vertex 41.611 20.6697 5
      vertex 33.8594 19.855 5
      vertex 40.5111 19.1558 5
    endloop
  endfacet
  facet normal 0 0 1
    outer loop
      vertex 42 22.5 5
      vertex 33.8594 19.855 5
      vertex 41.611 20.6697 5
    endloop
  endfacet
  facet normal 0 0 1
    outer loop
      vertex 41.611 24.3303 5
      vertex 33.8594 19.855 5
      vertex 42 22.5 5
    endloop
  endfacet
  facet normal 0 0 1
    outer loop
      vertex 40.5111 25.8442 5
      vertex 33.8594 19.855 5
      vertex 41.611 24.3303 5
    endloop
  endfacet
  facet normal 0 0 1
    outer loop
      vertex 38.8906 26.7798 5
      vertex 33.8594 19.855 5
      vertex 40.5111 25.8442 5
    endloop
  endfacet
  facet normal 0 0 1
    outer loop
      vertex 37.0296 26.9753 5
      vertex 33.8594 19.855 5
      vertex 38.8906 26.7798 5
    endloop
  endfacet
  facet normal 0 0 1
    outer loop
      vertex 35.25 26.3971 5
      vertex 33.8594 19.855 5
      vertex 37.0296 26.9753 5
    endloop
  endfacet
  facet normal 0 0 1
    outer loop
      vertex 33.8594 25.145 5
      vertex 33.8594 19.855 5
      vertex 35.25 26.3971 5
    endloop
  endfacet
  facet normal 0 0 1
    outer loop
      vertex 33.0983 23.4356 5
      vertex 33.8594 19.855 5
      vertex 33.8594 25.145 5
    endloop
  endfacet
  facet normal 0 0 1
    outer loop
      vertex 33.0983 21.5644 5
      vertex 33.8594 19.855 5
      vertex 33.0983 23.4356 5
    endloop
  endfacet
  facet normal 0 0 1
    outer loop
      vertex 37.055 5.55014 5
      vertex 38.747 5.93634 5
      vertex 39.5 7.5 5
    endloop
  endfacet
  facet normal 0 0 1
    outer loop
      vertex 37.055 9.44986 5
      vertex 37.055 5.55014 5
      vertex 38.747 9.06366 5
    endloop
  endfacet
  facet normal 0 0 1
    outer loop
      vertex 38.747 9.06366 5
      vertex 37.055 5.55014 5
      vertex 39.5 7.5 5
    endloop
  endfacet
  facet normal 0 0 1
    outer loop
      vertex 35.6981 8.36777 5
      vertex 37.055 5.55014 5
      vertex 37.055 9.44986 5
    endloop
  endfacet
  facet normal 0 0 1
    outer loop
      vertex 35.6981 6.63223 5
      vertex 37.055 5.55014 5
      vertex 35.6981 8.36777 5
    endloop
  endfacet
  facet normal 0 0 1
    outer loop
      vertex 47.8806 20.5866 5
      vertex 48.9645 18.9645 5
      vertex 50.5866 17.8806 5
    endloop
  endfacet
  facet normal 0 0 1
    outer loop
      vertex 54.4134 17.8806 5
      vertex 47.8806 20.5866 5
      vertex 52.5 17.5 5
    endloop
  endfacet
  facet normal 0 0 1
    outer loop
      vertex 52.5 17.5 5
      vertex 47.8806 20.5866 5
      vertex 50.5866 17.8806 5
    endloop
  endfacet
  facet normal 0 0 1
    outer loop
      vertex 56.0355 18.9645 5
      vertex 47.8806 20.5866 5
      vertex 54.4134 17.8806 5
    endloop
  endfacet
  facet normal 0 0 1
    outer loop
      vertex 57.1194 20.5866 5
      vertex 47.8806 20.5866 5
      vertex 56.0355 18.9645 5
    endloop
  endfacet
  facet normal 0 0 1
    outer loop
      vertex 57.5 22.5 5
      vertex 47.8806 20.5866 5
      vertex 57.1194 20.5866 5
    endloop
  endfacet
  facet normal 0 0 1
    outer loop
      vertex 57.1194 24.4134 5
      vertex 47.8806 20.5866 5
      vertex 57.5 22.5 5
    endloop
  endfacet
  facet normal 0 0 1
    outer loop
      vertex 56.0355 26.0355 5
      vertex 47.8806 20.5866 5
      vertex 57.1194 24.4134 5
    endloop
  endfacet
  facet normal 0 0 1
    outer loop
      vertex 54.4134 27.1194 5
      vertex 47.8806 20.5866 5
      vertex 56.0355 26.0355 5
    endloop
  endfacet
  facet normal 0 0 1
    outer loop
      vertex 52.5 27.5 5
      vertex 47.8806 20.5866 5
      vertex 54.4134 27.1194 5
    endloop
  endfacet
  facet normal 0 0 1
    outer loop
      vertex 50.5866 27.1194 5
      vertex 47.8806 20.5866 5
      vertex 52.5 27.5 5
    endloop
  endfacet
  facet normal 0 0 1
    outer loop
      vertex 48.9645 26.0355 5
      vertex 47.8806 20.5866 5
      vertex 50.5866 27.1194 5
    endloop
  endfacet
  facet normal 0 0 1
    outer loop
      vertex 47.8806 24.4134 5
      vertex 47.8806 20.5866 5
      vertex 48.9645 26.0355 5
    endloop
  endfacet
  facet normal 0 0 1
    outer loop
      vertex 47.5 22.5 5
      vertex 47.8806 20.5866 5
      vertex 47.8806 24.4134 5
    endloop
  endfacet
  facet normal 0 0 1
    outer loop
      vertex 50.7322 5.73223 5
      vertex 52.5 5 5
      vertex 54.2678 5.73223 5
    endloop
  endfacet
  facet normal 0 0 1
    outer loop
      vertex 54.2678 9.26777 5
      vertex 50.7322 5.73223 5
      vertex 55 7.5 5
    endloop
  endfacet
  facet normal 0 0 1
    outer loop
      vertex 55 7.5 5
      vertex 50.7322 5.73223 5
      vertex 54.2678 5.73223 5
    endloop
  endfacet
  facet normal 0 0 1
    outer loop
      vertex 52.5 10 5
      vertex 50.7322 5.73223 5
      vertex 54.2678 9.26777 5
    endloop
  endfacet
  facet normal 0 0 1
    outer loop
      vertex 50.7322 9.26777 5
      vertex 50.7322 5.73223 5
      vertex 52.5 10 5
    endloop
  endfacet
  facet normal 0 0 1
    outer loop
      vertex 50 7.5 5
      vertex 50.7322 5.73223 5
      vertex 50.7322 9.26777 5
    endloop
  endfacet
  facet normal 0 0 1
    outer loop
      vertex 62.3317 20.6189 5
      vertex 63.2868 18.9647 5
      vertex 64.75 17.7369 5
    endloop
  endfacet
  facet normal 0 0 1
    outer loop
      vertex 68.4551 17.0836 5
      vertex 62.3317 20.6189 5
      vertex 66.5449 17.0836 5
    endloop
  endfacet
  facet normal 0 0 1
    outer loop
      vertex 66.5449 17.0836 5
      vertex 62.3317 20.6189 5
      vertex 64.75 17.7369 5
    endloop
  endfacet
  facet normal 0 0 1
    outer loop
      vertex 70.25 17.7369 5
      vertex 62.3317 20.6189 5
      vertex 68.4551 17.0836 5
    endloop
  endfacet
  facet normal 0 0 1
    outer loop
      vertex 71.7132 18.9647 5
      vertex 62.3317 20.6189 5
      vertex 70.25 17.7369 5
    endloop
  endfacet
  facet normal 0 0 1
    outer loop
      vertex 72.6683 20.6189 5
      vertex 62.3317 20.6189 5
      vertex 71.7132 18.9647 5
    endloop
  endfacet
  facet normal 0 0 1
    outer loop
      vertex 73 22.5 5
      vertex 62.3317 20.6189 5
      vertex 72.6683 20.6189 5
    endloop
  endfacet
  facet normal 0 0 1
    outer loop
      vertex 72.6683 24.3811 5
      vertex 62.3317 20.6189 5
      vertex 73 22.5 5
    endloop
  endfacet
  facet normal 0 0 1
    outer loop
      vertex 71.7132 26.0353 5
      vertex 62.3317 20.6189 5
      vertex 72.6683 24.3811 5
    endloop
  endfacet
  facet normal 0 0 1
    outer loop
      vertex 70.25 27.2631 5
      vertex 62.3317 20.6189 5
      vertex 71.7132 26.0353 5
    endloop
  endfacet
  facet normal 0 0 1
    outer loop
      vertex 68.4551 27.9164 5
      vertex 62.3317 20.6189 5
      vertex 70.25 27.2631 5
    endloop
  endfacet
  facet normal 0 0 1
    outer loop
      vertex 66.5449 27.9164 5
      vertex 62.3317 20.6189 5
      vertex 68.4551 27.9164 5
    endloop
  endfacet
  facet normal 0 0 1
    outer loop
      vertex 64.75 27.2631 5
      vertex 62.3317 20.6189 5
      vertex 66.5449 27.9164 5
    endloop
  endfacet
  facet normal 0 0 1
    outer loop
      vertex 63.2868 26.0353 5
      vertex 62.3317 20.6189 5
      vertex 64.75 27.2631 5
    endloop
  endfacet
  facet normal 0 0 1
    outer loop
      vertex 62.3317 24.3811 5
      vertex 62.3317 20.6189 5
      vertex 63.2868 26.0353 5
    endloop
  endfacet
  facet normal 0 0 1
    outer loop
      vertex 62 22.5 5
      vertex 62.3317 20.6189 5
      vertex 62.3317 24.3811 5
    endloop
  endfacet
  facet normal 0 0 1
    outer loop
      vertex 65.0729 5.73664 5
      vertex 66.5729 4.64683 5
      vertex 68.4271 4.64683 5
    endloop
  endfacet
  facet normal 0 0 1
    outer loop
      vertex 70.5 7.5 5
      vertex 65.0729 5.73664 5
      vertex 69.9271 5.73664 5
    endloop
  endfacet
  facet normal 0 0 1
    outer loop
      vertex 69.9271 5.73664 5
      vertex 65.0729 5.73664 5
      vertex 68.4271 4.64683 5
    endloop
  endfacet
  facet normal 0 0 1
    outer loop
      vertex 69.9271 9.26336 5
      vertex 65.0729 5.73664 5
      vertex 70.5 7.5 5
    endloop
  endfacet
  facet normal 0 0 1
    outer loop
      vertex 68.4271 10.3532 5
      vertex 65.0729 5.73664 5
      vertex 69.9271 9.26336 5
    endloop
  endfacet
  facet normal 0 0 1
    outer loop
      vertex 66.5729 10.3532 5
      vertex 65.0729 5.73664 5
      vertex 68.4271 10.3532 5
    endloop
  endfacet
  facet normal 0 0 1
    outer loop
      vertex 65.0729 9.26336 5
      vertex 65.0729 5.73664 5
      vertex 66.5729 10.3532 5
    endloop
  endfacet
  facet normal 0 0 1
    outer loop
      vertex 64.5 7.5 5
      vertex 65.0729 5.73664 5
      vertex 65.0729 9.26336 5
    endloop
  endfacet
endsolid OpenSCAD_Model
