solid OpenSCAD_Model
  facet normal -1.22465e-16 -1 0
    outer loop
      vertex -55 -2.5 5
      vertex -55 -2.5 -5
      vertex -49.7372 -2.5 -5
    endloop
  endfacet
  facet normal -1.22465e-16 -1 0
    outer loop
      vertex -49.7372 -2.5 5
      vertex -55 -2.5 5
      vertex -49.7372 -2.5 -5
    endloop
  endfacet
  facet normal 0 0 -1
    outer loop
      vertex -55 -2.5 -5
      vertex -55 2.5 -5
      vertex -49.7372 -2.5 -5
    endloop
  endfacet
  facet normal 0 0 -1
    outer loop
      vertex -49.7372 -2.5 -5
      vertex -55 2.5 -5
      vertex -49.7372 2.5 -5
    endloop
  endfacet
  facet normal 0 0 -1
    outer loop
      vertex -49.7372 -2.5 -5
      vertex -49.7372 2.5 -5
      vertex -48.9074 10.3956 -5
    endloop
  endfacet
  facet normal 0 0 -1
    outer loop
      vertex -49.7372 -2.5 -5
      vertex -48.9074 10.3956 -5
      vertex -48.0649 12.9886 -5
    endloop
  endfacet
  facet normal 0 0 -1
    outer loop
      vertex -48.0649 12.9886 -5
      vertex -53.0807 14.6183 -5
      vertex -51.5356 19.3736 -5
    endloop
  endfacet
  facet normal 0 0 -1
    outer loop
      vertex -48.0649 12.9886 -5
      vertex -51.5356 19.3736 -5
      vertex -46.5198 17.7438 -5
    endloop
  endfacet
  facet normal 0 0 -1
    outer loop
      vertex -48.0649 12.9886 -5
      vertex -46.5198 17.7438 -5
      vertex -49.7372 -2.5 -5
    endloop
  endfacet
  facet normal 0 0 -1
    outer loop
      vertex -46.5198 17.7438 -5
      vertex -45.6773 20.3368 -5
      vertex -49.7372 -2.5 -5
    endloop
  endfacet
  facet normal 0 0 -1
    outer loop
      vertex -49.7372 -2.5 -5
      vertex -45.6773 20.3368 -5
      vertex -41.7077 27.2123 -5
    endloop
  endfacet
  facet normal 0 0 -1
    outer loop
      vertex -41.7077 27.2123 -5
      vertex -45.9654 30.3056 -5
      vertex -43.0265 34.3507 -5
    endloop
  endfacet
  facet normal 0 0 -1
    outer loop
      vertex -41.7077 27.2123 -5
      vertex -43.0265 34.3507 -5
      vertex -38.7688 31.2574 -5
    endloop
  endfacet
  facet normal 0 0 -1
    outer loop
      vertex -41.7077 27.2123 -5
      vertex -38.7688 31.2574 -5
      vertex -49.7372 -2.5 -5
    endloop
  endfacet
  facet normal 0 0 -1
    outer loop
      vertex -49.7372 -2.5 -5
      vertex -38.7688 31.2574 -5
      vertex -33.4565 37.1572 -5
    endloop
  endfacet
  facet normal 0 0 -1
    outer loop
      vertex -49.7372 -2.5 -5
      vertex -33.4565 37.1572 -5
      vertex -31.2508 38.7598 -5
    endloop
  endfacet
  facet normal 0 0 -1
    outer loop
      vertex -31.2508 38.7598 -5
      vertex -34.3507 43.0265 -5
      vertex -30.3056 45.9654 -5
    endloop
  endfacet
  facet normal 0 0 -1
    outer loop
      vertex -31.2508 38.7598 -5
      vertex -30.3056 45.9654 -5
      vertex -27.2057 41.6987 -5
    endloop
  endfacet
  facet normal 0 0 -1
    outer loop
      vertex -31.2508 38.7598 -5
      vertex -27.2057 41.6987 -5
      vertex -49.7372 -2.5 -5
    endloop
  endfacet
  facet normal 0 0 -1
    outer loop
      vertex -27.2057 41.6987 -5
      vertex -25 43.3013 -5
      vertex -49.7372 -2.5 -5
    endloop
  endfacet
  facet normal 0 0 -1
    outer loop
      vertex -49.7372 -2.5 -5
      vertex -25 43.3013 -5
      vertex -17.7473 46.5304 -5
    endloop
  endfacet
  facet normal 0 0 -1
    outer loop
      vertex -17.7473 46.5304 -5
      vertex -19.3736 51.5356 -5
      vertex -14.6183 53.0807 -5
    endloop
  endfacet
  facet normal 0 0 -1
    outer loop
      vertex -17.7473 46.5304 -5
      vertex -14.6183 53.0807 -5
      vertex -12.992 48.0755 -5
    endloop
  endfacet
  facet normal 0 0 -1
    outer loop
      vertex -17.7473 46.5304 -5
      vertex -12.992 48.0755 -5
      vertex -49.7372 -2.5 -5
    endloop
  endfacet
  facet normal 0 0 -1
    outer loop
      vertex -49.7372 -2.5 -5
      vertex -12.992 48.0755 -5
      vertex -5.22642 49.7261 -5
    endloop
  endfacet
  facet normal 0 0 -1
    outer loop
      vertex -49.7372 -2.5 -5
      vertex -5.22642 49.7261 -5
      vertex -2.5 49.7261 -5
    endloop
  endfacet
  facet normal 0 0 -1
    outer loop
      vertex -2.5 49.7261 -5
      vertex -2.5 55 -5
      vertex 2.5 55 -5
    endloop
  endfacet
  facet normal 0 0 -1
    outer loop
      vertex -2.5 49.7261 -5
      vertex 2.5 55 -5
      vertex -49.7372 -2.5 -5
    endloop
  endfacet
  facet normal 0 0 -1
    outer loop
      vertex -49.7372 -2.5 -5
      vertex 2.5 55 -5
      vertex 2.5 49.7261 -5
    endloop
  endfacet
  facet normal 0 0 -1
    outer loop
      vertex -49.7372 -2.5 -5
      vertex 2.5 49.7261 -5
      vertex 5.22642 49.7261 -5
    endloop
  endfacet
  facet normal 0 0 -1
    outer loop
      vertex -49.7372 -2.5 -5
      vertex 5.22642 49.7261 -5
      vertex 12.992 48.0755 -5
    endloop
  endfacet
  facet normal 0 0 -1
    outer loop
      vertex 12.992 48.0755 -5
      vertex 14.6183 53.0807 -5
      vertex 19.3736 51.5356 -5
    endloop
  endfacet
  facet normal 0 0 -1
    outer loop
      vertex 12.992 48.0755 -5
      vertex 19.3736 51.5356 -5
      vertex -49.7372 -2.5 -5
    endloop
  endfacet
  facet normal 0 0 -1
    outer loop
      vertex -49.7372 -2.5 -5
      vertex 19.3736 51.5356 -5
      vertex 17.7473 46.5304 -5
    endloop
  endfacet
  facet normal 0 0 -1
    outer loop
      vertex -49.7372 -2.5 -5
      vertex 17.7473 46.5304 -5
      vertex 25 43.3013 -5
    endloop
  endfacet
  facet normal 0 0 -1
    outer loop
      vertex -49.7372 -2.5 -5
      vertex 25 43.3013 -5
      vertex 27.2057 41.6987 -5
    endloop
  endfacet
  facet normal 0 0 -1
    outer loop
      vertex 27.2057 41.6987 -5
      vertex 30.3056 45.9654 -5
      vertex 34.3507 43.0265 -5
    endloop
  endfacet
  facet normal 0 0 -1
    outer loop
      vertex 27.2057 41.6987 -5
      vertex 34.3507 43.0265 -5
      vertex -49.7372 -2.5 -5
    endloop
  endfacet
  facet normal 0 0 -1
    outer loop
      vertex -49.7372 -2.5 -5
      vertex 34.3507 43.0265 -5
      vertex 31.2508 38.7598 -5
    endloop
  endfacet
  facet normal 0 0 -1
    outer loop
      vertex -49.7372 -2.5 -5
      vertex 31.2508 38.7598 -5
      vertex 33.4565 37.1572 -5
    endloop
  endfacet
  facet normal 0 0 -1
    outer loop
      vertex -49.7372 -2.5 -5
      vertex 33.4565 37.1572 -5
      vertex 38.7688 31.2574 -5
    endloop
  endfacet
  facet normal 0 0 -1
    outer loop
      vertex 38.7688 31.2574 -5
      vertex 43.0265 34.3507 -5
      vertex 45.9654 30.3056 -5
    endloop
  endfacet
  facet normal 0 0 -1
    outer loop
      vertex 38.7688 31.2574 -5
      vertex 45.9654 30.3056 -5
      vertex -49.7372 -2.5 -5
    endloop
  endfacet
  facet normal 0 0 -1
    outer loop
      vertex -49.7372 -2.5 -5
      vertex 45.9654 30.3056 -5
      vertex 41.7077 27.2123 -5
    endloop
  endfacet
  facet normal 0 0 -1
    outer loop
      vertex -49.7372 -2.5 -5
      vertex 41.7077 27.2123 -5
      vertex 45.6773 20.3368 -5
    endloop
  endfacet
  facet normal 0 0 -1
    outer loop
      vertex -49.7372 -2.5 -5
      vertex 45.6773 20.3368 -5
      vertex 46.5198 17.7438 -5
    endloop
  endfacet
  facet normal 0 0 -1
    outer loop
      vertex 46.5198 17.7438 -5
      vertex 51.5356 19.3736 -5
      vertex 53.0807 14.6183 -5
    endloop
  endfacet
  facet normal 0 0 -1
    outer loop
      vertex -5 -5 -5
      vertex -49.7372 -2.5 -5
      vertex -5 5 -5
    endloop
  endfacet
  facet normal 0 0 -1
    outer loop
      vertex 5 5 -5
      vertex 48.9074 10.3956 -5
      vertex 49.7372 2.5 -5
    endloop
  endfacet
  facet normal 0 0 -1
    outer loop
      vertex 5 5 -5
      vertex 48.0649 12.9886 -5
      vertex 48.9074 10.3956 -5
    endloop
  endfacet
  facet normal 0 0 -1
    outer loop
      vertex 5 5 -5
      vertex 49.7372 -2.5 -5
      vertex 5 -5 -5
    endloop
  endfacet
  facet normal 0 0 -1
    outer loop
      vertex 5 5 -5
      vertex 55 -2.5 -5
      vertex 49.7372 -2.5 -5
    endloop
  endfacet
  facet normal 0 0 -1
    outer loop
      vertex 5 5 -5
      vertex 49.7372 2.5 -5
      vertex 55 -1.34711e-14 -5
    endloop
  endfacet
  facet normal 0 0 -1
    outer loop
      vertex 48.9074 -10.3956 -5
      vertex 5 -5 -5
      vertex 49.7372 -2.5 -5
    endloop
  endfacet
  facet normal 0 0 -1
    outer loop
      vertex -48.0649 -12.9886 -5
      vertex -51.5356 -19.3736 -5
      vertex -53.0807 -14.6183 -5
    endloop
  endfacet
  facet normal 0 0 -1
    outer loop
      vertex 53.0807 -14.6183 -5
      vertex 51.5356 -19.3736 -5
      vertex 46.5198 -17.7438 -5
    endloop
  endfacet
  facet normal 0 0 -1
    outer loop
      vertex 45.9654 -30.3056 -5
      vertex 43.0265 -34.3507 -5
      vertex 38.7688 -31.2574 -5
    endloop
  endfacet
  facet normal 0 0 -1
    outer loop
      vertex 34.3507 -43.0265 -5
      vertex 30.3056 -45.9654 -5
      vertex 27.2057 -41.6987 -5
    endloop
  endfacet
  facet normal 0 0 -1
    outer loop
      vertex 19.3736 -51.5356 -5
      vertex 14.6183 -53.0807 -5
      vertex 12.992 -48.0755 -5
    endloop
  endfacet
  facet normal 0 0 -1
    outer loop
      vertex 2.5 -49.7261 -5
      vertex 2.5 -55 -5
      vertex -2.5 -49.7261 -5
    endloop
  endfacet
  facet normal 0 0 -1
    outer loop
      vertex -5 5 -5
      vertex 48.0649 12.9886 -5
      vertex 5 5 -5
    endloop
  endfacet
  facet normal 0 0 -1
    outer loop
      vertex -12.992 -48.0755 -5
      vertex -14.6183 -53.0807 -5
      vertex -17.7473 -46.5304 -5
    endloop
  endfacet
  facet normal 0 0 -1
    outer loop
      vertex -5 5 -5
      vertex 53.0807 14.6183 -5
      vertex 48.0649 12.9886 -5
    endloop
  endfacet
  facet normal 0 0 -1
    outer loop
      vertex -31.2508 -38.7598 -5
      vertex -30.3056 -45.9654 -5
      vertex -34.3507 -43.0265 -5
    endloop
  endfacet
  facet normal 0 0 -1
    outer loop
      vertex -46.5198 -17.7438 -5
      vertex -41.7077 -27.2123 -5
      vertex -45.6773 -20.3368 -5
    endloop
  endfacet
  facet normal 0 0 -1
    outer loop
      vertex -48.0649 -12.9886 -5
      vertex -33.4565 -37.1572 -5
      vertex -38.7688 -31.2574 -5
    endloop
  endfacet
  facet normal 0 0 -1
    outer loop
      vertex -27.2057 -41.6987 -5
      vertex -30.3056 -45.9654 -5
      vertex -31.2508 -38.7598 -5
    endloop
  endfacet
  facet normal 0 0 -1
    outer loop
      vertex -48.9074 -10.3956 -5
      vertex -25 -43.3013 -5
      vertex -27.2057 -41.6987 -5
    endloop
  endfacet
  facet normal 0 0 -1
    outer loop
      vertex -48.0649 -12.9886 -5
      vertex -38.7688 -31.2574 -5
      vertex -46.5198 -17.7438 -5
    endloop
  endfacet
  facet normal 0 0 -1
    outer loop
      vertex -48.9074 -10.3956 -5
      vertex -27.2057 -41.6987 -5
      vertex -48.0649 -12.9886 -5
    endloop
  endfacet
  facet normal 0 0 -1
    outer loop
      vertex -43.0265 -34.3507 -5
      vertex -41.7077 -27.2123 -5
      vertex -38.7688 -31.2574 -5
    endloop
  endfacet
  facet normal 0 0 -1
    outer loop
      vertex -41.7077 -27.2123 -5
      vertex -43.0265 -34.3507 -5
      vertex -45.9654 -30.3056 -5
    endloop
  endfacet
  facet normal 0 0 -1
    outer loop
      vertex -48.0649 -12.9886 -5
      vertex -46.5198 -17.7438 -5
      vertex -51.5356 -19.3736 -5
    endloop
  endfacet
  facet normal 0 0 -1
    outer loop
      vertex -38.7688 -31.2574 -5
      vertex -41.7077 -27.2123 -5
      vertex -46.5198 -17.7438 -5
    endloop
  endfacet
  facet normal 0 0 -1
    outer loop
      vertex -48.0649 -12.9886 -5
      vertex -31.2508 -38.7598 -5
      vertex -33.4565 -37.1572 -5
    endloop
  endfacet
  facet normal 0 0 -1
    outer loop
      vertex 49.7372 2.5 -5
      vertex 55 2.5 -5
      vertex 55 -1.34711e-14 -5
    endloop
  endfacet
  facet normal 0 0 -1
    outer loop
      vertex -27.2057 -41.6987 -5
      vertex -31.2508 -38.7598 -5
      vertex -48.0649 -12.9886 -5
    endloop
  endfacet
  facet normal 0 0 -1
    outer loop
      vertex 46.5198 17.7438 -5
      vertex 53.0807 14.6183 -5
      vertex -5 5 -5
    endloop
  endfacet
  facet normal 0 0 -1
    outer loop
      vertex 46.5198 17.7438 -5
      vertex -5 5 -5
      vertex -49.7372 -2.5 -5
    endloop
  endfacet
  facet normal 0 0 -1
    outer loop
      vertex 5 -5 -5
      vertex 48.9074 -10.3956 -5
      vertex -5 -5 -5
    endloop
  endfacet
  facet normal 0 0 -1
    outer loop
      vertex 5 5 -5
      vertex 55 -1.34711e-14 -5
      vertex 55 -2.5 -5
    endloop
  endfacet
  facet normal 0 0 -1
    outer loop
      vertex 45.6773 -20.3368 -5
      vertex -49.7372 -2.5 -5
      vertex 46.5198 -17.7438 -5
    endloop
  endfacet
  facet normal 0 0 -1
    outer loop
      vertex -49.7372 -2.5 -5
      vertex -5 -5 -5
      vertex 48.9074 -10.3956 -5
    endloop
  endfacet
  facet normal 0 0 -1
    outer loop
      vertex -49.7372 -2.5 -5
      vertex 48.9074 -10.3956 -5
      vertex 48.0649 -12.9886 -5
    endloop
  endfacet
  facet normal 0 0 -1
    outer loop
      vertex -49.7372 -2.5 -5
      vertex 48.0649 -12.9886 -5
      vertex 53.0807 -14.6183 -5
    endloop
  endfacet
  facet normal 0 0 -1
    outer loop
      vertex -49.7372 -2.5 -5
      vertex 53.0807 -14.6183 -5
      vertex 46.5198 -17.7438 -5
    endloop
  endfacet
  facet normal 0 0 -1
    outer loop
      vertex 33.4565 -37.1572 -5
      vertex -49.7372 -2.5 -5
      vertex 38.7688 -31.2574 -5
    endloop
  endfacet
  facet normal 0 0 -1
    outer loop
      vertex -49.7372 -2.5 -5
      vertex 45.6773 -20.3368 -5
      vertex 41.7077 -27.2123 -5
    endloop
  endfacet
  facet normal 0 0 -1
    outer loop
      vertex -49.7372 -2.5 -5
      vertex 41.7077 -27.2123 -5
      vertex 45.9654 -30.3056 -5
    endloop
  endfacet
  facet normal 0 0 -1
    outer loop
      vertex -49.7372 -2.5 -5
      vertex 45.9654 -30.3056 -5
      vertex 38.7688 -31.2574 -5
    endloop
  endfacet
  facet normal 0 0 -1
    outer loop
      vertex 25 -43.3013 -5
      vertex -49.7372 -2.5 -5
      vertex 27.2057 -41.6987 -5
    endloop
  endfacet
  facet normal 0 0 -1
    outer loop
      vertex -49.7372 -2.5 -5
      vertex 33.4565 -37.1572 -5
      vertex 31.2508 -38.7598 -5
    endloop
  endfacet
  facet normal 0 0 -1
    outer loop
      vertex -49.7372 -2.5 -5
      vertex 31.2508 -38.7598 -5
      vertex 34.3507 -43.0265 -5
    endloop
  endfacet
  facet normal 0 0 -1
    outer loop
      vertex -49.7372 -2.5 -5
      vertex 34.3507 -43.0265 -5
      vertex 27.2057 -41.6987 -5
    endloop
  endfacet
  facet normal 0 0 -1
    outer loop
      vertex 5.22642 -49.7261 -5
      vertex -49.7372 -2.5 -5
      vertex 12.992 -48.0755 -5
    endloop
  endfacet
  facet normal 0 0 -1
    outer loop
      vertex -49.7372 -2.5 -5
      vertex 25 -43.3013 -5
      vertex 17.7473 -46.5304 -5
    endloop
  endfacet
  facet normal 0 0 -1
    outer loop
      vertex -49.7372 -2.5 -5
      vertex 17.7473 -46.5304 -5
      vertex 19.3736 -51.5356 -5
    endloop
  endfacet
  facet normal 0 0 -1
    outer loop
      vertex -49.7372 -2.5 -5
      vertex 19.3736 -51.5356 -5
      vertex 12.992 -48.0755 -5
    endloop
  endfacet
  facet normal 0 0 -1
    outer loop
      vertex -5.22642 -49.7261 -5
      vertex -49.7372 -2.5 -5
      vertex -2.5 -49.7261 -5
    endloop
  endfacet
  facet normal 0 0 -1
    outer loop
      vertex -2.5 -49.7261 -5
      vertex 2.5 -55 -5
      vertex -2.5 -55 -5
    endloop
  endfacet
  facet normal 0 0 -1
    outer loop
      vertex -49.7372 -2.5 -5
      vertex 5.22642 -49.7261 -5
      vertex 2.5 -49.7261 -5
    endloop
  endfacet
  facet normal 0 0 -1
    outer loop
      vertex -49.7372 -2.5 -5
      vertex 2.5 -49.7261 -5
      vertex -2.5 -49.7261 -5
    endloop
  endfacet
  facet normal 0 0 -1
    outer loop
      vertex -12.992 -48.0755 -5
      vertex -49.7372 -2.5 -5
      vertex -5.22642 -49.7261 -5
    endloop
  endfacet
  facet normal 0 0 -1
    outer loop
      vertex -25 -43.3013 -5
      vertex -48.9074 -10.3956 -5
      vertex -49.7372 -2.5 -5
    endloop
  endfacet
  facet normal 0 0 -1
    outer loop
      vertex -17.7473 -46.5304 -5
      vertex -14.6183 -53.0807 -5
      vertex -19.3736 -51.5356 -5
    endloop
  endfacet
  facet normal 0 0 -1
    outer loop
      vertex -49.7372 -2.5 -5
      vertex -12.992 -48.0755 -5
      vertex -17.7473 -46.5304 -5
    endloop
  endfacet
  facet normal 0 0 -1
    outer loop
      vertex -25 -43.3013 -5
      vertex -49.7372 -2.5 -5
      vertex -17.7473 -46.5304 -5
    endloop
  endfacet
  facet normal -1 1.22465e-16 0
    outer loop
      vertex -55 -2.5 -5
      vertex -55 -2.5 5
      vertex -55 2.5 -5
    endloop
  endfacet
  facet normal -1 1.22465e-16 0
    outer loop
      vertex -55 2.5 -5
      vertex -55 -2.5 5
      vertex -55 2.5 5
    endloop
  endfacet
  facet normal 0 0 1
    outer loop
      vertex -48.9074 -10.3956 5
      vertex -48.0649 -12.9886 5
      vertex -49.7372 -2.5 5
    endloop
  endfacet
  facet normal 0 0 1
    outer loop
      vertex -55 2.5 5
      vertex -55 -2.5 5
      vertex -49.7372 -2.5 5
    endloop
  endfacet
  facet normal 0 0 1
    outer loop
      vertex -48.0649 -12.9886 5
      vertex -46.5198 -17.7438 5
      vertex -49.7372 -2.5 5
    endloop
  endfacet
  facet normal 0 0 1
    outer loop
      vertex 2.5 -49.7261 5
      vertex -55 2.5 5
      vertex -49.7372 -2.5 5
    endloop
  endfacet
  facet normal 0 0 1
    outer loop
      vertex -41.7077 -27.2123 5
      vertex -38.7688 -31.2574 5
      vertex -49.7372 -2.5 5
    endloop
  endfacet
  facet normal 0 0 1
    outer loop
      vertex -53.0807 -14.6183 5
      vertex -51.5356 -19.3736 5
      vertex -48.0649 -12.9886 5
    endloop
  endfacet
  facet normal 0 0 1
    outer loop
      vertex -51.5356 -19.3736 5
      vertex -46.5198 -17.7438 5
      vertex -48.0649 -12.9886 5
    endloop
  endfacet
  facet normal 0 0 1
    outer loop
      vertex -31.2508 -38.7598 5
      vertex -27.2057 -41.6987 5
      vertex -49.7372 -2.5 5
    endloop
  endfacet
  facet normal 0 0 1
    outer loop
      vertex -46.5198 -17.7438 5
      vertex -45.6773 -20.3368 5
      vertex -49.7372 -2.5 5
    endloop
  endfacet
  facet normal 0 0 1
    outer loop
      vertex -45.6773 -20.3368 5
      vertex -41.7077 -27.2123 5
      vertex -49.7372 -2.5 5
    endloop
  endfacet
  facet normal 0 0 1
    outer loop
      vertex -45.9654 -30.3056 5
      vertex -43.0265 -34.3507 5
      vertex -41.7077 -27.2123 5
    endloop
  endfacet
  facet normal 0 0 1
    outer loop
      vertex -43.0265 -34.3507 5
      vertex -38.7688 -31.2574 5
      vertex -41.7077 -27.2123 5
    endloop
  endfacet
  facet normal 0 0 1
    outer loop
      vertex -17.7473 -46.5304 5
      vertex -12.992 -48.0755 5
      vertex -49.7372 -2.5 5
    endloop
  endfacet
  facet normal 0 0 1
    outer loop
      vertex -38.7688 -31.2574 5
      vertex -33.4565 -37.1572 5
      vertex -49.7372 -2.5 5
    endloop
  endfacet
  facet normal 0 0 1
    outer loop
      vertex -33.4565 -37.1572 5
      vertex -31.2508 -38.7598 5
      vertex -49.7372 -2.5 5
    endloop
  endfacet
  facet normal 0 0 1
    outer loop
      vertex -34.3507 -43.0265 5
      vertex -30.3056 -45.9654 5
      vertex -31.2508 -38.7598 5
    endloop
  endfacet
  facet normal 0 0 1
    outer loop
      vertex -30.3056 -45.9654 5
      vertex -27.2057 -41.6987 5
      vertex -31.2508 -38.7598 5
    endloop
  endfacet
  facet normal 0 0 1
    outer loop
      vertex -2.5 -49.7261 5
      vertex 2.5 -49.7261 5
      vertex -49.7372 -2.5 5
    endloop
  endfacet
  facet normal 0 0 1
    outer loop
      vertex -27.2057 -41.6987 5
      vertex -25 -43.3013 5
      vertex -49.7372 -2.5 5
    endloop
  endfacet
  facet normal 0 0 1
    outer loop
      vertex -25 -43.3013 5
      vertex -17.7473 -46.5304 5
      vertex -49.7372 -2.5 5
    endloop
  endfacet
  facet normal 0 0 1
    outer loop
      vertex -19.3736 -51.5356 5
      vertex -14.6183 -53.0807 5
      vertex -17.7473 -46.5304 5
    endloop
  endfacet
  facet normal 0 0 1
    outer loop
      vertex -14.6183 -53.0807 5
      vertex -12.992 -48.0755 5
      vertex -17.7473 -46.5304 5
    endloop
  endfacet
  facet normal 0 0 1
    outer loop
      vertex 12.992 -48.0755 5
      vertex 19.3736 -51.5356 5
      vertex -55 2.5 5
    endloop
  endfacet
  facet normal 0 0 1
    outer loop
      vertex -12.992 -48.0755 5
      vertex -5.22642 -49.7261 5
      vertex -49.7372 -2.5 5
    endloop
  endfacet
  facet normal 0 0 1
    outer loop
      vertex -5.22642 -49.7261 5
      vertex -2.5 -49.7261 5
      vertex -49.7372 -2.5 5
    endloop
  endfacet
  facet normal 0 0 1
    outer loop
      vertex -2.5 -55 5
      vertex 2.5 -55 5
      vertex -2.5 -49.7261 5
    endloop
  endfacet
  facet normal 0 0 1
    outer loop
      vertex 2.5 -55 5
      vertex 2.5 -49.7261 5
      vertex -2.5 -49.7261 5
    endloop
  endfacet
  facet normal 0 0 1
    outer loop
      vertex 17.7473 -46.5304 5
      vertex 25 -43.3013 5
      vertex -55 2.5 5
    endloop
  endfacet
  facet normal 0 0 1
    outer loop
      vertex 2.5 -49.7261 5
      vertex 5.22642 -49.7261 5
      vertex -55 2.5 5
    endloop
  endfacet
  facet normal 0 0 1
    outer loop
      vertex 5.22642 -49.7261 5
      vertex 12.992 -48.0755 5
      vertex -55 2.5 5
    endloop
  endfacet
  facet normal 0 0 1
    outer loop
      vertex 14.6183 -53.0807 5
      vertex 19.3736 -51.5356 5
      vertex 12.992 -48.0755 5
    endloop
  endfacet
  facet normal 0 0 1
    outer loop
      vertex 19.3736 -51.5356 5
      vertex 17.7473 -46.5304 5
      vertex -55 2.5 5
    endloop
  endfacet
  facet normal 0 0 1
    outer loop
      vertex 27.2057 -41.6987 5
      vertex 34.3507 -43.0265 5
      vertex -55 2.5 5
    endloop
  endfacet
  facet normal 0 0 1
    outer loop
      vertex 31.2508 -38.7598 5
      vertex 33.4565 -37.1572 5
      vertex -55 2.5 5
    endloop
  endfacet
  facet normal 0 0 1
    outer loop
      vertex 25 -43.3013 5
      vertex 27.2057 -41.6987 5
      vertex -55 2.5 5
    endloop
  endfacet
  facet normal 0 0 1
    outer loop
      vertex 30.3056 -45.9654 5
      vertex 34.3507 -43.0265 5
      vertex 27.2057 -41.6987 5
    endloop
  endfacet
  facet normal 0 0 1
    outer loop
      vertex 34.3507 -43.0265 5
      vertex 31.2508 -38.7598 5
      vertex -55 2.5 5
    endloop
  endfacet
  facet normal 0 0 1
    outer loop
      vertex 38.7688 -31.2574 5
      vertex 45.9654 -30.3056 5
      vertex -55 2.5 5
    endloop
  endfacet
  facet normal 0 0 1
    outer loop
      vertex 41.7077 -27.2123 5
      vertex 45.6773 -20.3368 5
      vertex -55 2.5 5
    endloop
  endfacet
  facet normal 0 0 1
    outer loop
      vertex 33.4565 -37.1572 5
      vertex 38.7688 -31.2574 5
      vertex -55 2.5 5
    endloop
  endfacet
  facet normal 0 0 1
    outer loop
      vertex 43.0265 -34.3507 5
      vertex 45.9654 -30.3056 5
      vertex 38.7688 -31.2574 5
    endloop
  endfacet
  facet normal 0 0 1
    outer loop
      vertex 45.9654 -30.3056 5
      vertex 41.7077 -27.2123 5
      vertex -55 2.5 5
    endloop
  endfacet
  facet normal 0 0 1
    outer loop
      vertex 46.5198 -17.7438 5
      vertex 53.0807 -14.6183 5
      vertex -55 2.5 5
    endloop
  endfacet
  facet normal 0 0 1
    outer loop
      vertex 45.6773 -20.3368 5
      vertex 46.5198 -17.7438 5
      vertex -55 2.5 5
    endloop
  endfacet
  facet normal 0 0 1
    outer loop
      vertex 51.5356 -19.3736 5
      vertex 53.0807 -14.6183 5
      vertex 46.5198 -17.7438 5
    endloop
  endfacet
  facet normal 0 0 1
    outer loop
      vertex 53.0807 -14.6183 5
      vertex 48.0649 -12.9886 5
      vertex -55 2.5 5
    endloop
  endfacet
  facet normal 0 0 1
    outer loop
      vertex 5 5 5
      vertex 48.9074 -10.3956 5
      vertex 49.7372 -2.5 5
    endloop
  endfacet
  facet normal 0 0 1
    outer loop
      vertex 5 5 5
      vertex 5 -5 5
      vertex 48.9074 -10.3956 5
    endloop
  endfacet
  facet normal 0 0 1
    outer loop
      vertex 5 5 5
      vertex 49.7372 -2.5 5
      vertex 55 -2.5 5
    endloop
  endfacet
  facet normal 0 0 1
    outer loop
      vertex -19.3736 51.5356 5
      vertex -17.7473 46.5304 5
      vertex -14.6183 53.0807 5
    endloop
  endfacet
  facet normal 0 0 1
    outer loop
      vertex -5 -5 5
      vertex -49.7372 2.5 5
      vertex -55 2.5 5
    endloop
  endfacet
  facet normal 0 0 1
    outer loop
      vertex 53.0807 14.6183 5
      vertex 51.5356 19.3736 5
      vertex 46.5198 17.7438 5
    endloop
  endfacet
  facet normal 0 0 1
    outer loop
      vertex -5 -5 5
      vertex -5 5 5
      vertex -49.7372 2.5 5
    endloop
  endfacet
  facet normal 0 0 1
    outer loop
      vertex 45.9654 30.3056 5
      vertex 43.0265 34.3507 5
      vertex 38.7688 31.2574 5
    endloop
  endfacet
  facet normal 0 0 1
    outer loop
      vertex 34.3507 43.0265 5
      vertex 30.3056 45.9654 5
      vertex 27.2057 41.6987 5
    endloop
  endfacet
  facet normal 0 0 1
    outer loop
      vertex 19.3736 51.5356 5
      vertex 14.6183 53.0807 5
      vertex 12.992 48.0755 5
    endloop
  endfacet
  facet normal 0 0 1
    outer loop
      vertex -17.7473 46.5304 5
      vertex -25 43.3013 5
      vertex -48.9074 10.3956 5
    endloop
  endfacet
  facet normal 0 0 1
    outer loop
      vertex 2.5 49.7261 5
      vertex 2.5 55 5
      vertex -2.5 49.7261 5
    endloop
  endfacet
  facet normal 0 0 1
    outer loop
      vertex -45.6773 20.3368 5
      vertex -46.5198 17.7438 5
      vertex -41.7077 27.2123 5
    endloop
  endfacet
  facet normal 0 0 1
    outer loop
      vertex -12.992 48.0755 5
      vertex -14.6183 53.0807 5
      vertex -17.7473 46.5304 5
    endloop
  endfacet
  facet normal 0 0 1
    outer loop
      vertex -34.3507 43.0265 5
      vertex -31.2508 38.7598 5
      vertex -30.3056 45.9654 5
    endloop
  endfacet
  facet normal 0 0 1
    outer loop
      vertex -48.0649 12.9886 5
      vertex -48.9074 10.3956 5
      vertex -25 43.3013 5
    endloop
  endfacet
  facet normal 0 0 1
    outer loop
      vertex -27.2057 41.6987 5
      vertex -30.3056 45.9654 5
      vertex -31.2508 38.7598 5
    endloop
  endfacet
  facet normal 0 0 1
    outer loop
      vertex -48.0649 12.9886 5
      vertex -25 43.3013 5
      vertex -27.2057 41.6987 5
    endloop
  endfacet
  facet normal 0 0 1
    outer loop
      vertex -46.5198 17.7438 5
      vertex -33.4565 37.1572 5
      vertex -38.7688 31.2574 5
    endloop
  endfacet
  facet normal 0 0 1
    outer loop
      vertex -38.7688 31.2574 5
      vertex -43.0265 34.3507 5
      vertex -41.7077 27.2123 5
    endloop
  endfacet
  facet normal 0 0 1
    outer loop
      vertex -53.0807 14.6183 5
      vertex -46.5198 17.7438 5
      vertex -51.5356 19.3736 5
    endloop
  endfacet
  facet normal 0 0 1
    outer loop
      vertex -48.9074 10.3956 5
      vertex 2.5 49.7261 5
      vertex -2.5 49.7261 5
    endloop
  endfacet
  facet normal 0 0 1
    outer loop
      vertex -46.5198 17.7438 5
      vertex -31.2508 38.7598 5
      vertex -33.4565 37.1572 5
    endloop
  endfacet
  facet normal 0 0 1
    outer loop
      vertex -45.9654 30.3056 5
      vertex -41.7077 27.2123 5
      vertex -43.0265 34.3507 5
    endloop
  endfacet
  facet normal 0 0 1
    outer loop
      vertex -48.9074 10.3956 5
      vertex -2.5 49.7261 5
      vertex -5.22642 49.7261 5
    endloop
  endfacet
  facet normal 0 0 1
    outer loop
      vertex -38.7688 31.2574 5
      vertex -41.7077 27.2123 5
      vertex -46.5198 17.7438 5
    endloop
  endfacet
  facet normal 0 0 1
    outer loop
      vertex -48.9074 10.3956 5
      vertex 5.22642 49.7261 5
      vertex 2.5 49.7261 5
    endloop
  endfacet
  facet normal 0 0 1
    outer loop
      vertex -48.9074 10.3956 5
      vertex -5.22642 49.7261 5
      vertex -12.992 48.0755 5
    endloop
  endfacet
  facet normal 0 0 1
    outer loop
      vertex -27.2057 41.6987 5
      vertex -31.2508 38.7598 5
      vertex -48.0649 12.9886 5
    endloop
  endfacet
  facet normal 0 0 1
    outer loop
      vertex -48.9074 10.3956 5
      vertex -12.992 48.0755 5
      vertex -17.7473 46.5304 5
    endloop
  endfacet
  facet normal 0 0 1
    outer loop
      vertex 5 5 5
      vertex 55 -2.5 5
      vertex 55 -1.34711e-14 5
    endloop
  endfacet
  facet normal 0 0 1
    outer loop
      vertex 5 5 5
      vertex 55 -1.34711e-14 5
      vertex 49.7372 2.5 5
    endloop
  endfacet
  facet normal 0 0 1
    outer loop
      vertex 48.0649 -12.9886 5
      vertex -5 -5 5
      vertex -55 2.5 5
    endloop
  endfacet
  facet normal 0 0 1
    outer loop
      vertex 48.0649 -12.9886 5
      vertex 48.9074 -10.3956 5
      vertex -5 -5 5
    endloop
  endfacet
  facet normal 0 0 1
    outer loop
      vertex -2.5 55 5
      vertex -2.5 49.7261 5
      vertex 2.5 55 5
    endloop
  endfacet
  facet normal 0 0 1
    outer loop
      vertex 5 5 5
      vertex 48.9074 10.3956 5
      vertex -5 5 5
    endloop
  endfacet
  facet normal 0 0 1
    outer loop
      vertex -5 -5 5
      vertex 48.9074 -10.3956 5
      vertex 5 -5 5
    endloop
  endfacet
  facet normal 0 0 1
    outer loop
      vertex 49.7372 2.5 5
      vertex 55 -1.34711e-14 5
      vertex 55 2.5 5
    endloop
  endfacet
  facet normal 0 0 1
    outer loop
      vertex 49.7372 2.5 5
      vertex 48.9074 10.3956 5
      vertex 5 5 5
    endloop
  endfacet
  facet normal 0 0 1
    outer loop
      vertex -46.5198 17.7438 5
      vertex -48.0649 12.9886 5
      vertex -31.2508 38.7598 5
    endloop
  endfacet
  facet normal 0 0 1
    outer loop
      vertex -53.0807 14.6183 5
      vertex -48.0649 12.9886 5
      vertex -46.5198 17.7438 5
    endloop
  endfacet
  facet normal 0 0 1
    outer loop
      vertex -48.9074 10.3956 5
      vertex 12.992 48.0755 5
      vertex 5.22642 49.7261 5
    endloop
  endfacet
  facet normal 0 0 1
    outer loop
      vertex -48.9074 10.3956 5
      vertex 19.3736 51.5356 5
      vertex 12.992 48.0755 5
    endloop
  endfacet
  facet normal 0 0 1
    outer loop
      vertex -48.9074 10.3956 5
      vertex 17.7473 46.5304 5
      vertex 19.3736 51.5356 5
    endloop
  endfacet
  facet normal 0 0 1
    outer loop
      vertex -48.9074 10.3956 5
      vertex 25 43.3013 5
      vertex 17.7473 46.5304 5
    endloop
  endfacet
  facet normal 0 0 1
    outer loop
      vertex -48.9074 10.3956 5
      vertex 27.2057 41.6987 5
      vertex 25 43.3013 5
    endloop
  endfacet
  facet normal 0 0 1
    outer loop
      vertex -48.9074 10.3956 5
      vertex 34.3507 43.0265 5
      vertex 27.2057 41.6987 5
    endloop
  endfacet
  facet normal 0 0 1
    outer loop
      vertex -48.9074 10.3956 5
      vertex 31.2508 38.7598 5
      vertex 34.3507 43.0265 5
    endloop
  endfacet
  facet normal 0 0 1
    outer loop
      vertex -48.9074 10.3956 5
      vertex 33.4565 37.1572 5
      vertex 31.2508 38.7598 5
    endloop
  endfacet
  facet normal 0 0 1
    outer loop
      vertex -48.9074 10.3956 5
      vertex 38.7688 31.2574 5
      vertex 33.4565 37.1572 5
    endloop
  endfacet
  facet normal 0 0 1
    outer loop
      vertex -48.9074 10.3956 5
      vertex 45.9654 30.3056 5
      vertex 38.7688 31.2574 5
    endloop
  endfacet
  facet normal 0 0 1
    outer loop
      vertex -48.9074 10.3956 5
      vertex 41.7077 27.2123 5
      vertex 45.9654 30.3056 5
    endloop
  endfacet
  facet normal 0 0 1
    outer loop
      vertex -48.9074 10.3956 5
      vertex 45.6773 20.3368 5
      vertex 41.7077 27.2123 5
    endloop
  endfacet
  facet normal 0 0 1
    outer loop
      vertex -48.9074 10.3956 5
      vertex 46.5198 17.7438 5
      vertex 45.6773 20.3368 5
    endloop
  endfacet
  facet normal 0 0 1
    outer loop
      vertex -48.9074 10.3956 5
      vertex 53.0807 14.6183 5
      vertex 46.5198 17.7438 5
    endloop
  endfacet
  facet normal 0 0 1
    outer loop
      vertex -48.9074 10.3956 5
      vertex 48.0649 12.9886 5
      vertex 53.0807 14.6183 5
    endloop
  endfacet
  facet normal 0 0 1
    outer loop
      vertex -48.9074 10.3956 5
      vertex 48.9074 10.3956 5
      vertex 48.0649 12.9886 5
    endloop
  endfacet
  facet normal 0 0 1
    outer loop
      vertex -48.9074 10.3956 5
      vertex -5 5 5
      vertex 48.9074 10.3956 5
    endloop
  endfacet
  facet normal 0 0 1
    outer loop
      vertex -48.9074 10.3956 5
      vertex -49.7372 2.5 5
      vertex -5 5 5
    endloop
  endfacet
  facet normal -0.994522 -0.104528 0
    outer loop
      vertex -49.7372 -2.5 -5
      vertex -48.9074 -10.3956 -5
      vertex -49.7372 -2.5 5
    endloop
  endfacet
  facet normal -0.994522 -0.104528 0
    outer loop
      vertex -49.7372 -2.5 5
      vertex -48.9074 -10.3956 -5
      vertex -48.9074 -10.3956 5
    endloop
  endfacet
  facet normal -0.951057 -0.309017 0
    outer loop
      vertex -48.9074 -10.3956 -5
      vertex -48.0649 -12.9886 -5
      vertex -48.9074 -10.3956 5
    endloop
  endfacet
  facet normal -0.951057 -0.309017 0
    outer loop
      vertex -48.9074 -10.3956 5
      vertex -48.0649 -12.9886 -5
      vertex -48.0649 -12.9886 5
    endloop
  endfacet
  facet normal -0.309017 0.951057 0
    outer loop
      vertex -53.0807 -14.6183 -5
      vertex -53.0807 -14.6183 5
      vertex -48.0649 -12.9886 -5
    endloop
  endfacet
  facet normal -0.309017 0.951057 0
    outer loop
      vertex -48.0649 -12.9886 -5
      vertex -53.0807 -14.6183 5
      vertex -48.0649 -12.9886 5
    endloop
  endfacet
  facet normal -0.951057 -0.309017 0
    outer loop
      vertex -53.0807 -14.6183 -5
      vertex -51.5356 -19.3736 -5
      vertex -53.0807 -14.6183 5
    endloop
  endfacet
  facet normal -0.951057 -0.309017 0
    outer loop
      vertex -53.0807 -14.6183 5
      vertex -51.5356 -19.3736 -5
      vertex -51.5356 -19.3736 5
    endloop
  endfacet
  facet normal 0.309017 -0.951057 0
    outer loop
      vertex -51.5356 -19.3736 5
      vertex -51.5356 -19.3736 -5
      vertex -46.5198 -17.7438 -5
    endloop
  endfacet
  facet normal 0.309017 -0.951057 0
    outer loop
      vertex -46.5198 -17.7438 5
      vertex -51.5356 -19.3736 5
      vertex -46.5198 -17.7438 -5
    endloop
  endfacet
  facet normal -0.951057 -0.309017 0
    outer loop
      vertex -46.5198 -17.7438 -5
      vertex -45.6773 -20.3368 -5
      vertex -46.5198 -17.7438 5
    endloop
  endfacet
  facet normal -0.951057 -0.309017 0
    outer loop
      vertex -46.5198 -17.7438 5
      vertex -45.6773 -20.3368 -5
      vertex -45.6773 -20.3368 5
    endloop
  endfacet
  facet normal -0.866025 -0.5 0
    outer loop
      vertex -45.6773 -20.3368 -5
      vertex -41.7077 -27.2123 -5
      vertex -45.6773 -20.3368 5
    endloop
  endfacet
  facet normal -0.866025 -0.5 0
    outer loop
      vertex -45.6773 -20.3368 5
      vertex -41.7077 -27.2123 -5
      vertex -41.7077 -27.2123 5
    endloop
  endfacet
  facet normal -0.587785 0.809017 0
    outer loop
      vertex -45.9654 -30.3056 -5
      vertex -45.9654 -30.3056 5
      vertex -41.7077 -27.2123 -5
    endloop
  endfacet
  facet normal -0.587785 0.809017 0
    outer loop
      vertex -41.7077 -27.2123 -5
      vertex -45.9654 -30.3056 5
      vertex -41.7077 -27.2123 5
    endloop
  endfacet
  facet normal -0.809017 -0.587785 0
    outer loop
      vertex -45.9654 -30.3056 -5
      vertex -43.0265 -34.3507 -5
      vertex -45.9654 -30.3056 5
    endloop
  endfacet
  facet normal -0.809017 -0.587785 0
    outer loop
      vertex -45.9654 -30.3056 5
      vertex -43.0265 -34.3507 -5
      vertex -43.0265 -34.3507 5
    endloop
  endfacet
  facet normal 0.587785 -0.809017 0
    outer loop
      vertex -43.0265 -34.3507 5
      vertex -43.0265 -34.3507 -5
      vertex -38.7688 -31.2574 -5
    endloop
  endfacet
  facet normal 0.587785 -0.809017 0
    outer loop
      vertex -38.7688 -31.2574 5
      vertex -43.0265 -34.3507 5
      vertex -38.7688 -31.2574 -5
    endloop
  endfacet
  facet normal -0.743145 -0.669131 0
    outer loop
      vertex -38.7688 -31.2574 -5
      vertex -33.4565 -37.1572 -5
      vertex -38.7688 -31.2574 5
    endloop
  endfacet
  facet normal -0.743145 -0.669131 0
    outer loop
      vertex -38.7688 -31.2574 5
      vertex -33.4565 -37.1572 -5
      vertex -33.4565 -37.1572 5
    endloop
  endfacet
  facet normal -0.587785 -0.809017 0
    outer loop
      vertex -33.4565 -37.1572 5
      vertex -33.4565 -37.1572 -5
      vertex -31.2508 -38.7598 -5
    endloop
  endfacet
  facet normal -0.587785 -0.809017 0
    outer loop
      vertex -31.2508 -38.7598 5
      vertex -33.4565 -37.1572 5
      vertex -31.2508 -38.7598 -5
    endloop
  endfacet
  facet normal -0.809017 0.587785 0
    outer loop
      vertex -34.3507 -43.0265 -5
      vertex -34.3507 -43.0265 5
      vertex -31.2508 -38.7598 -5
    endloop
  endfacet
  facet normal -0.809017 0.587785 0
    outer loop
      vertex -31.2508 -38.7598 -5
      vertex -34.3507 -43.0265 5
      vertex -31.2508 -38.7598 5
    endloop
  endfacet
  facet normal -0.587785 -0.809017 0
    outer loop
      vertex -34.3507 -43.0265 5
      vertex -34.3507 -43.0265 -5
      vertex -30.3056 -45.9654 -5
    endloop
  endfacet
  facet normal -0.587785 -0.809017 0
    outer loop
      vertex -30.3056 -45.9654 5
      vertex -34.3507 -43.0265 5
      vertex -30.3056 -45.9654 -5
    endloop
  endfacet
  facet normal 0.809017 -0.587785 0
    outer loop
      vertex -30.3056 -45.9654 5
      vertex -30.3056 -45.9654 -5
      vertex -27.2057 -41.6987 -5
    endloop
  endfacet
  facet normal 0.809017 -0.587785 0
    outer loop
      vertex -27.2057 -41.6987 5
      vertex -30.3056 -45.9654 5
      vertex -27.2057 -41.6987 -5
    endloop
  endfacet
  facet normal -0.587785 -0.809017 0
    outer loop
      vertex -27.2057 -41.6987 5
      vertex -27.2057 -41.6987 -5
      vertex -25 -43.3013 -5
    endloop
  endfacet
  facet normal -0.587785 -0.809017 0
    outer loop
      vertex -25 -43.3013 5
      vertex -27.2057 -41.6987 5
      vertex -25 -43.3013 -5
    endloop
  endfacet
  facet normal -0.406737 -0.913545 0
    outer loop
      vertex -25 -43.3013 5
      vertex -25 -43.3013 -5
      vertex -17.7473 -46.5304 -5
    endloop
  endfacet
  facet normal -0.406737 -0.913545 0
    outer loop
      vertex -17.7473 -46.5304 5
      vertex -25 -43.3013 5
      vertex -17.7473 -46.5304 -5
    endloop
  endfacet
  facet normal -0.951057 0.309017 0
    outer loop
      vertex -19.3736 -51.5356 -5
      vertex -19.3736 -51.5356 5
      vertex -17.7473 -46.5304 -5
    endloop
  endfacet
  facet normal -0.951057 0.309017 0
    outer loop
      vertex -17.7473 -46.5304 -5
      vertex -19.3736 -51.5356 5
      vertex -17.7473 -46.5304 5
    endloop
  endfacet
  facet normal -0.309017 -0.951057 0
    outer loop
      vertex -19.3736 -51.5356 5
      vertex -19.3736 -51.5356 -5
      vertex -14.6183 -53.0807 -5
    endloop
  endfacet
  facet normal -0.309017 -0.951057 0
    outer loop
      vertex -14.6183 -53.0807 5
      vertex -19.3736 -51.5356 5
      vertex -14.6183 -53.0807 -5
    endloop
  endfacet
  facet normal 0.951057 -0.309017 0
    outer loop
      vertex -14.6183 -53.0807 5
      vertex -14.6183 -53.0807 -5
      vertex -12.992 -48.0755 -5
    endloop
  endfacet
  facet normal 0.951057 -0.309017 0
    outer loop
      vertex -12.992 -48.0755 5
      vertex -14.6183 -53.0807 5
      vertex -12.992 -48.0755 -5
    endloop
  endfacet
  facet normal -0.207912 -0.978148 0
    outer loop
      vertex -12.992 -48.0755 5
      vertex -12.992 -48.0755 -5
      vertex -5.22642 -49.7261 -5
    endloop
  endfacet
  facet normal -0.207912 -0.978148 0
    outer loop
      vertex -5.22642 -49.7261 5
      vertex -12.992 -48.0755 5
      vertex -5.22642 -49.7261 -5
    endloop
  endfacet
  facet normal 0 -1 0
    outer loop
      vertex -5.22642 -49.7261 5
      vertex -5.22642 -49.7261 -5
      vertex -2.5 -49.7261 -5
    endloop
  endfacet
  facet normal 0 -1 0
    outer loop
      vertex -2.5 -49.7261 5
      vertex -5.22642 -49.7261 5
      vertex -2.5 -49.7261 -5
    endloop
  endfacet
  facet normal -1 2.22045e-16 0
    outer loop
      vertex -2.5 -55 -5
      vertex -2.5 -55 5
      vertex -2.5 -49.7261 -5
    endloop
  endfacet
  facet normal -1 2.22045e-16 0
    outer loop
      vertex -2.5 -49.7261 -5
      vertex -2.5 -55 5
      vertex -2.5 -49.7261 5
    endloop
  endfacet
  facet normal -2.22045e-16 -1 0
    outer loop
      vertex -2.5 -55 5
      vertex -2.5 -55 -5
      vertex 2.5 -55 -5
    endloop
  endfacet
  facet normal -2.22045e-16 -1 0
    outer loop
      vertex 2.5 -55 5
      vertex -2.5 -55 5
      vertex 2.5 -55 -5
    endloop
  endfacet
  facet normal 1 -2.22045e-16 0
    outer loop
      vertex 2.5 -55 5
      vertex 2.5 -55 -5
      vertex 2.5 -49.7261 -5
    endloop
  endfacet
  facet normal 1 -2.22045e-16 0
    outer loop
      vertex 2.5 -49.7261 5
      vertex 2.5 -55 5
      vertex 2.5 -49.7261 -5
    endloop
  endfacet
  facet normal 0 -1 0
    outer loop
      vertex 2.5 -49.7261 5
      vertex 2.5 -49.7261 -5
      vertex 5.22642 -49.7261 -5
    endloop
  endfacet
  facet normal 0 -1 0
    outer loop
      vertex 5.22642 -49.7261 5
      vertex 2.5 -49.7261 5
      vertex 5.22642 -49.7261 -5
    endloop
  endfacet
  facet normal 0.207912 -0.978148 0
    outer loop
      vertex 5.22642 -49.7261 5
      vertex 5.22642 -49.7261 -5
      vertex 12.992 -48.0755 -5
    endloop
  endfacet
  facet normal 0.207912 -0.978148 0
    outer loop
      vertex 12.992 -48.0755 5
      vertex 5.22642 -49.7261 5
      vertex 12.992 -48.0755 -5
    endloop
  endfacet
  facet normal -0.951057 -0.309017 0
    outer loop
      vertex 12.992 -48.0755 -5
      vertex 14.6183 -53.0807 -5
      vertex 12.992 -48.0755 5
    endloop
  endfacet
  facet normal -0.951057 -0.309017 0
    outer loop
      vertex 12.992 -48.0755 5
      vertex 14.6183 -53.0807 -5
      vertex 14.6183 -53.0807 5
    endloop
  endfacet
  facet normal 0.309017 -0.951057 0
    outer loop
      vertex 14.6183 -53.0807 5
      vertex 14.6183 -53.0807 -5
      vertex 19.3736 -51.5356 -5
    endloop
  endfacet
  facet normal 0.309017 -0.951057 0
    outer loop
      vertex 19.3736 -51.5356 5
      vertex 14.6183 -53.0807 5
      vertex 19.3736 -51.5356 -5
    endloop
  endfacet
  facet normal 0.951057 0.309017 0
    outer loop
      vertex 19.3736 -51.5356 -5
      vertex 17.7473 -46.5304 -5
      vertex 17.7473 -46.5304 5
    endloop
  endfacet
  facet normal 0.951057 0.309017 0
    outer loop
      vertex 19.3736 -51.5356 5
      vertex 19.3736 -51.5356 -5
      vertex 17.7473 -46.5304 5
    endloop
  endfacet
  facet normal 0.406737 -0.913545 0
    outer loop
      vertex 17.7473 -46.5304 5
      vertex 17.7473 -46.5304 -5
      vertex 25 -43.3013 -5
    endloop
  endfacet
  facet normal 0.406737 -0.913545 0
    outer loop
      vertex 25 -43.3013 5
      vertex 17.7473 -46.5304 5
      vertex 25 -43.3013 -5
    endloop
  endfacet
  facet normal 0.587785 -0.809017 0
    outer loop
      vertex 25 -43.3013 5
      vertex 25 -43.3013 -5
      vertex 27.2057 -41.6987 -5
    endloop
  endfacet
  facet normal 0.587785 -0.809017 0
    outer loop
      vertex 27.2057 -41.6987 5
      vertex 25 -43.3013 5
      vertex 27.2057 -41.6987 -5
    endloop
  endfacet
  facet normal -0.809017 -0.587785 0
    outer loop
      vertex 27.2057 -41.6987 -5
      vertex 30.3056 -45.9654 -5
      vertex 27.2057 -41.6987 5
    endloop
  endfacet
  facet normal -0.809017 -0.587785 0
    outer loop
      vertex 27.2057 -41.6987 5
      vertex 30.3056 -45.9654 -5
      vertex 30.3056 -45.9654 5
    endloop
  endfacet
  facet normal 0.587785 -0.809017 0
    outer loop
      vertex 30.3056 -45.9654 5
      vertex 30.3056 -45.9654 -5
      vertex 34.3507 -43.0265 -5
    endloop
  endfacet
  facet normal 0.587785 -0.809017 0
    outer loop
      vertex 34.3507 -43.0265 5
      vertex 30.3056 -45.9654 5
      vertex 34.3507 -43.0265 -5
    endloop
  endfacet
  facet normal 0.809017 0.587785 0
    outer loop
      vertex 34.3507 -43.0265 -5
      vertex 31.2508 -38.7598 -5
      vertex 31.2508 -38.7598 5
    endloop
  endfacet
  facet normal 0.809017 0.587785 0
    outer loop
      vertex 34.3507 -43.0265 5
      vertex 34.3507 -43.0265 -5
      vertex 31.2508 -38.7598 5
    endloop
  endfacet
  facet normal 0.587785 -0.809017 0
    outer loop
      vertex 31.2508 -38.7598 5
      vertex 31.2508 -38.7598 -5
      vertex 33.4565 -37.1572 -5
    endloop
  endfacet
  facet normal 0.587785 -0.809017 0
    outer loop
      vertex 33.4565 -37.1572 5
      vertex 31.2508 -38.7598 5
      vertex 33.4565 -37.1572 -5
    endloop
  endfacet
  facet normal 0.743145 -0.669131 0
    outer loop
      vertex 33.4565 -37.1572 5
      vertex 33.4565 -37.1572 -5
      vertex 38.7688 -31.2574 -5
    endloop
  endfacet
  facet normal 0.743145 -0.669131 0
    outer loop
      vertex 38.7688 -31.2574 5
      vertex 33.4565 -37.1572 5
      vertex 38.7688 -31.2574 -5
    endloop
  endfacet
  facet normal -0.587785 -0.809017 0
    outer loop
      vertex 38.7688 -31.2574 5
      vertex 38.7688 -31.2574 -5
      vertex 43.0265 -34.3507 -5
    endloop
  endfacet
  facet normal -0.587785 -0.809017 0
    outer loop
      vertex 43.0265 -34.3507 5
      vertex 38.7688 -31.2574 5
      vertex 43.0265 -34.3507 -5
    endloop
  endfacet
  facet normal 0.809017 -0.587785 0
    outer loop
      vertex 43.0265 -34.3507 5
      vertex 43.0265 -34.3507 -5
      vertex 45.9654 -30.3056 -5
    endloop
  endfacet
  facet normal 0.809017 -0.587785 0
    outer loop
      vertex 45.9654 -30.3056 5
      vertex 43.0265 -34.3507 5
      vertex 45.9654 -30.3056 -5
    endloop
  endfacet
  facet normal 0.587785 0.809017 0
    outer loop
      vertex 41.7077 -27.2123 -5
      vertex 41.7077 -27.2123 5
      vertex 45.9654 -30.3056 -5
    endloop
  endfacet
  facet normal 0.587785 0.809017 0
    outer loop
      vertex 45.9654 -30.3056 -5
      vertex 41.7077 -27.2123 5
      vertex 45.9654 -30.3056 5
    endloop
  endfacet
  facet normal 0.866025 -0.5 0
    outer loop
      vertex 41.7077 -27.2123 5
      vertex 41.7077 -27.2123 -5
      vertex 45.6773 -20.3368 -5
    endloop
  endfacet
  facet normal 0.866025 -0.5 0
    outer loop
      vertex 45.6773 -20.3368 5
      vertex 41.7077 -27.2123 5
      vertex 45.6773 -20.3368 -5
    endloop
  endfacet
  facet normal 0.951057 -0.309017 0
    outer loop
      vertex 45.6773 -20.3368 5
      vertex 45.6773 -20.3368 -5
      vertex 46.5198 -17.7438 -5
    endloop
  endfacet
  facet normal 0.951057 -0.309017 0
    outer loop
      vertex 46.5198 -17.7438 5
      vertex 45.6773 -20.3368 5
      vertex 46.5198 -17.7438 -5
    endloop
  endfacet
  facet normal -0.309017 -0.951057 0
    outer loop
      vertex 46.5198 -17.7438 5
      vertex 46.5198 -17.7438 -5
      vertex 51.5356 -19.3736 -5
    endloop
  endfacet
  facet normal -0.309017 -0.951057 0
    outer loop
      vertex 51.5356 -19.3736 5
      vertex 46.5198 -17.7438 5
      vertex 51.5356 -19.3736 -5
    endloop
  endfacet
  facet normal 0.951057 -0.309017 0
    outer loop
      vertex 51.5356 -19.3736 5
      vertex 51.5356 -19.3736 -5
      vertex 53.0807 -14.6183 -5
    endloop
  endfacet
  facet normal 0.951057 -0.309017 0
    outer loop
      vertex 53.0807 -14.6183 5
      vertex 51.5356 -19.3736 5
      vertex 53.0807 -14.6183 -5
    endloop
  endfacet
  facet normal 0.309017 0.951057 0
    outer loop
      vertex 48.0649 -12.9886 -5
      vertex 48.0649 -12.9886 5
      vertex 53.0807 -14.6183 -5
    endloop
  endfacet
  facet normal 0.309017 0.951057 0
    outer loop
      vertex 53.0807 -14.6183 -5
      vertex 48.0649 -12.9886 5
      vertex 53.0807 -14.6183 5
    endloop
  endfacet
  facet normal 0.951057 -0.309017 0
    outer loop
      vertex 48.0649 -12.9886 5
      vertex 48.0649 -12.9886 -5
      vertex 48.9074 -10.3956 -5
    endloop
  endfacet
  facet normal 0.951057 -0.309017 0
    outer loop
      vertex 48.9074 -10.3956 5
      vertex 48.0649 -12.9886 5
      vertex 48.9074 -10.3956 -5
    endloop
  endfacet
  facet normal 0.994522 -0.104528 0
    outer loop
      vertex 48.9074 -10.3956 5
      vertex 48.9074 -10.3956 -5
      vertex 49.7372 -2.5 -5
    endloop
  endfacet
  facet normal 0.994522 -0.104528 0
    outer loop
      vertex 49.7372 -2.5 5
      vertex 48.9074 -10.3956 5
      vertex 49.7372 -2.5 -5
    endloop
  endfacet
  facet normal -2.44929e-16 -1 0
    outer loop
      vertex 49.7372 -2.5 5
      vertex 49.7372 -2.5 -5
      vertex 55 -2.5 -5
    endloop
  endfacet
  facet normal -2.44929e-16 -1 0
    outer loop
      vertex 55 -2.5 5
      vertex 49.7372 -2.5 5
      vertex 55 -2.5 -5
    endloop
  endfacet
  facet normal 1 0 0
    outer loop
      vertex 55 -2.5 5
      vertex 55 -2.5 -5
      vertex 55 -1.34711e-14 -5
    endloop
  endfacet
  facet normal 1 0 0
    outer loop
      vertex 55 -1.34711e-14 5
      vertex 55 -2.5 5
      vertex 55 -1.34711e-14 -5
    endloop
  endfacet
  facet normal 1 -2.44929e-16 0
    outer loop
      vertex 55 -1.34711e-14 5
      vertex 55 -1.34711e-14 -5
      vertex 55 2.5 -5
    endloop
  endfacet
  facet normal 1 -2.44929e-16 0
    outer loop
      vertex 55 2.5 5
      vertex 55 -1.34711e-14 5
      vertex 55 2.5 -5
    endloop
  endfacet
  facet normal 0 1 0
    outer loop
      vertex 49.7372 2.5 -5
      vertex 49.7372 2.5 5
      vertex 55 2.5 -5
    endloop
  endfacet
  facet normal 0 1 0
    outer loop
      vertex 55 2.5 -5
      vertex 49.7372 2.5 5
      vertex 55 2.5 5
    endloop
  endfacet
  facet normal 0.994522 0.104528 0
    outer loop
      vertex 49.7372 2.5 -5
      vertex 48.9074 10.3956 -5
      vertex 48.9074 10.3956 5
    endloop
  endfacet
  facet normal 0.994522 0.104528 0
    outer loop
      vertex 49.7372 2.5 5
      vertex 49.7372 2.5 -5
      vertex 48.9074 10.3956 5
    endloop
  endfacet
  facet normal 0.951057 0.309017 0
    outer loop
      vertex 48.9074 10.3956 -5
      vertex 48.0649 12.9886 -5
      vertex 48.0649 12.9886 5
    endloop
  endfacet
  facet normal 0.951057 0.309017 0
    outer loop
      vertex 48.9074 10.3956 5
      vertex 48.9074 10.3956 -5
      vertex 48.0649 12.9886 5
    endloop
  endfacet
  facet normal 0.309017 -0.951057 0
    outer loop
      vertex 48.0649 12.9886 5
      vertex 48.0649 12.9886 -5
      vertex 53.0807 14.6183 -5
    endloop
  endfacet
  facet normal 0.309017 -0.951057 0
    outer loop
      vertex 53.0807 14.6183 5
      vertex 48.0649 12.9886 5
      vertex 53.0807 14.6183 -5
    endloop
  endfacet
  facet normal 0.951057 0.309017 0
    outer loop
      vertex 53.0807 14.6183 -5
      vertex 51.5356 19.3736 -5
      vertex 51.5356 19.3736 5
    endloop
  endfacet
  facet normal 0.951057 0.309017 0
    outer loop
      vertex 53.0807 14.6183 5
      vertex 53.0807 14.6183 -5
      vertex 51.5356 19.3736 5
    endloop
  endfacet
  facet normal -0.309017 0.951057 0
    outer loop
      vertex 46.5198 17.7438 -5
      vertex 46.5198 17.7438 5
      vertex 51.5356 19.3736 -5
    endloop
  endfacet
  facet normal -0.309017 0.951057 0
    outer loop
      vertex 51.5356 19.3736 -5
      vertex 46.5198 17.7438 5
      vertex 51.5356 19.3736 5
    endloop
  endfacet
  facet normal 0.951057 0.309017 0
    outer loop
      vertex 46.5198 17.7438 -5
      vertex 45.6773 20.3368 -5
      vertex 45.6773 20.3368 5
    endloop
  endfacet
  facet normal 0.951057 0.309017 0
    outer loop
      vertex 46.5198 17.7438 5
      vertex 46.5198 17.7438 -5
      vertex 45.6773 20.3368 5
    endloop
  endfacet
  facet normal 0.866025 0.5 0
    outer loop
      vertex 45.6773 20.3368 -5
      vertex 41.7077 27.2123 -5
      vertex 41.7077 27.2123 5
    endloop
  endfacet
  facet normal 0.866025 0.5 0
    outer loop
      vertex 45.6773 20.3368 5
      vertex 45.6773 20.3368 -5
      vertex 41.7077 27.2123 5
    endloop
  endfacet
  facet normal 0.587785 -0.809017 0
    outer loop
      vertex 41.7077 27.2123 5
      vertex 41.7077 27.2123 -5
      vertex 45.9654 30.3056 -5
    endloop
  endfacet
  facet normal 0.587785 -0.809017 0
    outer loop
      vertex 45.9654 30.3056 5
      vertex 41.7077 27.2123 5
      vertex 45.9654 30.3056 -5
    endloop
  endfacet
  facet normal 0.809017 0.587785 0
    outer loop
      vertex 45.9654 30.3056 -5
      vertex 43.0265 34.3507 -5
      vertex 43.0265 34.3507 5
    endloop
  endfacet
  facet normal 0.809017 0.587785 0
    outer loop
      vertex 45.9654 30.3056 5
      vertex 45.9654 30.3056 -5
      vertex 43.0265 34.3507 5
    endloop
  endfacet
  facet normal -0.587785 0.809017 0
    outer loop
      vertex 38.7688 31.2574 -5
      vertex 38.7688 31.2574 5
      vertex 43.0265 34.3507 -5
    endloop
  endfacet
  facet normal -0.587785 0.809017 0
    outer loop
      vertex 43.0265 34.3507 -5
      vertex 38.7688 31.2574 5
      vertex 43.0265 34.3507 5
    endloop
  endfacet
  facet normal 0.743145 0.669131 0
    outer loop
      vertex 38.7688 31.2574 -5
      vertex 33.4565 37.1572 -5
      vertex 33.4565 37.1572 5
    endloop
  endfacet
  facet normal 0.743145 0.669131 0
    outer loop
      vertex 38.7688 31.2574 5
      vertex 38.7688 31.2574 -5
      vertex 33.4565 37.1572 5
    endloop
  endfacet
  facet normal 0.587785 0.809017 0
    outer loop
      vertex 31.2508 38.7598 -5
      vertex 31.2508 38.7598 5
      vertex 33.4565 37.1572 -5
    endloop
  endfacet
  facet normal 0.587785 0.809017 0
    outer loop
      vertex 33.4565 37.1572 -5
      vertex 31.2508 38.7598 5
      vertex 33.4565 37.1572 5
    endloop
  endfacet
  facet normal 0.809017 -0.587785 0
    outer loop
      vertex 31.2508 38.7598 5
      vertex 31.2508 38.7598 -5
      vertex 34.3507 43.0265 -5
    endloop
  endfacet
  facet normal 0.809017 -0.587785 0
    outer loop
      vertex 34.3507 43.0265 5
      vertex 31.2508 38.7598 5
      vertex 34.3507 43.0265 -5
    endloop
  endfacet
  facet normal 0.587785 0.809017 0
    outer loop
      vertex 30.3056 45.9654 -5
      vertex 30.3056 45.9654 5
      vertex 34.3507 43.0265 -5
    endloop
  endfacet
  facet normal 0.587785 0.809017 0
    outer loop
      vertex 34.3507 43.0265 -5
      vertex 30.3056 45.9654 5
      vertex 34.3507 43.0265 5
    endloop
  endfacet
  facet normal -0.809017 0.587785 0
    outer loop
      vertex 27.2057 41.6987 -5
      vertex 27.2057 41.6987 5
      vertex 30.3056 45.9654 -5
    endloop
  endfacet
  facet normal -0.809017 0.587785 0
    outer loop
      vertex 30.3056 45.9654 -5
      vertex 27.2057 41.6987 5
      vertex 30.3056 45.9654 5
    endloop
  endfacet
  facet normal 0.587785 0.809017 0
    outer loop
      vertex 25 43.3013 -5
      vertex 25 43.3013 5
      vertex 27.2057 41.6987 -5
    endloop
  endfacet
  facet normal 0.587785 0.809017 0
    outer loop
      vertex 27.2057 41.6987 -5
      vertex 25 43.3013 5
      vertex 27.2057 41.6987 5
    endloop
  endfacet
  facet normal 0.406737 0.913545 0
    outer loop
      vertex 17.7473 46.5304 -5
      vertex 17.7473 46.5304 5
      vertex 25 43.3013 -5
    endloop
  endfacet
  facet normal 0.406737 0.913545 0
    outer loop
      vertex 25 43.3013 -5
      vertex 17.7473 46.5304 5
      vertex 25 43.3013 5
    endloop
  endfacet
  facet normal 0.951057 -0.309017 0
    outer loop
      vertex 17.7473 46.5304 5
      vertex 17.7473 46.5304 -5
      vertex 19.3736 51.5356 -5
    endloop
  endfacet
  facet normal 0.951057 -0.309017 0
    outer loop
      vertex 19.3736 51.5356 5
      vertex 17.7473 46.5304 5
      vertex 19.3736 51.5356 -5
    endloop
  endfacet
  facet normal 0.309017 0.951057 0
    outer loop
      vertex 14.6183 53.0807 -5
      vertex 14.6183 53.0807 5
      vertex 19.3736 51.5356 -5
    endloop
  endfacet
  facet normal 0.309017 0.951057 0
    outer loop
      vertex 19.3736 51.5356 -5
      vertex 14.6183 53.0807 5
      vertex 19.3736 51.5356 5
    endloop
  endfacet
  facet normal -0.951057 0.309017 0
    outer loop
      vertex 12.992 48.0755 -5
      vertex 12.992 48.0755 5
      vertex 14.6183 53.0807 -5
    endloop
  endfacet
  facet normal -0.951057 0.309017 0
    outer loop
      vertex 14.6183 53.0807 -5
      vertex 12.992 48.0755 5
      vertex 14.6183 53.0807 5
    endloop
  endfacet
  facet normal 0.207912 0.978148 0
    outer loop
      vertex 5.22642 49.7261 -5
      vertex 5.22642 49.7261 5
      vertex 12.992 48.0755 -5
    endloop
  endfacet
  facet normal 0.207912 0.978148 0
    outer loop
      vertex 12.992 48.0755 -5
      vertex 5.22642 49.7261 5
      vertex 12.992 48.0755 5
    endloop
  endfacet
  facet normal 0 1 0
    outer loop
      vertex 2.5 49.7261 -5
      vertex 2.5 49.7261 5
      vertex 5.22642 49.7261 -5
    endloop
  endfacet
  facet normal 0 1 0
    outer loop
      vertex 5.22642 49.7261 -5
      vertex 2.5 49.7261 5
      vertex 5.22642 49.7261 5
    endloop
  endfacet
  facet normal 1 -2.22045e-16 0
    outer loop
      vertex 2.5 49.7261 5
      vertex 2.5 49.7261 -5
      vertex 2.5 55 -5
    endloop
  endfacet
  facet normal 1 -2.22045e-16 0
    outer loop
      vertex 2.5 55 5
      vertex 2.5 49.7261 5
      vertex 2.5 55 -5
    endloop
  endfacet
  facet normal 2.22045e-16 1 0
    outer loop
      vertex -2.5 55 -5
      vertex -2.5 55 5
      vertex 2.5 55 -5
    endloop
  endfacet
  facet normal 2.22045e-16 1 0
    outer loop
      vertex 2.5 55 -5
      vertex -2.5 55 5
      vertex 2.5 55 5
    endloop
  endfacet
  facet normal -1 2.22045e-16 0
    outer loop
      vertex -2.5 49.7261 -5
      vertex -2.5 49.7261 5
      vertex -2.5 55 -5
    endloop
  endfacet
  facet normal -1 2.22045e-16 0
    outer loop
      vertex -2.5 55 -5
      vertex -2.5 49.7261 5
      vertex -2.5 55 5
    endloop
  endfacet
  facet normal 0 1 0
    outer loop
      vertex -5.22642 49.7261 -5
      vertex -5.22642 49.7261 5
      vertex -2.5 49.7261 -5
    endloop
  endfacet
  facet normal 0 1 0
    outer loop
      vertex -2.5 49.7261 -5
      vertex -5.22642 49.7261 5
      vertex -2.5 49.7261 5
    endloop
  endfacet
  facet normal -0.207912 0.978148 0
    outer loop
      vertex -12.992 48.0755 -5
      vertex -12.992 48.0755 5
      vertex -5.22642 49.7261 -5
    endloop
  endfacet
  facet normal -0.207912 0.978148 0
    outer loop
      vertex -5.22642 49.7261 -5
      vertex -12.992 48.0755 5
      vertex -5.22642 49.7261 5
    endloop
  endfacet
  facet normal 0.951057 0.309017 0
    outer loop
      vertex -12.992 48.0755 -5
      vertex -14.6183 53.0807 -5
      vertex -14.6183 53.0807 5
    endloop
  endfacet
  facet normal 0.951057 0.309017 0
    outer loop
      vertex -12.992 48.0755 5
      vertex -12.992 48.0755 -5
      vertex -14.6183 53.0807 5
    endloop
  endfacet
  facet normal -0.309017 0.951057 0
    outer loop
      vertex -19.3736 51.5356 -5
      vertex -19.3736 51.5356 5
      vertex -14.6183 53.0807 -5
    endloop
  endfacet
  facet normal -0.309017 0.951057 0
    outer loop
      vertex -14.6183 53.0807 -5
      vertex -19.3736 51.5356 5
      vertex -14.6183 53.0807 5
    endloop
  endfacet
  facet normal -0.951057 -0.309017 0
    outer loop
      vertex -19.3736 51.5356 -5
      vertex -17.7473 46.5304 -5
      vertex -19.3736 51.5356 5
    endloop
  endfacet
  facet normal -0.951057 -0.309017 0
    outer loop
      vertex -19.3736 51.5356 5
      vertex -17.7473 46.5304 -5
      vertex -17.7473 46.5304 5
    endloop
  endfacet
  facet normal -0.406737 0.913545 0
    outer loop
      vertex -25 43.3013 -5
      vertex -25 43.3013 5
      vertex -17.7473 46.5304 -5
    endloop
  endfacet
  facet normal -0.406737 0.913545 0
    outer loop
      vertex -17.7473 46.5304 -5
      vertex -25 43.3013 5
      vertex -17.7473 46.5304 5
    endloop
  endfacet
  facet normal -0.587785 0.809017 0
    outer loop
      vertex -27.2057 41.6987 -5
      vertex -27.2057 41.6987 5
      vertex -25 43.3013 -5
    endloop
  endfacet
  facet normal -0.587785 0.809017 0
    outer loop
      vertex -25 43.3013 -5
      vertex -27.2057 41.6987 5
      vertex -25 43.3013 5
    endloop
  endfacet
  facet normal 0.809017 0.587785 0
    outer loop
      vertex -27.2057 41.6987 -5
      vertex -30.3056 45.9654 -5
      vertex -30.3056 45.9654 5
    endloop
  endfacet
  facet normal 0.809017 0.587785 0
    outer loop
      vertex -27.2057 41.6987 5
      vertex -27.2057 41.6987 -5
      vertex -30.3056 45.9654 5
    endloop
  endfacet
  facet normal -0.587785 0.809017 0
    outer loop
      vertex -34.3507 43.0265 -5
      vertex -34.3507 43.0265 5
      vertex -30.3056 45.9654 -5
    endloop
  endfacet
  facet normal -0.587785 0.809017 0
    outer loop
      vertex -30.3056 45.9654 -5
      vertex -34.3507 43.0265 5
      vertex -30.3056 45.9654 5
    endloop
  endfacet
  facet normal -0.809017 -0.587785 0
    outer loop
      vertex -34.3507 43.0265 -5
      vertex -31.2508 38.7598 -5
      vertex -34.3507 43.0265 5
    endloop
  endfacet
  facet normal -0.809017 -0.587785 0
    outer loop
      vertex -34.3507 43.0265 5
      vertex -31.2508 38.7598 -5
      vertex -31.2508 38.7598 5
    endloop
  endfacet
  facet normal -0.587785 0.809017 0
    outer loop
      vertex -33.4565 37.1572 -5
      vertex -33.4565 37.1572 5
      vertex -31.2508 38.7598 -5
    endloop
  endfacet
  facet normal -0.587785 0.809017 0
    outer loop
      vertex -31.2508 38.7598 -5
      vertex -33.4565 37.1572 5
      vertex -31.2508 38.7598 5
    endloop
  endfacet
  facet normal -0.743145 0.669131 0
    outer loop
      vertex -38.7688 31.2574 -5
      vertex -38.7688 31.2574 5
      vertex -33.4565 37.1572 -5
    endloop
  endfacet
  facet normal -0.743145 0.669131 0
    outer loop
      vertex -33.4565 37.1572 -5
      vertex -38.7688 31.2574 5
      vertex -33.4565 37.1572 5
    endloop
  endfacet
  facet normal 0.587785 0.809017 0
    outer loop
      vertex -43.0265 34.3507 -5
      vertex -43.0265 34.3507 5
      vertex -38.7688 31.2574 -5
    endloop
  endfacet
  facet normal 0.587785 0.809017 0
    outer loop
      vertex -38.7688 31.2574 -5
      vertex -43.0265 34.3507 5
      vertex -38.7688 31.2574 5
    endloop
  endfacet
  facet normal -0.809017 0.587785 0
    outer loop
      vertex -45.9654 30.3056 -5
      vertex -45.9654 30.3056 5
      vertex -43.0265 34.3507 -5
    endloop
  endfacet
  facet normal -0.809017 0.587785 0
    outer loop
      vertex -43.0265 34.3507 -5
      vertex -45.9654 30.3056 5
      vertex -43.0265 34.3507 5
    endloop
  endfacet
  facet normal -0.587785 -0.809017 0
    outer loop
      vertex -45.9654 30.3056 5
      vertex -45.9654 30.3056 -5
      vertex -41.7077 27.2123 -5
    endloop
  endfacet
  facet normal -0.587785 -0.809017 0
    outer loop
      vertex -41.7077 27.2123 5
      vertex -45.9654 30.3056 5
      vertex -41.7077 27.2123 -5
    endloop
  endfacet
  facet normal -0.866025 0.5 0
    outer loop
      vertex -45.6773 20.3368 -5
      vertex -45.6773 20.3368 5
      vertex -41.7077 27.2123 -5
    endloop
  endfacet
  facet normal -0.866025 0.5 0
    outer loop
      vertex -41.7077 27.2123 -5
      vertex -45.6773 20.3368 5
      vertex -41.7077 27.2123 5
    endloop
  endfacet
  facet normal -0.951057 0.309017 0
    outer loop
      vertex -46.5198 17.7438 -5
      vertex -46.5198 17.7438 5
      vertex -45.6773 20.3368 -5
    endloop
  endfacet
  facet normal -0.951057 0.309017 0
    outer loop
      vertex -45.6773 20.3368 -5
      vertex -46.5198 17.7438 5
      vertex -45.6773 20.3368 5
    endloop
  endfacet
  facet normal 0.309017 0.951057 0
    outer loop
      vertex -51.5356 19.3736 -5
      vertex -51.5356 19.3736 5
      vertex -46.5198 17.7438 -5
    endloop
  endfacet
  facet normal 0.309017 0.951057 0
    outer loop
      vertex -46.5198 17.7438 -5
      vertex -51.5356 19.3736 5
      vertex -46.5198 17.7438 5
    endloop
  endfacet
  facet normal -0.951057 0.309017 0
    outer loop
      vertex -53.0807 14.6183 -5
      vertex -53.0807 14.6183 5
      vertex -51.5356 19.3736 -5
    endloop
  endfacet
  facet normal -0.951057 0.309017 0
    outer loop
      vertex -51.5356 19.3736 -5
      vertex -53.0807 14.6183 5
      vertex -51.5356 19.3736 5
    endloop
  endfacet
  facet normal -0.309017 -0.951057 0
    outer loop
      vertex -53.0807 14.6183 5
      vertex -53.0807 14.6183 -5
      vertex -48.0649 12.9886 -5
    endloop
  endfacet
  facet normal -0.309017 -0.951057 0
    outer loop
      vertex -48.0649 12.9886 5
      vertex -53.0807 14.6183 5
      vertex -48.0649 12.9886 -5
    endloop
  endfacet
  facet normal -0.951057 0.309017 0
    outer loop
      vertex -48.9074 10.3956 -5
      vertex -48.9074 10.3956 5
      vertex -48.0649 12.9886 -5
    endloop
  endfacet
  facet normal -0.951057 0.309017 0
    outer loop
      vertex -48.0649 12.9886 -5
      vertex -48.9074 10.3956 5
      vertex -48.0649 12.9886 5
    endloop
  endfacet
  facet normal -0.994522 0.104528 0
    outer loop
      vertex -49.7372 2.5 -5
      vertex -49.7372 2.5 5
      vertex -48.9074 10.3956 -5
    endloop
  endfacet
  facet normal -0.994522 0.104528 0
    outer loop
      vertex -48.9074 10.3956 -5
      vertex -49.7372 2.5 5
      vertex -48.9074 10.3956 5
    endloop
  endfacet
  facet normal 1.22465e-16 1 0
    outer loop
      vertex -55 2.5 -5
      vertex -55 2.5 5
      vertex -49.7372 2.5 -5
    endloop
  endfacet
  facet normal 1.22465e-16 1 0
    outer loop
      vertex -49.7372 2.5 -5
      vertex -55 2.5 5
      vertex -49.7372 2.5 5
    endloop
  endfacet
  facet normal 1 0 0
    outer loop
      vertex -5 5 -5
      vertex -5 5 5
      vertex -5 -5 5
    endloop
  endfacet
  facet normal 1 0 0
    outer loop
      vertex -5 -5 -5
      vertex -5 5 -5
      vertex -5 -5 5
    endloop
  endfacet
  facet normal 0 -1 0
    outer loop
      vertex 5 5 -5
      vertex 5 5 5
      vertex -5 5 5
    endloop
  endfacet
  facet normal 0 -1 0
    outer loop
      vertex -5 5 -5
      vertex 5 5 -5
      vertex -5 5 5
    endloop
  endfacet
  facet normal -1 0 0
    outer loop
      vertex 5 5 5
      vertex 5 5 -5
      vertex 5 -5 5
    endloop
  endfacet
  facet normal -1 0 0
    outer loop
      vertex 5 -5 5
      vertex 5 5 -5
      vertex 5 -5 -5
    endloop
  endfacet
  facet normal 0 1 0
    outer loop
      vertex 5 -5 5
      vertex 5 -5 -5
      vertex -5 -5 5
    endloop
  endfacet
  facet normal 0 1 0
    outer loop
      vertex -5 -5 5
      vertex 5 -5 -5
      vertex -5 -5 -5
    endloop
  endfacet
endsolid OpenSCAD_Model
