solid model
  facet normal 7.08083e-16 1 0
    outer loop
      vertex -1.25434 -11.9343 -12
      vertex -1.25434 -11.9343 15
      vertex 1.25434 -11.9343 -12
    endloop
  endfacet
  facet normal 0 -0 1
    outer loop
      vertex -1.25434 -11.9343 -12
      vertex 1.25434 -11.9343 -12
      vertex 10.9625 -4.88084 -12
    endloop
  endfacet
  facet normal 0 -0 1
    outer loop
      vertex -1.25434 -11.9343 -12
      vertex 10.9625 -4.88084 -12
      vertex 11.7378 -2.49494 -12
    endloop
  endfacet
  facet normal 0 0 1
    outer loop
      vertex -1.25434 -11.9343 -12
      vertex 11.7378 -2.49494 -12
      vertex 1.25434 11.9343 -12
    endloop
  endfacet
  facet normal 7.08083e-16 1 -0
    outer loop
      vertex -1.25434 -11.9343 15
      vertex 1.25434 -11.9343 15
      vertex 1.25434 -11.9343 -12
    endloop
  endfacet
  facet normal -7.08083e-16 -1 -0
    outer loop
      vertex -1.25434 11.9343 -12
      vertex 1.25434 11.9343 -12
      vertex -1.25434 11.9343 15
    endloop
  endfacet
  facet normal -7.08083e-16 -1 0
    outer loop
      vertex -1.25434 11.9343 15
      vertex 1.25434 11.9343 -12
      vertex 1.25434 11.9343 15
    endloop
  endfacet
  facet normal -0 0 1
    outer loop
      vertex -1.25434 11.9343 15
      vertex 1.25434 11.9343 15
      vertex 1.41113 13.426 15
    endloop
  endfacet
  facet normal -6.29407e-16 -1 0
    outer loop
      vertex -1.41113 -13.426 -15
      vertex 1.41113 -13.426 -15
      vertex -1.41113 -13.426 15
    endloop
  endfacet
  facet normal 0 0 1
    outer loop
      vertex -1.41113 -13.426 15
      vertex 1.25434 -11.9343 15
      vertex -1.25434 -11.9343 15
    endloop
  endfacet
  facet normal -6.29407e-16 -1 0
    outer loop
      vertex -1.41113 -13.426 15
      vertex 1.41113 -13.426 -15
      vertex 1.41113 -13.426 15
    endloop
  endfacet
  facet normal -0 0 1
    outer loop
      vertex -1.41113 -13.426 15
      vertex 1.41113 -13.426 15
      vertex 1.25434 -11.9343 15
    endloop
  endfacet
  facet normal 6.29407e-16 1 0
    outer loop
      vertex -1.41113 13.426 -15
      vertex -1.41113 13.426 15
      vertex 1.41113 13.426 -15
    endloop
  endfacet
  facet normal 0 0 1
    outer loop
      vertex -1.41113 13.426 15
      vertex -1.25434 11.9343 15
      vertex 1.41113 13.426 15
    endloop
  endfacet
  facet normal 6.29407e-16 1 0
    outer loop
      vertex -1.41113 13.426 15
      vertex 1.41113 13.426 15
      vertex 1.41113 13.426 -15
    endloop
  endfacet
  facet normal -0.743145 -0.669131 0
    outer loop
      vertex -10.9217 -7.9351 -15
      vertex -9.03326 -10.0325 -15
      vertex -9.03326 -10.0325 15
    endloop
  endfacet
  facet normal -0.743145 -0.669131 0
    outer loop
      vertex -10.9217 -7.9351 -15
      vertex -9.03326 -10.0325 15
      vertex -10.9217 -7.9351 15
    endloop
  endfacet
  facet normal 0 0 1
    outer loop
      vertex -10.9217 -7.9351 15
      vertex -9.03326 -10.0325 15
      vertex -9.7082 -7.05342 15
    endloop
  endfacet
  facet normal -0.743145 0.669131 0
    outer loop
      vertex -10.9217 7.9351 -15
      vertex -10.9217 7.9351 15
      vertex -9.03326 10.0325 -15
    endloop
  endfacet
  facet normal -0.743145 0.669131 0
    outer loop
      vertex -10.9217 7.9351 15
      vertex -9.03326 10.0325 15
      vertex -9.03326 10.0325 -15
    endloop
  endfacet
  facet normal 0 -0 1
    outer loop
      vertex -10.9217 7.9351 15
      vertex -9.7082 7.05342 15
      vertex -9.03326 10.0325 15
    endloop
  endfacet
  facet normal 0.866025 0.5 -0
    outer loop
      vertex -10.9625 -4.88084 -12
      vertex -10.9625 -4.88084 15
      vertex -9.7082 -7.05342 15
    endloop
  endfacet
  facet normal -0 -0 1
    outer loop
      vertex -10.9625 -4.88084 -12
      vertex -8.02957 -8.91774 -12
      vertex -6 -10.3923 -12
    endloop
  endfacet
  facet normal -0 -0 1
    outer loop
      vertex -10.9625 -4.88084 -12
      vertex -9.7082 -7.05342 -12
      vertex -8.02957 -8.91774 -12
    endloop
  endfacet
  facet normal 0.866025 0.5 -0
    outer loop
      vertex -10.9625 -4.88084 -12
      vertex -9.7082 -7.05342 15
      vertex -9.7082 -7.05342 -12
    endloop
  endfacet
  facet normal 0 0 1
    outer loop
      vertex -10.9625 4.88084 -12
      vertex -1.25434 -11.9343 -12
      vertex 1.25434 11.9343 -12
    endloop
  endfacet
  facet normal 0 0 1
    outer loop
      vertex -10.9625 4.88084 -12
      vertex -3.7082 -11.4127 -12
      vertex -1.25434 -11.9343 -12
    endloop
  endfacet
  facet normal 0 0 1
    outer loop
      vertex -10.9625 4.88084 -12
      vertex -6 -10.3923 -12
      vertex -3.7082 -11.4127 -12
    endloop
  endfacet
  facet normal -0 0 1
    outer loop
      vertex -10.9625 4.88084 -12
      vertex -6 10.3923 -12
      vertex -9.7082 7.05342 -12
    endloop
  endfacet
  facet normal 0.866025 -0.5 0
    outer loop
      vertex -10.9625 4.88084 -12
      vertex -9.7082 7.05342 -12
      vertex -10.9625 4.88084 15
    endloop
  endfacet
  facet normal -0 0 1
    outer loop
      vertex -10.9625 4.88084 -12
      vertex 1.25434 11.9343 -12
      vertex -6 10.3923 -12
    endloop
  endfacet
  facet normal 0.866025 -0.5 0
    outer loop
      vertex -10.9625 4.88084 15
      vertex -9.7082 7.05342 -12
      vertex -9.7082 7.05342 15
    endloop
  endfacet
  facet normal 0 0 1
    outer loop
      vertex -10.9625 4.88084 15
      vertex -9.7082 7.05342 15
      vertex -10.9217 7.9351 15
    endloop
  endfacet
  facet normal 0 0 1
    outer loop
      vertex -11.7378 -2.49494 -12
      vertex -10.9625 -4.88084 -12
      vertex -6 -10.3923 -12
    endloop
  endfacet
  facet normal 0.951057 0.309017 -0
    outer loop
      vertex -11.7378 -2.49494 -12
      vertex -10.9625 -4.88084 15
      vertex -10.9625 -4.88084 -12
    endloop
  endfacet
  facet normal 0.951057 0.309017 -0
    outer loop
      vertex -11.7378 -2.49494 -12
      vertex -11.7378 -2.49494 15
      vertex -10.9625 -4.88084 15
    endloop
  endfacet
  facet normal 0 0 1
    outer loop
      vertex -11.7378 -2.49494 -12
      vertex -6 -10.3923 -12
      vertex -10.9625 4.88084 -12
    endloop
  endfacet
  facet normal 0.951057 -0.309017 0
    outer loop
      vertex -11.7378 2.49494 -12
      vertex -10.9625 4.88084 -12
      vertex -11.7378 2.49494 15
    endloop
  endfacet
  facet normal 0.951057 -0.309017 0
    outer loop
      vertex -11.7378 2.49494 15
      vertex -10.9625 4.88084 -12
      vertex -10.9625 4.88084 15
    endloop
  endfacet
  facet normal -0 0 1
    outer loop
      vertex -12 6.79865e-15 -12
      vertex -10.9625 4.88084 -12
      vertex -11.7378 2.49494 -12
    endloop
  endfacet
  facet normal 0 0 1
    outer loop
      vertex -12 6.79865e-15 -12
      vertex -11.7378 -2.49494 -12
      vertex -10.9625 4.88084 -12
    endloop
  endfacet
  facet normal 0.994522 0.104528 -0
    outer loop
      vertex -12 6.79865e-15 -12
      vertex -11.7378 -2.49494 15
      vertex -11.7378 -2.49494 -12
    endloop
  endfacet
  facet normal 0.994522 -0.104528 0
    outer loop
      vertex -12 6.79865e-15 -12
      vertex -11.7378 2.49494 -12
      vertex -12 6.79865e-15 15
    endloop
  endfacet
  facet normal 0.994522 0.104528 -0
    outer loop
      vertex -12 6.79865e-15 -12
      vertex -12 6.79865e-15 15
      vertex -11.7378 -2.49494 15
    endloop
  endfacet
  facet normal 0.994522 -0.104528 0
    outer loop
      vertex -12 6.79865e-15 15
      vertex -11.7378 2.49494 -12
      vertex -11.7378 2.49494 15
    endloop
  endfacet
  facet normal -0.866025 -0.5 0
    outer loop
      vertex -12.3329 -5.49094 -15
      vertex -10.9217 -7.9351 -15
      vertex -10.9217 -7.9351 15
    endloop
  endfacet
  facet normal -0.866025 -0.5 0
    outer loop
      vertex -12.3329 -5.49094 -15
      vertex -10.9217 -7.9351 15
      vertex -12.3329 -5.49094 15
    endloop
  endfacet
  facet normal 0 0 -1
    outer loop
      vertex -12.3329 -5.49094 -15
      vertex -4.17173 -12.8393 -15
      vertex -9.03326 -10.0325 -15
    endloop
  endfacet
  facet normal 0 0 -1
    outer loop
      vertex -12.3329 -5.49094 -15
      vertex -9.03326 -10.0325 -15
      vertex -10.9217 -7.9351 -15
    endloop
  endfacet
  facet normal 0 0 1
    outer loop
      vertex -12.3329 -5.49094 15
      vertex -10.9217 -7.9351 15
      vertex -9.7082 -7.05342 15
    endloop
  endfacet
  facet normal 0 0 1
    outer loop
      vertex -12.3329 -5.49094 15
      vertex -10.9625 -4.88084 15
      vertex -11.7378 -2.49494 15
    endloop
  endfacet
  facet normal 0 0 1
    outer loop
      vertex -12.3329 -5.49094 15
      vertex -9.7082 -7.05342 15
      vertex -10.9625 -4.88084 15
    endloop
  endfacet
  facet normal -0.866025 0.5 0
    outer loop
      vertex -12.3329 5.49094 -15
      vertex -12.3329 5.49094 15
      vertex -10.9217 7.9351 -15
    endloop
  endfacet
  facet normal -0.866025 0.5 0
    outer loop
      vertex -12.3329 5.49094 15
      vertex -10.9217 7.9351 15
      vertex -10.9217 7.9351 -15
    endloop
  endfacet
  facet normal -0 0 1
    outer loop
      vertex -12.3329 5.49094 15
      vertex -10.9625 4.88084 15
      vertex -10.9217 7.9351 15
    endloop
  endfacet
  facet normal 0 -0 1
    outer loop
      vertex -12.3329 5.49094 15
      vertex -11.7378 2.49494 15
      vertex -10.9625 4.88084 15
    endloop
  endfacet
  facet normal -0.951057 -0.309017 0
    outer loop
      vertex -13.205 -2.80681 -15
      vertex -12.3329 -5.49094 -15
      vertex -12.3329 -5.49094 15
    endloop
  endfacet
  facet normal -0.951057 -0.309017 0
    outer loop
      vertex -13.205 -2.80681 -15
      vertex -12.3329 -5.49094 15
      vertex -13.205 -2.80681 15
    endloop
  endfacet
  facet normal 0 0 -1
    outer loop
      vertex -13.205 -2.80681 -15
      vertex -4.17173 -12.8393 -15
      vertex -12.3329 -5.49094 -15
    endloop
  endfacet
  facet normal 0 -0 -1
    outer loop
      vertex -13.205 -2.80681 -15
      vertex -6.75 11.6913 -15
      vertex -4.17173 -12.8393 -15
    endloop
  endfacet
  facet normal 0 0 1
    outer loop
      vertex -13.205 -2.80681 15
      vertex -11.7378 -2.49494 15
      vertex -12 6.79865e-15 15
    endloop
  endfacet
  facet normal 0 -0 1
    outer loop
      vertex -13.205 -2.80681 15
      vertex -12.3329 -5.49094 15
      vertex -11.7378 -2.49494 15
    endloop
  endfacet
  facet normal 0 -0 -1
    outer loop
      vertex -13.205 2.80681 -15
      vertex -12.3329 5.49094 -15
      vertex -10.9217 7.9351 -15
    endloop
  endfacet
  facet normal -0.951057 0.309017 0
    outer loop
      vertex -13.205 2.80681 -15
      vertex -13.205 2.80681 15
      vertex -12.3329 5.49094 -15
    endloop
  endfacet
  facet normal 0 0 1
    outer loop
      vertex -13.205 2.80681 15
      vertex -11.7378 2.49494 15
      vertex -12.3329 5.49094 15
    endloop
  endfacet
  facet normal -0.951057 0.309017 0
    outer loop
      vertex -13.205 2.80681 15
      vertex -12.3329 5.49094 15
      vertex -12.3329 5.49094 -15
    endloop
  endfacet
  facet normal 0 -0 -1
    outer loop
      vertex -13.5 7.64848e-15 -15
      vertex -10.9217 7.9351 -15
      vertex -9.03326 10.0325 -15
    endloop
  endfacet
  facet normal -0.994522 -0.104528 0
    outer loop
      vertex -13.5 7.64848e-15 -15
      vertex -13.205 -2.80681 -15
      vertex -13.205 -2.80681 15
    endloop
  endfacet
  facet normal -0.994522 -0.104528 0
    outer loop
      vertex -13.5 7.64848e-15 -15
      vertex -13.205 -2.80681 15
      vertex -13.5 7.64848e-15 15
    endloop
  endfacet
  facet normal 0 -0 -1
    outer loop
      vertex -13.5 7.64848e-15 -15
      vertex -13.205 2.80681 -15
      vertex -10.9217 7.9351 -15
    endloop
  endfacet
  facet normal -0.994522 0.104528 0
    outer loop
      vertex -13.5 7.64848e-15 -15
      vertex -13.5 7.64848e-15 15
      vertex -13.205 2.80681 -15
    endloop
  endfacet
  facet normal 0 0 -1
    outer loop
      vertex -13.5 7.64848e-15 -15
      vertex -6.75 11.6913 -15
      vertex -13.205 -2.80681 -15
    endloop
  endfacet
  facet normal 0 -0 -1
    outer loop
      vertex -13.5 7.64848e-15 -15
      vertex -9.03326 10.0325 -15
      vertex -6.75 11.6913 -15
    endloop
  endfacet
  facet normal 0 0 1
    outer loop
      vertex -13.5 7.64848e-15 15
      vertex -11.7378 2.49494 15
      vertex -13.205 2.80681 15
    endloop
  endfacet
  facet normal -0 0 1
    outer loop
      vertex -13.5 7.64848e-15 15
      vertex -12 6.79865e-15 15
      vertex -11.7378 2.49494 15
    endloop
  endfacet
  facet normal 0 0 1
    outer loop
      vertex -13.5 7.64848e-15 15
      vertex -13.205 -2.80681 15
      vertex -12 6.79865e-15 15
    endloop
  endfacet
  facet normal -0.994522 0.104528 0
    outer loop
      vertex -13.5 7.64848e-15 15
      vertex -13.205 2.80681 15
      vertex -13.205 2.80681 -15
    endloop
  endfacet
  facet normal 0.207912 0.978148 0
    outer loop
      vertex -3.7082 -11.4127 -12
      vertex -3.7082 -11.4127 15
      vertex -1.25434 -11.9343 -12
    endloop
  endfacet
  facet normal 0.207912 0.978148 -0
    outer loop
      vertex -3.7082 -11.4127 15
      vertex -1.25434 -11.9343 15
      vertex -1.25434 -11.9343 -12
    endloop
  endfacet
  facet normal 0.207912 -0.978148 0
    outer loop
      vertex -3.7082 11.4127 -12
      vertex -1.25434 11.9343 -12
      vertex -3.7082 11.4127 15
    endloop
  endfacet
  facet normal 0.207912 -0.978148 0
    outer loop
      vertex -3.7082 11.4127 15
      vertex -1.25434 11.9343 -12
      vertex -1.25434 11.9343 15
    endloop
  endfacet
  facet normal 0 0 1
    outer loop
      vertex -3.7082 11.4127 15
      vertex -1.25434 11.9343 15
      vertex -1.41113 13.426 15
    endloop
  endfacet
  facet normal -0.207912 -0.978148 0
    outer loop
      vertex -4.17173 -12.8393 -15
      vertex -1.41113 -13.426 -15
      vertex -4.17173 -12.8393 15
    endloop
  endfacet
  facet normal 0 0 -1
    outer loop
      vertex -4.17173 -12.8393 -15
      vertex 1.41113 -13.426 -15
      vertex -1.41113 -13.426 -15
    endloop
  endfacet
  facet normal 0 0 -1
    outer loop
      vertex -4.17173 -12.8393 -15
      vertex 4.17173 -12.8393 -15
      vertex 1.41113 -13.426 -15
    endloop
  endfacet
  facet normal 0 0 -1
    outer loop
      vertex -4.17173 -12.8393 -15
      vertex 6.75 -11.6913 -15
      vertex 4.17173 -12.8393 -15
    endloop
  endfacet
  facet normal 0 0 1
    outer loop
      vertex -4.17173 -12.8393 15
      vertex -1.25434 -11.9343 15
      vertex -3.7082 -11.4127 15
    endloop
  endfacet
  facet normal -0.207912 -0.978148 0
    outer loop
      vertex -4.17173 -12.8393 15
      vertex -1.41113 -13.426 -15
      vertex -1.41113 -13.426 15
    endloop
  endfacet
  facet normal 0 -0 1
    outer loop
      vertex -4.17173 -12.8393 15
      vertex -1.41113 -13.426 15
      vertex -1.25434 -11.9343 15
    endloop
  endfacet
  facet normal 0 -0 -1
    outer loop
      vertex -4.17173 12.8393 -15
      vertex -1.41113 13.426 -15
      vertex 1.41113 13.426 -15
    endloop
  endfacet
  facet normal -0.207912 0.978148 0
    outer loop
      vertex -4.17173 12.8393 -15
      vertex -4.17173 12.8393 15
      vertex -1.41113 13.426 -15
    endloop
  endfacet
  facet normal -0.207912 0.978148 0
    outer loop
      vertex -4.17173 12.8393 15
      vertex -1.41113 13.426 15
      vertex -1.41113 13.426 -15
    endloop
  endfacet
  facet normal 0 -0 1
    outer loop
      vertex -4.17173 12.8393 15
      vertex -3.7082 11.4127 15
      vertex -1.41113 13.426 15
    endloop
  endfacet
  facet normal 0.406737 0.913545 0
    outer loop
      vertex -6 -10.3923 -12
      vertex -6 -10.3923 15
      vertex -3.7082 -11.4127 -12
    endloop
  endfacet
  facet normal 0.406737 0.913545 -0
    outer loop
      vertex -6 -10.3923 15
      vertex -3.7082 -11.4127 15
      vertex -3.7082 -11.4127 -12
    endloop
  endfacet
  facet normal 0 -0 1
    outer loop
      vertex -6 -10.3923 15
      vertex -4.17173 -12.8393 15
      vertex -3.7082 -11.4127 15
    endloop
  endfacet
  facet normal -0 0 1
    outer loop
      vertex -6 10.3923 -12
      vertex -1.25434 11.9343 -12
      vertex -3.7082 11.4127 -12
    endloop
  endfacet
  facet normal 0.406737 -0.913545 0
    outer loop
      vertex -6 10.3923 -12
      vertex -3.7082 11.4127 -12
      vertex -6 10.3923 15
    endloop
  endfacet
  facet normal 0 0 1
    outer loop
      vertex -6 10.3923 -12
      vertex 1.25434 11.9343 -12
      vertex -1.25434 11.9343 -12
    endloop
  endfacet
  facet normal 0.406737 -0.913545 0
    outer loop
      vertex -6 10.3923 15
      vertex -3.7082 11.4127 -12
      vertex -3.7082 11.4127 15
    endloop
  endfacet
  facet normal -0.406737 -0.913545 0
    outer loop
      vertex -6.75 -11.6913 -15
      vertex -4.17173 -12.8393 -15
      vertex -6.75 -11.6913 15
    endloop
  endfacet
  facet normal -0.406737 -0.913545 0
    outer loop
      vertex -6.75 -11.6913 15
      vertex -4.17173 -12.8393 -15
      vertex -4.17173 -12.8393 15
    endloop
  endfacet
  facet normal 0 0 1
    outer loop
      vertex -6.75 -11.6913 15
      vertex -4.17173 -12.8393 15
      vertex -6 -10.3923 15
    endloop
  endfacet
  facet normal 0 -0 -1
    outer loop
      vertex -6.75 11.6913 -15
      vertex -4.17173 12.8393 -15
      vertex 1.41113 13.426 -15
    endloop
  endfacet
  facet normal -0.406737 0.913545 0
    outer loop
      vertex -6.75 11.6913 -15
      vertex -6.75 11.6913 15
      vertex -4.17173 12.8393 -15
    endloop
  endfacet
  facet normal 0 -0 -1
    outer loop
      vertex -6.75 11.6913 -15
      vertex 1.41113 13.426 -15
      vertex 9.03326 10.0325 -15
    endloop
  endfacet
  facet normal -0 0 -1
    outer loop
      vertex -6.75 11.6913 -15
      vertex 6.75 -11.6913 -15
      vertex -4.17173 -12.8393 -15
    endloop
  endfacet
  facet normal -0 0 -1
    outer loop
      vertex -6.75 11.6913 -15
      vertex 9.03326 10.0325 -15
      vertex 6.75 -11.6913 -15
    endloop
  endfacet
  facet normal -0 0 1
    outer loop
      vertex -6.75 11.6913 15
      vertex -3.7082 11.4127 15
      vertex -4.17173 12.8393 15
    endloop
  endfacet
  facet normal -0.406737 0.913545 0
    outer loop
      vertex -6.75 11.6913 15
      vertex -4.17173 12.8393 15
      vertex -4.17173 12.8393 -15
    endloop
  endfacet
  facet normal 0 0 1
    outer loop
      vertex -6.75 11.6913 15
      vertex -6 10.3923 15
      vertex -3.7082 11.4127 15
    endloop
  endfacet
  facet normal 0.587785 0.809017 0
    outer loop
      vertex -8.02957 -8.91774 -12
      vertex -8.02957 -8.91774 15
      vertex -6 -10.3923 -12
    endloop
  endfacet
  facet normal 0.587785 0.809017 -0
    outer loop
      vertex -8.02957 -8.91774 15
      vertex -6 -10.3923 15
      vertex -6 -10.3923 -12
    endloop
  endfacet
  facet normal 0.587785 -0.809017 0
    outer loop
      vertex -8.02957 8.91774 -12
      vertex -6 10.3923 -12
      vertex -8.02957 8.91774 15
    endloop
  endfacet
  facet normal 0.587785 -0.809017 0
    outer loop
      vertex -8.02957 8.91774 15
      vertex -6 10.3923 -12
      vertex -6 10.3923 15
    endloop
  endfacet
  facet normal 0 0 1
    outer loop
      vertex -8.02957 8.91774 15
      vertex -6 10.3923 15
      vertex -6.75 11.6913 15
    endloop
  endfacet
  facet normal 0 0 -1
    outer loop
      vertex -9.03326 -10.0325 -15
      vertex -4.17173 -12.8393 -15
      vertex -6.75 -11.6913 -15
    endloop
  endfacet
  facet normal -0.587785 -0.809017 0
    outer loop
      vertex -9.03326 -10.0325 -15
      vertex -6.75 -11.6913 -15
      vertex -9.03326 -10.0325 15
    endloop
  endfacet
  facet normal 0 0 1
    outer loop
      vertex -9.03326 -10.0325 15
      vertex -6 -10.3923 15
      vertex -8.02957 -8.91774 15
    endloop
  endfacet
  facet normal -0.587785 -0.809017 0
    outer loop
      vertex -9.03326 -10.0325 15
      vertex -6.75 -11.6913 -15
      vertex -6.75 -11.6913 15
    endloop
  endfacet
  facet normal 0 0 1
    outer loop
      vertex -9.03326 -10.0325 15
      vertex -6.75 -11.6913 15
      vertex -6 -10.3923 15
    endloop
  endfacet
  facet normal -0.587785 0.809017 0
    outer loop
      vertex -9.03326 10.0325 -15
      vertex -9.03326 10.0325 15
      vertex -6.75 11.6913 -15
    endloop
  endfacet
  facet normal -0.587785 0.809017 0
    outer loop
      vertex -9.03326 10.0325 15
      vertex -6.75 11.6913 15
      vertex -6.75 11.6913 -15
    endloop
  endfacet
  facet normal 0 0 1
    outer loop
      vertex -9.03326 10.0325 15
      vertex -8.02957 8.91774 15
      vertex -6.75 11.6913 15
    endloop
  endfacet
  facet normal 0.743145 0.669131 -0
    outer loop
      vertex -9.7082 -7.05342 -12
      vertex -8.02957 -8.91774 15
      vertex -8.02957 -8.91774 -12
    endloop
  endfacet
  facet normal 0.743145 0.669131 -0
    outer loop
      vertex -9.7082 -7.05342 -12
      vertex -9.7082 -7.05342 15
      vertex -8.02957 -8.91774 15
    endloop
  endfacet
  facet normal 0 0 1
    outer loop
      vertex -9.7082 -7.05342 15
      vertex -9.03326 -10.0325 15
      vertex -8.02957 -8.91774 15
    endloop
  endfacet
  facet normal -0 0 1
    outer loop
      vertex -9.7082 7.05342 -12
      vertex -6 10.3923 -12
      vertex -8.02957 8.91774 -12
    endloop
  endfacet
  facet normal 0.743145 -0.669131 0
    outer loop
      vertex -9.7082 7.05342 -12
      vertex -8.02957 8.91774 -12
      vertex -9.7082 7.05342 15
    endloop
  endfacet
  facet normal 0.743145 -0.669131 0
    outer loop
      vertex -9.7082 7.05342 15
      vertex -8.02957 8.91774 -12
      vertex -8.02957 8.91774 15
    endloop
  endfacet
  facet normal 0 0 1
    outer loop
      vertex -9.7082 7.05342 15
      vertex -8.02957 8.91774 15
      vertex -9.03326 10.0325 15
    endloop
  endfacet
  facet normal -0.207912 0.978148 0
    outer loop
      vertex 1.25434 -11.9343 -12
      vertex 1.25434 -11.9343 15
      vertex 3.7082 -11.4127 -12
    endloop
  endfacet
  facet normal 0 -0 1
    outer loop
      vertex 1.25434 -11.9343 -12
      vertex 3.7082 -11.4127 -12
      vertex 10.9625 -4.88084 -12
    endloop
  endfacet
  facet normal 0 0 1
    outer loop
      vertex 1.25434 -11.9343 15
      vertex 1.41113 -13.426 15
      vertex 4.17173 -12.8393 15
    endloop
  endfacet
  facet normal -0.207912 0.978148 0
    outer loop
      vertex 1.25434 -11.9343 15
      vertex 3.7082 -11.4127 15
      vertex 3.7082 -11.4127 -12
    endloop
  endfacet
  facet normal 0 0 1
    outer loop
      vertex 1.25434 -11.9343 15
      vertex 4.17173 -12.8393 15
      vertex 3.7082 -11.4127 15
    endloop
  endfacet
  facet normal 0 0 1
    outer loop
      vertex 1.25434 11.9343 -12
      vertex 10.9625 4.88084 -12
      vertex 8.02957 8.91774 -12
    endloop
  endfacet
  facet normal 0 0 1
    outer loop
      vertex 1.25434 11.9343 -12
      vertex 11.7378 -2.49494 -12
      vertex 10.9625 4.88084 -12
    endloop
  endfacet
  facet normal -0.207912 -0.978148 -0
    outer loop
      vertex 1.25434 11.9343 -12
      vertex 3.7082 11.4127 -12
      vertex 1.25434 11.9343 15
    endloop
  endfacet
  facet normal 0 0 1
    outer loop
      vertex 1.25434 11.9343 -12
      vertex 8.02957 8.91774 -12
      vertex 3.7082 11.4127 -12
    endloop
  endfacet
  facet normal -0.207912 -0.978148 0
    outer loop
      vertex 1.25434 11.9343 15
      vertex 3.7082 11.4127 -12
      vertex 3.7082 11.4127 15
    endloop
  endfacet
  facet normal 0 0 1
    outer loop
      vertex 1.25434 11.9343 15
      vertex 3.7082 11.4127 15
      vertex 1.41113 13.426 15
    endloop
  endfacet
  facet normal 0.207912 -0.978148 0
    outer loop
      vertex 1.41113 -13.426 -15
      vertex 4.17173 -12.8393 -15
      vertex 1.41113 -13.426 15
    endloop
  endfacet
  facet normal 0.207912 -0.978148 0
    outer loop
      vertex 1.41113 -13.426 15
      vertex 4.17173 -12.8393 -15
      vertex 4.17173 -12.8393 15
    endloop
  endfacet
  facet normal 0.207912 0.978148 0
    outer loop
      vertex 1.41113 13.426 -15
      vertex 1.41113 13.426 15
      vertex 4.17173 12.8393 -15
    endloop
  endfacet
  facet normal -0 -0 -1
    outer loop
      vertex 1.41113 13.426 -15
      vertex 4.17173 12.8393 -15
      vertex 9.03326 10.0325 -15
    endloop
  endfacet
  facet normal 0 0 1
    outer loop
      vertex 1.41113 13.426 15
      vertex 3.7082 11.4127 15
      vertex 4.17173 12.8393 15
    endloop
  endfacet
  facet normal 0.207912 0.978148 0
    outer loop
      vertex 1.41113 13.426 15
      vertex 4.17173 12.8393 15
      vertex 4.17173 12.8393 -15
    endloop
  endfacet
  facet normal 0.866025 -0.5 0
    outer loop
      vertex 10.9217 -7.9351 -15
      vertex 12.3329 -5.49094 -15
      vertex 10.9217 -7.9351 15
    endloop
  endfacet
  facet normal -0 0 -1
    outer loop
      vertex 10.9217 -7.9351 -15
      vertex 13.205 -2.80681 -15
      vertex 12.3329 -5.49094 -15
    endloop
  endfacet
  facet normal 0.866025 -0.5 0
    outer loop
      vertex 10.9217 -7.9351 15
      vertex 12.3329 -5.49094 -15
      vertex 12.3329 -5.49094 15
    endloop
  endfacet
  facet normal 0 0 1
    outer loop
      vertex 10.9217 -7.9351 15
      vertex 12.3329 -5.49094 15
      vertex 10.9625 -4.88084 15
    endloop
  endfacet
  facet normal 0.866025 0.5 0
    outer loop
      vertex 10.9217 7.9351 -15
      vertex 10.9217 7.9351 15
      vertex 12.3329 5.49094 15
    endloop
  endfacet
  facet normal 0.866025 0.5 0
    outer loop
      vertex 10.9217 7.9351 -15
      vertex 12.3329 5.49094 15
      vertex 12.3329 5.49094 -15
    endloop
  endfacet
  facet normal -0.951057 0.309017 0
    outer loop
      vertex 10.9625 -4.88084 -12
      vertex 10.9625 -4.88084 15
      vertex 11.7378 -2.49494 -12
    endloop
  endfacet
  facet normal -0.951057 0.309017 0
    outer loop
      vertex 10.9625 -4.88084 15
      vertex 11.7378 -2.49494 15
      vertex 11.7378 -2.49494 -12
    endloop
  endfacet
  facet normal 0 -0 1
    outer loop
      vertex 10.9625 -4.88084 15
      vertex 12.3329 -5.49094 15
      vertex 13.205 -2.80681 15
    endloop
  endfacet
  facet normal 0 0 1
    outer loop
      vertex 10.9625 -4.88084 15
      vertex 13.205 -2.80681 15
      vertex 11.7378 -2.49494 15
    endloop
  endfacet
  facet normal 0 0 1
    outer loop
      vertex 10.9625 4.88084 -12
      vertex 11.7378 -2.49494 -12
      vertex 12 0 -12
    endloop
  endfacet
  facet normal -0.951057 -0.309017 0
    outer loop
      vertex 10.9625 4.88084 -12
      vertex 11.7378 2.49494 -12
      vertex 11.7378 2.49494 15
    endloop
  endfacet
  facet normal -0.951057 -0.309017 -0
    outer loop
      vertex 10.9625 4.88084 -12
      vertex 11.7378 2.49494 15
      vertex 10.9625 4.88084 15
    endloop
  endfacet
  facet normal 0 0 1
    outer loop
      vertex 10.9625 4.88084 -12
      vertex 12 0 -12
      vertex 11.7378 2.49494 -12
    endloop
  endfacet
  facet normal -0 0 1
    outer loop
      vertex 10.9625 4.88084 15
      vertex 11.7378 2.49494 15
      vertex 12.3329 5.49094 15
    endloop
  endfacet
  facet normal -0.994522 0.104528 0
    outer loop
      vertex 11.7378 -2.49494 -12
      vertex 11.7378 -2.49494 15
      vertex 12 0 -12
    endloop
  endfacet
  facet normal -0.994522 0.104528 0
    outer loop
      vertex 11.7378 -2.49494 15
      vertex 12 0 15
      vertex 12 0 -12
    endloop
  endfacet
  facet normal 0 0 1
    outer loop
      vertex 11.7378 -2.49494 15
      vertex 13.205 -2.80681 15
      vertex 12 0 15
    endloop
  endfacet
  facet normal -0.994522 -0.104528 0
    outer loop
      vertex 11.7378 2.49494 -12
      vertex 12 0 -12
      vertex 12 0 15
    endloop
  endfacet
  facet normal -0.994522 -0.104528 -0
    outer loop
      vertex 11.7378 2.49494 -12
      vertex 12 0 15
      vertex 11.7378 2.49494 15
    endloop
  endfacet
  facet normal 0 -0 1
    outer loop
      vertex 11.7378 2.49494 15
      vertex 12 0 15
      vertex 13.5 0 15
    endloop
  endfacet
  facet normal 0 0 1
    outer loop
      vertex 11.7378 2.49494 15
      vertex 13.205 2.80681 15
      vertex 12.3329 5.49094 15
    endloop
  endfacet
  facet normal 0 0 1
    outer loop
      vertex 11.7378 2.49494 15
      vertex 13.5 0 15
      vertex 13.205 2.80681 15
    endloop
  endfacet
  facet normal -0 0 1
    outer loop
      vertex 12 0 15
      vertex 13.205 -2.80681 15
      vertex 13.5 0 15
    endloop
  endfacet
  facet normal 0.951057 -0.309017 0
    outer loop
      vertex 12.3329 -5.49094 -15
      vertex 13.205 -2.80681 -15
      vertex 12.3329 -5.49094 15
    endloop
  endfacet
  facet normal 0.951057 -0.309017 0
    outer loop
      vertex 12.3329 -5.49094 15
      vertex 13.205 -2.80681 -15
      vertex 13.205 -2.80681 15
    endloop
  endfacet
  facet normal 0.951057 0.309017 0
    outer loop
      vertex 12.3329 5.49094 -15
      vertex 12.3329 5.49094 15
      vertex 13.205 2.80681 15
    endloop
  endfacet
  facet normal -0 -0 -1
    outer loop
      vertex 12.3329 5.49094 -15
      vertex 13.205 2.80681 -15
      vertex 13.5 0 -15
    endloop
  endfacet
  facet normal 0.951057 0.309017 0
    outer loop
      vertex 12.3329 5.49094 -15
      vertex 13.205 2.80681 15
      vertex 13.205 2.80681 -15
    endloop
  endfacet
  facet normal 0.994522 -0.104528 0
    outer loop
      vertex 13.205 -2.80681 -15
      vertex 13.2898 -2 -11.3163
      vertex 13.2898 -2 -9.89325
    endloop
  endfacet
  facet normal 0.994522 -0.104528 0
    outer loop
      vertex 13.205 -2.80681 -15
      vertex 13.2898 -2 -11.4085
      vertex 13.2898 -2 -11.3163
    endloop
  endfacet
  facet normal 0.994522 -0.104528 0
    outer loop
      vertex 13.205 -2.80681 -15
      vertex 13.2898 -2 -11.4184
      vertex 13.2898 -2 -11.4085
    endloop
  endfacet
  facet normal 0.994522 -0.104528 0
    outer loop
      vertex 13.205 -2.80681 -15
      vertex 13.2898 -2 -9.89325
      vertex 13.205 -2.80681 15
    endloop
  endfacet
  facet normal 0.994522 -0.104528 2.85564e-16
    outer loop
      vertex 13.205 -2.80681 -15
      vertex 13.5 0 -15
      vertex 13.2898 -2 -11.4184
    endloop
  endfacet
  facet normal 0.994522 -0.104528 2.34604e-17
    outer loop
      vertex 13.205 -2.80681 15
      vertex 13.2898 -2 -9.89325
      vertex 13.2898 -2 9.89325
    endloop
  endfacet
  facet normal 0.994522 -0.104528 0
    outer loop
      vertex 13.205 -2.80681 15
      vertex 13.2898 -2 11.358
      vertex 13.2898 -2 11.4085
    endloop
  endfacet
  facet normal 0.994522 -0.104528 0
    outer loop
      vertex 13.205 -2.80681 15
      vertex 13.2898 -2 11.4085
      vertex 13.2898 -2 11.4184
    endloop
  endfacet
  facet normal 0.994522 -0.104528 -4.17362e-16
    outer loop
      vertex 13.205 -2.80681 15
      vertex 13.2898 -2 11.4184
      vertex 13.5 0 15
    endloop
  endfacet
  facet normal 0.994522 -0.104528 1.58454e-17
    outer loop
      vertex 13.205 -2.80681 15
      vertex 13.2898 -2 9.89325
      vertex 13.2898 -2 11.358
    endloop
  endfacet
  facet normal 0.994522 0.104528 0
    outer loop
      vertex 13.205 2.80681 -15
      vertex 13.205 2.80681 15
      vertex 13.2898 2 9.89325
    endloop
  endfacet
  facet normal 0.994522 0.104528 -0
    outer loop
      vertex 13.205 2.80681 -15
      vertex 13.2898 2 -11.358
      vertex 13.2898 2 -11.4085
    endloop
  endfacet
  facet normal 0.994522 0.104528 -0
    outer loop
      vertex 13.205 2.80681 -15
      vertex 13.2898 2 -11.4085
      vertex 13.2898 2 -11.4184
    endloop
  endfacet
  facet normal 0.994522 0.104528 2.19664e-17
    outer loop
      vertex 13.205 2.80681 -15
      vertex 13.2898 2 -11.4184
      vertex 13.5 0 -15
    endloop
  endfacet
  facet normal 0.994522 0.104528 -1.58454e-17
    outer loop
      vertex 13.205 2.80681 -15
      vertex 13.2898 2 -9.89325
      vertex 13.2898 2 -11.358
    endloop
  endfacet
  facet normal 0.994522 0.104528 6.5824e-17
    outer loop
      vertex 13.205 2.80681 -15
      vertex 13.2898 2 9.89325
      vertex 13.2898 2 -9.89325
    endloop
  endfacet
  facet normal 0.994522 0.104528 0
    outer loop
      vertex 13.205 2.80681 15
      vertex 13.2898 2 11.3163
      vertex 13.2898 2 9.89325
    endloop
  endfacet
  facet normal 0.994522 0.104528 0
    outer loop
      vertex 13.205 2.80681 15
      vertex 13.2898 2 11.4085
      vertex 13.2898 2 11.3163
    endloop
  endfacet
  facet normal 0.994522 0.104528 0
    outer loop
      vertex 13.205 2.80681 15
      vertex 13.2898 2 11.4184
      vertex 13.2898 2 11.4085
    endloop
  endfacet
  facet normal 0.994522 0.104528 -3.84413e-16
    outer loop
      vertex 13.205 2.80681 15
      vertex 13.5 0 15
      vertex 13.2898 2 11.4184
    endloop
  endfacet
  facet normal 0 -1 0
    outer loop
      vertex 13.2898 -2 -11.3163
      vertex 14.5125 -2 -9.63335
      vertex 13.2898 -2 -9.89325
    endloop
  endfacet
  facet normal 0 -1 0
    outer loop
      vertex 13.2898 -2 -11.4085
      vertex 14.5125 -2 -9.63335
      vertex 13.2898 -2 -11.3163
    endloop
  endfacet
  facet normal 9.00626e-16 -1 -6.20347e-16
    outer loop
      vertex 13.2898 -2 -11.4085
      vertex 15.0902 -2 -9.51057
      vertex 14.5125 -2 -9.63335
    endloop
  endfacet
  facet normal -0 -1 0
    outer loop
      vertex 13.2898 -2 -11.4085
      vertex 15.5537 -2 -10.9371
      vertex 17.75 -2 -9.95929
    endloop
  endfacet
  facet normal -1.09899e-16 -1 3.38236e-16
    outer loop
      vertex 13.2898 -2 -11.4085
      vertex 17.75 -2 -9.95929
      vertex 15.0902 -2 -9.51057
    endloop
  endfacet
  facet normal 0.207912 5.75623e-16 -0.978148
    outer loop
      vertex 13.2898 -2 -11.4184
      vertex 13.5 0 -11.3737
      vertex 15.5537 -2 -10.9371
    endloop
  endfacet
  facet normal 0.994522 -0.104528 0
    outer loop
      vertex 13.2898 -2 -11.4184
      vertex 13.5 0 -15
      vertex 13.5 0 -11.3737
    endloop
  endfacet
  facet normal 0 -1 0
    outer loop
      vertex 13.2898 -2 -11.4184
      vertex 15.5537 -2 -10.9371
      vertex 13.2898 -2 -11.4085
    endloop
  endfacet
  facet normal 0.994522 -0.104528 2.23211e-17
    outer loop
      vertex 13.2898 -2 -9.89325
      vertex 13.5 0 -9.84857
      vertex 13.2898 -2 9.89325
    endloop
  endfacet
  facet normal -0.207912 3.16406e-16 0.978148
    outer loop
      vertex 13.2898 -2 -9.89325
      vertex 14.5125 -2 -9.63335
      vertex 13.5 0 -9.84857
    endloop
  endfacet
  facet normal 3.22213e-17 -1 1.51589e-16
    outer loop
      vertex 13.2898 -2 11.358
      vertex 14.5789 -2 9.61923
      vertex 15.0902 -2 9.51057
    endloop
  endfacet
  facet normal -7.2696e-16 -1 -5.88245e-16
    outer loop
      vertex 13.2898 -2 11.358
      vertex 15.0902 -2 9.51057
      vertex 15.5676 -2 9.29799
    endloop
  endfacet
  facet normal 1.89048e-16 -1 4.24609e-16
    outer loop
      vertex 13.2898 -2 11.358
      vertex 15.5676 -2 9.29799
      vertex 15.5875 -2 9.28912
    endloop
  endfacet
  facet normal -1.93271e-16 -1 0
    outer loop
      vertex 13.2898 -2 11.358
      vertex 15.5875 -2 9.28912
      vertex 13.2898 -2 11.4085
    endloop
  endfacet
  facet normal 0 -1 0
    outer loop
      vertex 13.2898 -2 11.4085
      vertex 15.5537 -2 10.9371
      vertex 13.2898 -2 11.4184
    endloop
  endfacet
  facet normal 2.82513e-17 -1 2.40166e-16
    outer loop
      vertex 13.2898 -2 11.4085
      vertex 15.5875 -2 9.28912
      vertex 17.75 -2 9.95929
    endloop
  endfacet
  facet normal 8.88054e-17 -1 4.26533e-16
    outer loop
      vertex 13.2898 -2 11.4085
      vertex 17.75 -2 9.95929
      vertex 15.5537 -2 10.9371
    endloop
  endfacet
  facet normal 0.994522 -0.104528 0
    outer loop
      vertex 13.2898 -2 11.4184
      vertex 13.5 0 11.3737
      vertex 13.5 0 15
    endloop
  endfacet
  facet normal 0.207912 -2.60829e-16 0.978148
    outer loop
      vertex 13.2898 -2 11.4184
      vertex 15.5537 -2 10.9371
      vertex 13.5 0 11.3737
    endloop
  endfacet
  facet normal 0.994522 -0.104528 0
    outer loop
      vertex 13.2898 -2 9.89325
      vertex 13.5 0 -9.84857
      vertex 13.5 0 9.84857
    endloop
  endfacet
  facet normal -0.207912 3.02731e-16 -0.978148
    outer loop
      vertex 13.2898 -2 9.89325
      vertex 13.5 0 9.84857
      vertex 14.5789 -2 9.61923
    endloop
  endfacet
  facet normal 3.22213e-17 -1 1.51589e-16
    outer loop
      vertex 13.2898 -2 9.89325
      vertex 14.5789 -2 9.61923
      vertex 13.2898 -2 11.358
    endloop
  endfacet
  facet normal 3.22213e-17 1 -1.51589e-16
    outer loop
      vertex 13.2898 2 -11.358
      vertex 13.2898 2 -9.89325
      vertex 15.0902 2 -9.51057
    endloop
  endfacet
  facet normal -6.94072e-16 1 5.56195e-16
    outer loop
      vertex 13.2898 2 -11.358
      vertex 15.0902 2 -9.51057
      vertex 15.5875 2 -9.28912
    endloop
  endfacet
  facet normal -1.93271e-16 1 0
    outer loop
      vertex 13.2898 2 -11.4085
      vertex 13.2898 2 -11.358
      vertex 15.5875 2 -9.28912
    endloop
  endfacet
  facet normal 2.82513e-17 1 -2.40166e-16
    outer loop
      vertex 13.2898 2 -11.4085
      vertex 15.5875 2 -9.28912
      vertex 17.75 2 -9.95929
    endloop
  endfacet
  facet normal 8.88054e-17 1 -4.26533e-16
    outer loop
      vertex 13.2898 2 -11.4085
      vertex 17.75 2 -9.95929
      vertex 15.5537 2 -10.9371
    endloop
  endfacet
  facet normal 0 1 0
    outer loop
      vertex 13.2898 2 -11.4184
      vertex 13.2898 2 -11.4085
      vertex 15.5537 2 -10.9371
    endloop
  endfacet
  facet normal 0.994522 0.104528 -0
    outer loop
      vertex 13.2898 2 -11.4184
      vertex 13.5 0 -11.3737
      vertex 13.5 0 -15
    endloop
  endfacet
  facet normal 0.207912 -7.40515e-16 -0.978148
    outer loop
      vertex 13.2898 2 -11.4184
      vertex 15.5537 2 -10.9371
      vertex 13.5 0 -11.3737
    endloop
  endfacet
  facet normal 0.994522 0.104528 6.69633e-17
    outer loop
      vertex 13.2898 2 -9.89325
      vertex 13.2898 2 9.89325
      vertex 13.5 0 9.84857
    endloop
  endfacet
  facet normal -0.207912 -4.1469e-17 0.978148
    outer loop
      vertex 13.2898 2 -9.89325
      vertex 13.5 0 -9.84857
      vertex 15.0902 2 -9.51057
    endloop
  endfacet
  facet normal 0.994522 0.104528 -0
    outer loop
      vertex 13.2898 2 -9.89325
      vertex 13.5 0 9.84857
      vertex 13.5 0 -9.84857
    endloop
  endfacet
  facet normal 0 1 0
    outer loop
      vertex 13.2898 2 11.3163
      vertex 13.2898 2 11.4085
      vertex 14.5125 2 9.63335
    endloop
  endfacet
  facet normal 0 1 0
    outer loop
      vertex 13.2898 2 11.3163
      vertex 14.5125 2 9.63335
      vertex 13.5565 2 9.83656
    endloop
  endfacet
  facet normal 0 1 0
    outer loop
      vertex 13.2898 2 11.4085
      vertex 13.2898 2 11.4184
      vertex 15.5537 2 10.9371
    endloop
  endfacet
  facet normal 9.00626e-16 1 6.20347e-16
    outer loop
      vertex 13.2898 2 11.4085
      vertex 15.0902 2 9.51057
      vertex 14.5125 2 9.63335
    endloop
  endfacet
  facet normal 0 1 0
    outer loop
      vertex 13.2898 2 11.4085
      vertex 15.5537 2 10.9371
      vertex 17.75 2 9.95929
    endloop
  endfacet
  facet normal -1.09899e-16 1 -3.38236e-16
    outer loop
      vertex 13.2898 2 11.4085
      vertex 17.75 2 9.95929
      vertex 15.0902 2 9.51057
    endloop
  endfacet
  facet normal 0.207912 2.60829e-16 0.978148
    outer loop
      vertex 13.2898 2 11.4184
      vertex 13.5 0 11.3737
      vertex 15.5537 2 10.9371
    endloop
  endfacet
  facet normal 0.994522 0.104528 0
    outer loop
      vertex 13.2898 2 11.4184
      vertex 13.5 0 15
      vertex 13.5 0 11.3737
    endloop
  endfacet
  facet normal 0 1 0
    outer loop
      vertex 13.2898 2 9.89325
      vertex 13.2898 2 11.3163
      vertex 13.5565 2 9.83656
    endloop
  endfacet
  facet normal -0.207912 4.42153e-16 -0.978148
    outer loop
      vertex 13.2898 2 9.89325
      vertex 13.5565 2 9.83656
      vertex 13.5 0 9.84857
    endloop
  endfacet
  facet normal 0.207912 0 -0.978148
    outer loop
      vertex 13.5 0 -11.3737
      vertex 15.5537 2 -10.9371
      vertex 15.5537 -2 -10.9371
    endloop
  endfacet
  facet normal -0.207912 1.97392e-15 0.978148
    outer loop
      vertex 13.5 0 -9.84857
      vertex 14.5125 -2 -9.63335
      vertex 15.0902 -2 -9.51057
    endloop
  endfacet
  facet normal -0.207912 0 0.978148
    outer loop
      vertex 13.5 0 -9.84857
      vertex 15.0902 -2 -9.51057
      vertex 15.0902 2 -9.51057
    endloop
  endfacet
  facet normal 0.207912 0 0.978148
    outer loop
      vertex 13.5 0 11.3737
      vertex 15.5537 -2 10.9371
      vertex 15.5537 2 10.9371
    endloop
  endfacet
  facet normal -0.207912 6.26151e-16 -0.978148
    outer loop
      vertex 13.5 0 9.84857
      vertex 13.5565 2 9.83656
      vertex 14.5789 -2 9.61923
    endloop
  endfacet
  facet normal -0.207912 -1.45986e-16 -0.978148
    outer loop
      vertex 13.5565 2 9.83656
      vertex 14.5125 2 9.63335
      vertex 14.5789 -2 9.61923
    endloop
  endfacet
  facet normal -0.207912 -1.35119e-16 -0.978148
    outer loop
      vertex 14.5125 2 9.63335
      vertex 15.0902 2 9.51057
      vertex 14.5789 -2 9.61923
    endloop
  endfacet
  facet normal -0.207912 -4.34385e-16 -0.978148
    outer loop
      vertex 14.5789 -2 9.61923
      vertex 15.0902 2 9.51057
      vertex 15.0902 -2 9.51057
    endloop
  endfacet
  facet normal -0.406737 0 0.913545
    outer loop
      vertex 15.0902 -2 -9.51057
      vertex 15.5875 2 -9.28912
      vertex 15.0902 2 -9.51057
    endloop
  endfacet
  facet normal -0.406737 -2.65531e-16 0.913545
    outer loop
      vertex 15.0902 -2 -9.51057
      vertex 17 -2 -8.66025
      vertex 15.5875 2 -9.28912
    endloop
  endfacet
  facet normal -1.21082e-16 -1 2.71954e-16
    outer loop
      vertex 15.0902 -2 -9.51057
      vertex 17.75 -2 -9.95929
      vertex 17 -2 -8.66025
    endloop
  endfacet
  facet normal -0.406737 -4.11573e-16 -0.913545
    outer loop
      vertex 15.0902 -2 9.51057
      vertex 15.0902 2 9.51057
      vertex 15.5676 -2 9.29799
    endloop
  endfacet
  facet normal -0.406737 -2.83233e-16 -0.913545
    outer loop
      vertex 15.0902 2 9.51057
      vertex 16.5225 2 8.87283
      vertex 15.5676 -2 9.29799
    endloop
  endfacet
  facet normal -1.21082e-16 1 -2.71954e-16
    outer loop
      vertex 15.0902 2 9.51057
      vertex 17.75 2 9.95929
      vertex 16.5225 2 8.87283
    endloop
  endfacet
  facet normal 0.406737 0 -0.913545
    outer loop
      vertex 15.5537 -2 -10.9371
      vertex 15.5537 2 -10.9371
      vertex 17.75 -2 -9.95929
    endloop
  endfacet
  facet normal 0.406737 -0 0.913545
    outer loop
      vertex 15.5537 -2 10.9371
      vertex 17.75 -2 9.95929
      vertex 17.75 2 9.95929
    endloop
  endfacet
  facet normal 0.406737 0 0.913545
    outer loop
      vertex 15.5537 -2 10.9371
      vertex 17.75 2 9.95929
      vertex 15.5537 2 10.9371
    endloop
  endfacet
  facet normal 0.406737 0 -0.913545
    outer loop
      vertex 15.5537 2 -10.9371
      vertex 17.75 2 -9.95929
      vertex 17.75 -2 -9.95929
    endloop
  endfacet
  facet normal -0.406737 -1.21967e-14 -0.913545
    outer loop
      vertex 15.5676 -2 9.29799
      vertex 16.5225 2 8.87283
      vertex 15.5875 -2 9.28912
    endloop
  endfacet
  facet normal -0.406737 -2.24395e-16 -0.913545
    outer loop
      vertex 15.5875 -2 9.28912
      vertex 16.5225 2 8.87283
      vertex 17 -2 8.66025
    endloop
  endfacet
  facet normal 6.05408e-17 -1 1.35977e-16
    outer loop
      vertex 15.5875 -2 9.28912
      vertex 17 -2 8.66025
      vertex 17.75 -2 9.95929
    endloop
  endfacet
  facet normal -0.406737 0 0.913545
    outer loop
      vertex 15.5875 2 -9.28912
      vertex 17 -2 -8.66025
      vertex 17 2 -8.66025
    endloop
  endfacet
  facet normal 6.05408e-17 1 -1.35977e-16
    outer loop
      vertex 15.5875 2 -9.28912
      vertex 17 2 -8.66025
      vertex 17.75 2 -9.95929
    endloop
  endfacet
  facet normal -0.406737 0 -0.913545
    outer loop
      vertex 16.5225 2 8.87283
      vertex 17 2 8.66025
      vertex 17 -2 8.66025
    endloop
  endfacet
  facet normal -1.21082e-16 1 -2.71954e-16
    outer loop
      vertex 16.5225 2 8.87283
      vertex 17.75 2 9.95929
      vertex 17 2 8.66025
    endloop
  endfacet
  facet normal -0.587785 0 0.809017
    outer loop
      vertex 17 -2 -8.66025
      vertex 17.4228 -2 -8.35305
      vertex 17 2 -8.66025
    endloop
  endfacet
  facet normal -1.74978e-16 -1 2.40836e-16
    outer loop
      vertex 17 -2 -8.66025
      vertex 17.75 -2 -9.95929
      vertex 17.4228 -2 -8.35305
    endloop
  endfacet
  facet normal -0.587785 0 -0.809017
    outer loop
      vertex 17 -2 8.66025
      vertex 17 2 8.66025
      vertex 17.4228 2 8.35305
    endloop
  endfacet
  facet normal -0.587785 -7.6119e-16 -0.809017
    outer loop
      vertex 17 -2 8.66025
      vertex 17.4228 2 8.35305
      vertex 18.2685 -2 7.73865
    endloop
  endfacet
  facet normal -3.58302e-17 -1 1.91617e-16
    outer loop
      vertex 17 -2 8.66025
      vertex 18.2685 -2 7.73865
      vertex 17.75 -2 9.95929
    endloop
  endfacet
  facet normal -0.587785 6.99232e-16 0.809017
    outer loop
      vertex 17 2 -8.66025
      vertex 17.4228 -2 -8.35305
      vertex 18.2685 2 -7.73865
    endloop
  endfacet
  facet normal -3.58302e-17 1 -1.91617e-16
    outer loop
      vertex 17 2 -8.66025
      vertex 18.2685 2 -7.73865
      vertex 17.75 2 -9.95929
    endloop
  endfacet
  facet normal -1.74978e-16 1 -2.40836e-16
    outer loop
      vertex 17 2 8.66025
      vertex 17.75 2 9.95929
      vertex 17.4228 2 8.35305
    endloop
  endfacet
  facet normal 1.29986e-16 -1 3.02954e-16
    outer loop
      vertex 17.4228 -2 -8.35305
      vertex 17.75 -2 -9.95929
      vertex 18.6913 -2 -7.43145
    endloop
  endfacet
  facet normal -0.587785 3.54042e-16 0.809017
    outer loop
      vertex 17.4228 -2 -8.35305
      vertex 18.6913 -2 -7.43145
      vertex 18.2685 2 -7.73865
    endloop
  endfacet
  facet normal 1.29986e-16 1 -3.02954e-16
    outer loop
      vertex 17.4228 2 8.35305
      vertex 17.75 2 9.95929
      vertex 18.6913 2 7.43145
    endloop
  endfacet
  facet normal -0.587785 -4.15999e-16 -0.809017
    outer loop
      vertex 17.4228 2 8.35305
      vertex 18.6913 2 7.43145
      vertex 18.2685 -2 7.73865
    endloop
  endfacet
  facet normal 0.587785 0 -0.809017
    outer loop
      vertex 17.75 -2 -9.95929
      vertex 17.75 2 -9.95929
      vertex 19.695 -2 -8.54617
    endloop
  endfacet
  facet normal -6.65414e-16 -1 5.99142e-16
    outer loop
      vertex 17.75 -2 -9.95929
      vertex 19.041 -2 -7.04305
      vertex 18.6913 -2 -7.43145
    endloop
  endfacet
  facet normal -6.65414e-16 -1 5.99142e-16
    outer loop
      vertex 17.75 -2 -9.95929
      vertex 19.0556 -2 -7.02685
      vertex 19.041 -2 -7.04305
    endloop
  endfacet
  facet normal 1.38028e-16 -1 1.24281e-16
    outer loop
      vertex 17.75 -2 -9.95929
      vertex 19.695 -2 -8.54617
      vertex 21.3037 -2 -6.75953
    endloop
  endfacet
  facet normal 1.83711e-16 -1 2.21087e-16
    outer loop
      vertex 17.75 -2 -9.95929
      vertex 20.0902 -2 -5.87785
      vertex 19.0556 -2 -7.02685
    endloop
  endfacet
  facet normal -8.19841e-14 -1 4.73335e-14
    outer loop
      vertex 17.75 -2 -9.95929
      vertex 20.8741 -2 -4.51999
      vertex 20.0902 -2 -5.87785
    endloop
  endfacet
  facet normal 1.20547e-16 -1 1.43695e-16
    outer loop
      vertex 17.75 -2 -9.95929
      vertex 21.3037 -2 -6.75953
      vertex 22.5058 -2 -4.67747
    endloop
  endfacet
  facet normal 1.00807e-16 -1 1.61469e-16
    outer loop
      vertex 17.75 -2 -9.95929
      vertex 22.5058 -2 -4.67747
      vertex 23.2487 -2 -2.39098
    endloop
  endfacet
  facet normal 7.88092e-17 -1 1.77452e-16
    outer loop
      vertex 17.75 -2 -9.95929
      vertex 23.2487 -2 -2.39098
      vertex 23.5 -2 4.44089e-16
    endloop
  endfacet
  facet normal -7.35757e-15 -1 4.47085e-15
    outer loop
      vertex 17.75 -2 -9.95929
      vertex 23.5 -2 4.44089e-16
      vertex 20.8741 -2 -4.51999
    endloop
  endfacet
  facet normal 1.74978e-16 -1 2.40836e-16
    outer loop
      vertex 17.75 -2 9.95929
      vertex 18.2685 -2 7.73865
      vertex 18.6913 -2 7.43145
    endloop
  endfacet
  facet normal -3.89087e-16 -1 3.07929e-17
    outer loop
      vertex 17.75 -2 9.95929
      vertex 18.6913 -2 7.43145
      vertex 19.7405 -2 6.26625
    endloop
  endfacet
  facet normal 0.587785 -0 0.809017
    outer loop
      vertex 17.75 -2 9.95929
      vertex 19.695 -2 8.54617
      vertex 19.695 2 8.54617
    endloop
  endfacet
  facet normal 0.587785 0 0.809017
    outer loop
      vertex 17.75 -2 9.95929
      vertex 19.695 2 8.54617
      vertex 17.75 2 9.95929
    endloop
  endfacet
  facet normal 6.65414e-16 -1 5.99142e-16
    outer loop
      vertex 17.75 -2 9.95929
      vertex 19.7405 -2 6.26625
      vertex 20.0902 -2 5.87785
    endloop
  endfacet
  facet normal -1.11611e-16 -1 1.5362e-16
    outer loop
      vertex 17.75 -2 9.95929
      vertex 20.0902 -2 5.87785
      vertex 23.2487 -2 2.39098
    endloop
  endfacet
  facet normal 1.92092e-16 -1 4.21523e-16
    outer loop
      vertex 17.75 -2 9.95929
      vertex 21.3037 -2 6.75953
      vertex 19.695 -2 8.54617
    endloop
  endfacet
  facet normal 6.90697e-17 -1 2.84892e-16
    outer loop
      vertex 17.75 -2 9.95929
      vertex 23.2487 -2 2.39098
      vertex 21.3037 -2 6.75953
    endloop
  endfacet
  facet normal 1.74978e-16 1 -2.40836e-16
    outer loop
      vertex 17.75 2 -9.95929
      vertex 18.2685 2 -7.73865
      vertex 18.6913 2 -7.43145
    endloop
  endfacet
  facet normal -3.89087e-16 1 -3.07929e-17
    outer loop
      vertex 17.75 2 -9.95929
      vertex 18.6913 2 -7.43145
      vertex 19.7405 2 -6.26625
    endloop
  endfacet
  facet normal 0.587785 0 -0.809017
    outer loop
      vertex 17.75 2 -9.95929
      vertex 19.695 2 -8.54617
      vertex 19.695 -2 -8.54617
    endloop
  endfacet
  facet normal 6.65414e-16 1 -5.99142e-16
    outer loop
      vertex 17.75 2 -9.95929
      vertex 19.7405 2 -6.26625
      vertex 20.0902 2 -5.87785
    endloop
  endfacet
  facet normal -1.11611e-16 1 -1.5362e-16
    outer loop
      vertex 17.75 2 -9.95929
      vertex 20.0902 2 -5.87785
      vertex 23.2487 2 -2.39098
    endloop
  endfacet
  facet normal 1.92092e-16 1 -4.21523e-16
    outer loop
      vertex 17.75 2 -9.95929
      vertex 21.3037 2 -6.75953
      vertex 19.695 2 -8.54617
    endloop
  endfacet
  facet normal 6.90697e-17 1 -2.84892e-16
    outer loop
      vertex 17.75 2 -9.95929
      vertex 23.2487 2 -2.39098
      vertex 21.3037 2 -6.75953
    endloop
  endfacet
  facet normal -6.65414e-16 1 -5.99142e-16
    outer loop
      vertex 17.75 2 9.95929
      vertex 19.041 2 7.04305
      vertex 18.6913 2 7.43145
    endloop
  endfacet
  facet normal -6.65414e-16 1 -5.99142e-16
    outer loop
      vertex 17.75 2 9.95929
      vertex 19.0556 2 7.02685
      vertex 19.041 2 7.04305
    endloop
  endfacet
  facet normal 1.38028e-16 1 -1.24281e-16
    outer loop
      vertex 17.75 2 9.95929
      vertex 19.695 2 8.54617
      vertex 21.3037 2 6.75953
    endloop
  endfacet
  facet normal 1.83711e-16 1 -2.21087e-16
    outer loop
      vertex 17.75 2 9.95929
      vertex 20.0902 2 5.87785
      vertex 19.0556 2 7.02685
    endloop
  endfacet
  facet normal -8.19841e-14 1 -4.73335e-14
    outer loop
      vertex 17.75 2 9.95929
      vertex 20.8741 2 4.51999
      vertex 20.0902 2 5.87785
    endloop
  endfacet
  facet normal 1.20547e-16 1 -1.43695e-16
    outer loop
      vertex 17.75 2 9.95929
      vertex 21.3037 2 6.75953
      vertex 22.5058 2 4.67747
    endloop
  endfacet
  facet normal 1.00807e-16 1 -1.61469e-16
    outer loop
      vertex 17.75 2 9.95929
      vertex 22.5058 2 4.67747
      vertex 23.2487 2 2.39098
    endloop
  endfacet
  facet normal 7.88092e-17 1 -1.77452e-16
    outer loop
      vertex 17.75 2 9.95929
      vertex 23.2487 2 2.39098
      vertex 23.5 2 -4.44089e-16
    endloop
  endfacet
  facet normal -7.35757e-15 1 -4.47085e-15
    outer loop
      vertex 17.75 2 9.95929
      vertex 23.5 2 -4.44089e-16
      vertex 20.8741 2 4.51999
    endloop
  endfacet
  facet normal -0.587785 -1.85872e-16 -0.809017
    outer loop
      vertex 18.2685 -2 7.73865
      vertex 18.6913 2 7.43145
      vertex 18.6913 -2 7.43145
    endloop
  endfacet
  facet normal -0.587785 1.85872e-16 0.809017
    outer loop
      vertex 18.2685 2 -7.73865
      vertex 18.6913 -2 -7.43145
      vertex 18.6913 2 -7.43145
    endloop
  endfacet
  facet normal -0.743145 1.48577e-16 0.669131
    outer loop
      vertex 18.6913 -2 -7.43145
      vertex 19.041 -2 -7.04305
      vertex 18.6913 2 -7.43145
    endloop
  endfacet
  facet normal -0.743145 -1.48577e-16 -0.669131
    outer loop
      vertex 18.6913 -2 7.43145
      vertex 18.6913 2 7.43145
      vertex 19.041 2 7.04305
    endloop
  endfacet
  facet normal -0.743145 -1.94723e-16 -0.669131
    outer loop
      vertex 18.6913 -2 7.43145
      vertex 19.041 2 7.04305
      vertex 19.7405 -2 6.26625
    endloop
  endfacet
  facet normal -0.743145 1.50468e-16 0.669131
    outer loop
      vertex 18.6913 2 -7.43145
      vertex 19.041 -2 -7.04305
      vertex 19.7405 2 -6.26625
    endloop
  endfacet
  facet normal -0.743145 1.27339e-14 0.669131
    outer loop
      vertex 19.041 -2 -7.04305
      vertex 19.0556 -2 -7.02685
      vertex 19.7405 2 -6.26625
    endloop
  endfacet
  facet normal -0.743145 -1.14605e-14 -0.669131
    outer loop
      vertex 19.041 2 7.04305
      vertex 19.0556 2 7.02685
      vertex 19.7405 -2 6.26625
    endloop
  endfacet
  facet normal -0.743145 2.33371e-16 0.669131
    outer loop
      vertex 19.0556 -2 -7.02685
      vertex 20.0902 -2 -5.87785
      vertex 19.7405 2 -6.26625
    endloop
  endfacet
  facet normal -0.743145 -2.7825e-16 -0.669131
    outer loop
      vertex 19.0556 2 7.02685
      vertex 20.0902 2 5.87785
      vertex 19.7405 -2 6.26625
    endloop
  endfacet
  facet normal 0.743145 0 -0.669131
    outer loop
      vertex 19.695 -2 -8.54617
      vertex 19.695 2 -8.54617
      vertex 21.3037 -2 -6.75953
    endloop
  endfacet
  facet normal 0.743145 0 0.669131
    outer loop
      vertex 19.695 -2 8.54617
      vertex 21.3037 -2 6.75953
      vertex 19.695 2 8.54617
    endloop
  endfacet
  facet normal 0.743145 0 -0.669131
    outer loop
      vertex 19.695 2 -8.54617
      vertex 21.3037 2 -6.75953
      vertex 21.3037 -2 -6.75953
    endloop
  endfacet
  facet normal 0.743145 2.97154e-16 0.669131
    outer loop
      vertex 19.695 2 8.54617
      vertex 21.3037 -2 6.75953
      vertex 21.3037 2 6.75953
    endloop
  endfacet
  facet normal -0.743145 -1.48577e-16 -0.669131
    outer loop
      vertex 19.7405 -2 6.26625
      vertex 20.0902 2 5.87785
      vertex 20.0902 -2 5.87785
    endloop
  endfacet
  facet normal -0.743145 1.48577e-16 0.669131
    outer loop
      vertex 19.7405 2 -6.26625
      vertex 20.0902 -2 -5.87785
      vertex 20.0902 2 -5.87785
    endloop
  endfacet
  facet normal -0.866025 1.11022e-16 0.5
    outer loop
      vertex 20.0902 -2 -5.87785
      vertex 20.3515 2 -5.42523
      vertex 20.0902 2 -5.87785
    endloop
  endfacet
  facet normal -0.866025 -3.27489e-16 0.5
    outer loop
      vertex 20.0902 -2 -5.87785
      vertex 20.8741 -2 -4.51999
      vertex 20.3515 2 -5.42523
    endloop
  endfacet
  facet normal -0.866025 -1.12851e-16 -0.5
    outer loop
      vertex 20.0902 -2 5.87785
      vertex 20.0902 2 5.87785
      vertex 20.3515 -2 5.42523
    endloop
  endfacet
  facet normal -7.75442e-16 -1 -4.47702e-16
    outer loop
      vertex 20.0902 -2 5.87785
      vertex 20.3515 -2 5.42523
      vertex 23.2487 -2 2.39098
    endloop
  endfacet
  facet normal -7.75442e-16 1 4.47702e-16
    outer loop
      vertex 20.0902 2 -5.87785
      vertex 20.3515 2 -5.42523
      vertex 23.2487 2 -2.39098
    endloop
  endfacet
  facet normal -0.866025 1.41617e-16 -0.5
    outer loop
      vertex 20.0902 2 5.87785
      vertex 20.8741 2 4.51999
      vertex 20.3515 -2 5.42523
    endloop
  endfacet
  facet normal -1.11811e-16 -1 1.85957e-16
    outer loop
      vertex 20.3515 -2 5.42523
      vertex 20.8632 -2 4.53886
      vertex 23.2487 -2 2.39098
    endloop
  endfacet
  facet normal -0.866025 2.20339e-16 -0.5
    outer loop
      vertex 20.3515 -2 5.42523
      vertex 20.8741 2 4.51999
      vertex 20.8632 -2 4.53886
    endloop
  endfacet
  facet normal -1.11811e-16 1 -1.85957e-16
    outer loop
      vertex 20.3515 2 -5.42523
      vertex 20.8632 2 -4.53886
      vertex 23.2487 2 -2.39098
    endloop
  endfacet
  facet normal -0.866025 -3.38135e-16 0.5
    outer loop
      vertex 20.3515 2 -5.42523
      vertex 20.8741 -2 -4.51999
      vertex 20.8632 2 -4.53886
    endloop
  endfacet
  facet normal -0.866025 1.84803e-16 -0.5
    outer loop
      vertex 20.8632 -2 4.53886
      vertex 20.8741 2 4.51999
      vertex 21.1355 -2 4.06737
    endloop
  endfacet
  facet normal 3.01538e-16 -1 6.45028e-16
    outer loop
      vertex 20.8632 -2 4.53886
      vertex 21.1355 -2 4.06737
      vertex 23.2487 -2 2.39098
    endloop
  endfacet
  facet normal -0.866025 -3.05881e-16 0.5
    outer loop
      vertex 20.8632 2 -4.53886
      vertex 20.8741 -2 -4.51999
      vertex 21.1355 2 -4.06737
    endloop
  endfacet
  facet normal 3.01538e-16 1 -6.45028e-16
    outer loop
      vertex 20.8632 2 -4.53886
      vertex 21.1355 2 -4.06737
      vertex 23.2487 2 -2.39098
    endloop
  endfacet
  facet normal -0.866025 1.11022e-16 0.5
    outer loop
      vertex 20.8741 -2 -4.51999
      vertex 21.1355 -2 -4.06737
      vertex 21.1355 2 -4.06737
    endloop
  endfacet
  facet normal 5.46561e-14 -1 -3.15557e-14
    outer loop
      vertex 20.8741 -2 -4.51999
      vertex 23.5 -2 4.44089e-16
      vertex 21.1355 -2 -4.06737
    endloop
  endfacet
  facet normal -0.866025 -1.11022e-16 -0.5
    outer loop
      vertex 20.8741 2 4.51999
      vertex 21.1355 2 4.06737
      vertex 21.1355 -2 4.06737
    endloop
  endfacet
  facet normal 5.46561e-14 1 3.15557e-14
    outer loop
      vertex 20.8741 2 4.51999
      vertex 23.5 2 -4.44089e-16
      vertex 21.1355 2 4.06737
    endloop
  endfacet
  facet normal -0.951057 6.86156e-17 0.309017
    outer loop
      vertex 21.1355 -2 -4.06737
      vertex 21.297 2 -3.5703
      vertex 21.1355 2 -4.06737
    endloop
  endfacet
  facet normal -0.951057 7.96594e-17 0.309017
    outer loop
      vertex 21.1355 -2 -4.06737
      vertex 21.62 -2 -2.57618
      vertex 21.297 2 -3.5703
    endloop
  endfacet
  facet normal -3.09806e-16 -1 3.98471e-16
    outer loop
      vertex 21.1355 -2 -4.06737
      vertex 23.5 -2 4.44089e-16
      vertex 21.62 -2 -2.57618
    endloop
  endfacet
  facet normal -0.951057 -6.63828e-17 -0.309017
    outer loop
      vertex 21.1355 -2 4.06737
      vertex 21.1355 2 4.06737
      vertex 21.297 -2 3.5703
    endloop
  endfacet
  facet normal -2.8312e-16 -1 -9.19913e-17
    outer loop
      vertex 21.1355 -2 4.06737
      vertex 21.297 -2 3.5703
      vertex 23.2487 -2 2.39098
    endloop
  endfacet
  facet normal -2.8312e-16 1 9.19913e-17
    outer loop
      vertex 21.1355 2 -4.06737
      vertex 21.297 2 -3.5703
      vertex 23.2487 2 -2.39098
    endloop
  endfacet
  facet normal -0.951057 1.90297e-16 -0.309017
    outer loop
      vertex 21.1355 2 4.06737
      vertex 21.62 2 2.57618
      vertex 21.297 -2 3.5703
    endloop
  endfacet
  facet normal -3.09806e-16 1 -3.98471e-16
    outer loop
      vertex 21.1355 2 4.06737
      vertex 23.5 2 -4.44089e-16
      vertex 21.62 2 2.57618
    endloop
  endfacet
  facet normal -0.951057 -3.71744e-16 -0.309017
    outer loop
      vertex 21.297 -2 3.5703
      vertex 21.62 2 2.57618
      vertex 21.7815 -2 2.07912
    endloop
  endfacet
  facet normal -5.92119e-17 -1 2.7857e-16
    outer loop
      vertex 21.297 -2 3.5703
      vertex 21.7815 -2 2.07912
      vertex 23.2487 -2 2.39098
    endloop
  endfacet
  facet normal -0.951057 6.41701e-16 0.309017
    outer loop
      vertex 21.297 2 -3.5703
      vertex 21.62 -2 -2.57618
      vertex 21.7815 2 -2.07912
    endloop
  endfacet
  facet normal -5.92119e-17 1 -2.7857e-16
    outer loop
      vertex 21.297 2 -3.5703
      vertex 21.7815 2 -2.07912
      vertex 23.2487 2 -2.39098
    endloop
  endfacet
  facet normal 0.866025 0 -0.5
    outer loop
      vertex 21.3037 -2 -6.75953
      vertex 21.3037 2 -6.75953
      vertex 22.5058 -2 -4.67747
    endloop
  endfacet
  facet normal 0.866025 0 0.5
    outer loop
      vertex 21.3037 -2 6.75953
      vertex 22.5058 -2 4.67747
      vertex 22.5058 2 4.67747
    endloop
  endfacet
  facet normal 0.866025 2.22045e-16 0.5
    outer loop
      vertex 21.3037 -2 6.75953
      vertex 22.5058 2 4.67747
      vertex 21.3037 2 6.75953
    endloop
  endfacet
  facet normal 3.09161e-16 -1 3.91788e-16
    outer loop
      vertex 21.3037 -2 6.75953
      vertex 23.2487 -2 2.39098
      vertex 22.5058 -2 4.67747
    endloop
  endfacet
  facet normal 0.866025 0 -0.5
    outer loop
      vertex 21.3037 2 -6.75953
      vertex 22.5058 2 -4.67747
      vertex 22.5058 -2 -4.67747
    endloop
  endfacet
  facet normal 3.09161e-16 1 -3.91788e-16
    outer loop
      vertex 21.3037 2 -6.75953
      vertex 23.2487 2 -2.39098
      vertex 22.5058 2 -4.67747
    endloop
  endfacet
  facet normal -0.951057 6.86156e-17 0.309017
    outer loop
      vertex 21.62 -2 -2.57618
      vertex 21.7815 -2 -2.07912
      vertex 21.7815 2 -2.07912
    endloop
  endfacet
  facet normal 4.2579e-16 -1 -1.38347e-16
    outer loop
      vertex 21.62 -2 -2.57618
      vertex 23.5 -2 4.44089e-16
      vertex 21.7815 -2 -2.07912
    endloop
  endfacet
  facet normal -0.951057 -6.86156e-17 -0.309017
    outer loop
      vertex 21.62 2 2.57618
      vertex 21.7815 2 2.07912
      vertex 21.7815 -2 2.07912
    endloop
  endfacet
  facet normal 4.2579e-16 1 1.38347e-16
    outer loop
      vertex 21.62 2 2.57618
      vertex 23.5 2 -4.44089e-16
      vertex 21.7815 2 2.07912
    endloop
  endfacet
  facet normal -0.994522 2.321e-17 0.104528
    outer loop
      vertex 21.7815 -2 -2.07912
      vertex 21.8361 -2 -1.55934
      vertex 21.7815 2 -2.07912
    endloop
  endfacet
  facet normal -8.88178e-16 -1 9.47732e-16
    outer loop
      vertex 21.7815 -2 -2.07912
      vertex 23.5 -2 4.44089e-16
      vertex 21.8361 -2 -1.55934
    endloop
  endfacet
  facet normal -0.994522 -2.321e-17 -0.104528
    outer loop
      vertex 21.7815 -2 2.07912
      vertex 21.7815 2 2.07912
      vertex 21.8361 2 1.55934
    endloop
  endfacet
  facet normal -0.994522 -1.38778e-17 -0.104528
    outer loop
      vertex 21.7815 -2 2.07912
      vertex 21.8361 2 1.55934
      vertex 21.9383 -2 0.587334
    endloop
  endfacet
  facet normal -3.09466e-17 -1 1.45593e-16
    outer loop
      vertex 21.7815 -2 2.07912
      vertex 21.9383 -2 0.587334
      vertex 23.2487 -2 2.39098
    endloop
  endfacet
  facet normal -0.994522 -4.62593e-18 0.104528
    outer loop
      vertex 21.7815 2 -2.07912
      vertex 21.8361 -2 -1.55934
      vertex 21.9383 2 -0.587334
    endloop
  endfacet
  facet normal -3.09466e-17 1 -1.45593e-16
    outer loop
      vertex 21.7815 2 -2.07912
      vertex 21.9383 2 -0.587334
      vertex 23.2487 2 -2.39098
    endloop
  endfacet
  facet normal -8.88178e-16 1 -9.47732e-16
    outer loop
      vertex 21.7815 2 2.07912
      vertex 23.5 2 -4.44089e-16
      vertex 21.8361 2 1.55934
    endloop
  endfacet
  facet normal -0.994522 4.65677e-16 0.104528
    outer loop
      vertex 21.8361 -2 -1.55934
      vertex 21.9431 -2 -0.541456
      vertex 21.9454 2 -0.519779
    endloop
  endfacet
  facet normal -0.994522 -1.51313e-15 0.104528
    outer loop
      vertex 21.8361 -2 -1.55934
      vertex 21.9454 2 -0.519779
      vertex 21.9383 2 -0.587334
    endloop
  endfacet
  facet normal 0 -1 0
    outer loop
      vertex 21.8361 -2 -1.55934
      vertex 23.5 -2 4.44089e-16
      vertex 21.9431 -2 -0.541456
    endloop
  endfacet
  facet normal -0.994522 -3.89512e-16 -0.104528
    outer loop
      vertex 21.8361 2 1.55934
      vertex 21.9431 2 0.541456
      vertex 21.9454 -2 0.519779
    endloop
  endfacet
  facet normal -0.994522 3.51149e-16 -0.104528
    outer loop
      vertex 21.8361 2 1.55934
      vertex 21.9454 -2 0.519779
      vertex 21.9383 -2 0.587334
    endloop
  endfacet
  facet normal 0 1 0
    outer loop
      vertex 21.8361 2 1.55934
      vertex 23.5 2 -4.44089e-16
      vertex 21.9431 2 0.541456
    endloop
  endfacet
  facet normal 1.4803e-16 -1 1.55586e-17
    outer loop
      vertex 21.9383 -2 0.587334
      vertex 21.9454 -2 0.519779
      vertex 23.2487 -2 2.39098
    endloop
  endfacet
  facet normal 1.4803e-16 1 -1.55586e-17
    outer loop
      vertex 21.9383 2 -0.587334
      vertex 21.9454 2 -0.519779
      vertex 23.2487 2 -2.39098
    endloop
  endfacet
  facet normal -0.994522 4.38907e-16 0.104528
    outer loop
      vertex 21.9431 -2 -0.541456
      vertex 22 -2 4.44089e-16
      vertex 21.9454 2 -0.519779
    endloop
  endfacet
  facet normal 4.45249e-16 -1 -4.67976e-17
    outer loop
      vertex 21.9431 -2 -0.541456
      vertex 23.2487 -2 2.39098
      vertex 22 -2 4.44089e-16
    endloop
  endfacet
  facet normal -6.23164e-17 -1 1.79185e-16
    outer loop
      vertex 21.9431 -2 -0.541456
      vertex 23.5 -2 4.44089e-16
      vertex 23.2487 -2 2.39098
    endloop
  endfacet
  facet normal -0.994522 -3.67416e-16 -0.104528
    outer loop
      vertex 21.9431 2 0.541456
      vertex 22 2 -4.44089e-16
      vertex 21.9454 -2 0.519779
    endloop
  endfacet
  facet normal 4.45249e-16 1 4.67976e-17
    outer loop
      vertex 21.9431 2 0.541456
      vertex 23.2487 2 -2.39098
      vertex 22 2 -4.44089e-16
    endloop
  endfacet
  facet normal -6.23164e-17 1 -1.79185e-16
    outer loop
      vertex 21.9431 2 0.541456
      vertex 23.5 2 -4.44089e-16
      vertex 23.2487 2 -2.39098
    endloop
  endfacet
  facet normal -3.84877e-16 -1 3.86738e-16
    outer loop
      vertex 21.9454 -2 0.519779
      vertex 22 -2 4.44089e-16
      vertex 23.2487 -2 2.39098
    endloop
  endfacet
  facet normal -0.994522 -2.321e-17 -0.104528
    outer loop
      vertex 21.9454 -2 0.519779
      vertex 22 2 -4.44089e-16
      vertex 22 -2 4.44089e-16
    endloop
  endfacet
  facet normal -0.994522 2.321e-17 0.104528
    outer loop
      vertex 21.9454 2 -0.519779
      vertex 22 -2 4.44089e-16
      vertex 22 2 -4.44089e-16
    endloop
  endfacet
  facet normal -3.84877e-16 1 -3.86738e-16
    outer loop
      vertex 21.9454 2 -0.519779
      vertex 22 2 -4.44089e-16
      vertex 23.2487 2 -2.39098
    endloop
  endfacet
  facet normal 0.951057 0 -0.309017
    outer loop
      vertex 22.5058 -2 -4.67747
      vertex 22.5058 2 -4.67747
      vertex 23.2487 2 -2.39098
    endloop
  endfacet
  facet normal 0.951057 -6.86156e-17 -0.309017
    outer loop
      vertex 22.5058 -2 -4.67747
      vertex 23.2487 2 -2.39098
      vertex 23.2487 -2 -2.39098
    endloop
  endfacet
  facet normal 0.951057 0 0.309017
    outer loop
      vertex 22.5058 -2 4.67747
      vertex 23.2487 -2 2.39098
      vertex 22.5058 2 4.67747
    endloop
  endfacet
  facet normal 0.951057 6.86156e-17 0.309017
    outer loop
      vertex 22.5058 2 4.67747
      vertex 23.2487 -2 2.39098
      vertex 23.2487 2 2.39098
    endloop
  endfacet
  facet normal 0.994522 -2.321e-17 -0.104528
    outer loop
      vertex 23.2487 -2 -2.39098
      vertex 23.2487 2 -2.39098
      vertex 23.5 2 -4.44089e-16
    endloop
  endfacet
  facet normal 0.994522 -2.321e-17 -0.104528
    outer loop
      vertex 23.2487 -2 -2.39098
      vertex 23.5 2 -4.44089e-16
      vertex 23.5 -2 4.44089e-16
    endloop
  endfacet
  facet normal 0.994522 2.30897e-17 0.104528
    outer loop
      vertex 23.2487 -2 2.39098
      vertex 23.5 -2 4.44089e-16
      vertex 23.2487 2 2.39098
    endloop
  endfacet
  facet normal 0.994522 2.321e-17 0.104528
    outer loop
      vertex 23.2487 2 2.39098
      vertex 23.5 -2 4.44089e-16
      vertex 23.5 2 -4.44089e-16
    endloop
  endfacet
  facet normal -0.406737 0.913545 0
    outer loop
      vertex 3.7082 -11.4127 -12
      vertex 3.7082 -11.4127 15
      vertex 6 -10.3923 -12
    endloop
  endfacet
  facet normal 0 -0 1
    outer loop
      vertex 3.7082 -11.4127 -12
      vertex 6 -10.3923 -12
      vertex 8.02957 -8.91774 -12
    endloop
  endfacet
  facet normal 0 -0 1
    outer loop
      vertex 3.7082 -11.4127 -12
      vertex 8.02957 -8.91774 -12
      vertex 10.9625 -4.88084 -12
    endloop
  endfacet
  facet normal -0 0 1
    outer loop
      vertex 3.7082 -11.4127 15
      vertex 4.17173 -12.8393 15
      vertex 6 -10.3923 15
    endloop
  endfacet
  facet normal -0.406737 0.913545 0
    outer loop
      vertex 3.7082 -11.4127 15
      vertex 6 -10.3923 15
      vertex 6 -10.3923 -12
    endloop
  endfacet
  facet normal -0.406737 -0.913545 -0
    outer loop
      vertex 3.7082 11.4127 -12
      vertex 6 10.3923 -12
      vertex 3.7082 11.4127 15
    endloop
  endfacet
  facet normal 0 0 1
    outer loop
      vertex 3.7082 11.4127 -12
      vertex 8.02957 8.91774 -12
      vertex 6 10.3923 -12
    endloop
  endfacet
  facet normal -0.406737 -0.913545 0
    outer loop
      vertex 3.7082 11.4127 15
      vertex 6 10.3923 -12
      vertex 6 10.3923 15
    endloop
  endfacet
  facet normal 0 0 1
    outer loop
      vertex 3.7082 11.4127 15
      vertex 6 10.3923 15
      vertex 4.17173 12.8393 15
    endloop
  endfacet
  facet normal 0.406737 -0.913545 0
    outer loop
      vertex 4.17173 -12.8393 -15
      vertex 6.75 -11.6913 -15
      vertex 4.17173 -12.8393 15
    endloop
  endfacet
  facet normal 0.406737 -0.913545 0
    outer loop
      vertex 4.17173 -12.8393 15
      vertex 6.75 -11.6913 -15
      vertex 6.75 -11.6913 15
    endloop
  endfacet
  facet normal 0 0 1
    outer loop
      vertex 4.17173 -12.8393 15
      vertex 6.75 -11.6913 15
      vertex 6 -10.3923 15
    endloop
  endfacet
  facet normal 0.406737 0.913545 0
    outer loop
      vertex 4.17173 12.8393 -15
      vertex 4.17173 12.8393 15
      vertex 6.75 11.6913 -15
    endloop
  endfacet
  facet normal -0 -0 -1
    outer loop
      vertex 4.17173 12.8393 -15
      vertex 6.75 11.6913 -15
      vertex 9.03326 10.0325 -15
    endloop
  endfacet
  facet normal 0 -0 1
    outer loop
      vertex 4.17173 12.8393 15
      vertex 6 10.3923 15
      vertex 6.75 11.6913 15
    endloop
  endfacet
  facet normal 0.406737 0.913545 0
    outer loop
      vertex 4.17173 12.8393 15
      vertex 6.75 11.6913 15
      vertex 6.75 11.6913 -15
    endloop
  endfacet
  facet normal -0.587785 0.809017 0
    outer loop
      vertex 6 -10.3923 -12
      vertex 6 -10.3923 15
      vertex 8.02957 -8.91774 -12
    endloop
  endfacet
  facet normal 0 0 1
    outer loop
      vertex 6 -10.3923 15
      vertex 6.75 -11.6913 15
      vertex 8.02957 -8.91774 15
    endloop
  endfacet
  facet normal -0.587785 0.809017 0
    outer loop
      vertex 6 -10.3923 15
      vertex 8.02957 -8.91774 15
      vertex 8.02957 -8.91774 -12
    endloop
  endfacet
  facet normal -0.587785 -0.809017 -0
    outer loop
      vertex 6 10.3923 -12
      vertex 8.02957 8.91774 -12
      vertex 6 10.3923 15
    endloop
  endfacet
  facet normal -0.587785 -0.809017 0
    outer loop
      vertex 6 10.3923 15
      vertex 8.02957 8.91774 -12
      vertex 8.02957 8.91774 15
    endloop
  endfacet
  facet normal 0 0 1
    outer loop
      vertex 6 10.3923 15
      vertex 8.02957 8.91774 15
      vertex 9.03326 10.0325 15
    endloop
  endfacet
  facet normal 0 0 1
    outer loop
      vertex 6 10.3923 15
      vertex 9.03326 10.0325 15
      vertex 6.75 11.6913 15
    endloop
  endfacet
  facet normal -0 0 -1
    outer loop
      vertex 6.75 -11.6913 -15
      vertex 13.205 -2.80681 -15
      vertex 9.03326 -10.0325 -15
    endloop
  endfacet
  facet normal 0.587785 -0.809017 0
    outer loop
      vertex 6.75 -11.6913 -15
      vertex 9.03326 -10.0325 -15
      vertex 6.75 -11.6913 15
    endloop
  endfacet
  facet normal -0 0 -1
    outer loop
      vertex 6.75 -11.6913 -15
      vertex 9.03326 10.0325 -15
      vertex 13.205 -2.80681 -15
    endloop
  endfacet
  facet normal 0.587785 -0.809017 0
    outer loop
      vertex 6.75 -11.6913 15
      vertex 9.03326 -10.0325 -15
      vertex 9.03326 -10.0325 15
    endloop
  endfacet
  facet normal 0 0 1
    outer loop
      vertex 6.75 -11.6913 15
      vertex 9.03326 -10.0325 15
      vertex 8.02957 -8.91774 15
    endloop
  endfacet
  facet normal 0.587785 0.809017 0
    outer loop
      vertex 6.75 11.6913 -15
      vertex 6.75 11.6913 15
      vertex 9.03326 10.0325 -15
    endloop
  endfacet
  facet normal 0.587785 0.809017 0
    outer loop
      vertex 6.75 11.6913 15
      vertex 9.03326 10.0325 15
      vertex 9.03326 10.0325 -15
    endloop
  endfacet
  facet normal -0.743145 0.669131 0
    outer loop
      vertex 8.02957 -8.91774 -12
      vertex 8.02957 -8.91774 15
      vertex 9.7082 -7.05342 -12
    endloop
  endfacet
  facet normal 0 -0 1
    outer loop
      vertex 8.02957 -8.91774 -12
      vertex 9.7082 -7.05342 -12
      vertex 10.9625 -4.88084 -12
    endloop
  endfacet
  facet normal 0 -0 1
    outer loop
      vertex 8.02957 -8.91774 15
      vertex 9.03326 -10.0325 15
      vertex 9.7082 -7.05342 15
    endloop
  endfacet
  facet normal -0.743145 0.669131 0
    outer loop
      vertex 8.02957 -8.91774 15
      vertex 9.7082 -7.05342 15
      vertex 9.7082 -7.05342 -12
    endloop
  endfacet
  facet normal 0 0 1
    outer loop
      vertex 8.02957 8.91774 -12
      vertex 10.9625 4.88084 -12
      vertex 9.7082 7.05342 -12
    endloop
  endfacet
  facet normal -0.743145 -0.669131 0
    outer loop
      vertex 8.02957 8.91774 -12
      vertex 9.7082 7.05342 -12
      vertex 9.7082 7.05342 15
    endloop
  endfacet
  facet normal -0.743145 -0.669131 -0
    outer loop
      vertex 8.02957 8.91774 -12
      vertex 9.7082 7.05342 15
      vertex 8.02957 8.91774 15
    endloop
  endfacet
  facet normal 0 0 1
    outer loop
      vertex 8.02957 8.91774 15
      vertex 9.7082 7.05342 15
      vertex 9.03326 10.0325 15
    endloop
  endfacet
  facet normal 0.743145 -0.669131 0
    outer loop
      vertex 9.03326 -10.0325 -15
      vertex 10.9217 -7.9351 -15
      vertex 9.03326 -10.0325 15
    endloop
  endfacet
  facet normal -0 0 -1
    outer loop
      vertex 9.03326 -10.0325 -15
      vertex 13.205 -2.80681 -15
      vertex 10.9217 -7.9351 -15
    endloop
  endfacet
  facet normal 0.743145 -0.669131 0
    outer loop
      vertex 9.03326 -10.0325 15
      vertex 10.9217 -7.9351 -15
      vertex 10.9217 -7.9351 15
    endloop
  endfacet
  facet normal 0 0 1
    outer loop
      vertex 9.03326 -10.0325 15
      vertex 10.9217 -7.9351 15
      vertex 9.7082 -7.05342 15
    endloop
  endfacet
  facet normal -0 -0 -1
    outer loop
      vertex 9.03326 10.0325 -15
      vertex 10.9217 7.9351 -15
      vertex 12.3329 5.49094 -15
    endloop
  endfacet
  facet normal 0.743145 0.669131 0
    outer loop
      vertex 9.03326 10.0325 -15
      vertex 10.9217 7.9351 15
      vertex 10.9217 7.9351 -15
    endloop
  endfacet
  facet normal -0 -0 -1
    outer loop
      vertex 9.03326 10.0325 -15
      vertex 12.3329 5.49094 -15
      vertex 13.5 0 -15
    endloop
  endfacet
  facet normal -0 0 -1
    outer loop
      vertex 9.03326 10.0325 -15
      vertex 13.5 0 -15
      vertex 13.205 -2.80681 -15
    endloop
  endfacet
  facet normal 0.743145 0.669131 0
    outer loop
      vertex 9.03326 10.0325 -15
      vertex 9.03326 10.0325 15
      vertex 10.9217 7.9351 15
    endloop
  endfacet
  facet normal 0 0 1
    outer loop
      vertex 9.03326 10.0325 15
      vertex 9.7082 7.05342 15
      vertex 10.9217 7.9351 15
    endloop
  endfacet
  facet normal -0.866025 0.5 0
    outer loop
      vertex 9.7082 -7.05342 -12
      vertex 9.7082 -7.05342 15
      vertex 10.9625 -4.88084 -12
    endloop
  endfacet
  facet normal -0 0 1
    outer loop
      vertex 9.7082 -7.05342 15
      vertex 10.9217 -7.9351 15
      vertex 10.9625 -4.88084 15
    endloop
  endfacet
  facet normal -0.866025 0.5 0
    outer loop
      vertex 9.7082 -7.05342 15
      vertex 10.9625 -4.88084 15
      vertex 10.9625 -4.88084 -12
    endloop
  endfacet
  facet normal -0.866025 -0.5 0
    outer loop
      vertex 9.7082 7.05342 -12
      vertex 10.9625 4.88084 -12
      vertex 10.9625 4.88084 15
    endloop
  endfacet
  facet normal -0.866025 -0.5 -0
    outer loop
      vertex 9.7082 7.05342 -12
      vertex 10.9625 4.88084 15
      vertex 9.7082 7.05342 15
    endloop
  endfacet
  facet normal 0 0 1
    outer loop
      vertex 9.7082 7.05342 15
      vertex 10.9625 4.88084 15
      vertex 12.3329 5.49094 15
    endloop
  endfacet
  facet normal -0 0 1
    outer loop
      vertex 9.7082 7.05342 15
      vertex 12.3329 5.49094 15
      vertex 10.9217 7.9351 15
    endloop
  endfacet
endsolid model
