solid model
  facet normal 0 0 1
    outer loop
      vertex -27.5 -40 2
      vertex 28.2322 -41.7678 2
      vertex 27.5 -40 2
    endloop
  endfacet
  facet normal 0 0 1
    outer loop
      vertex -27.5 40 2
      vertex 28.2322 38.2322 2
      vertex 27.5 40 2
    endloop
  endfacet
  facet normal 0 -0 1
    outer loop
      vertex -28.2322 -38.2322 2
      vertex -27.5 -40 2
      vertex 27.5 -40 2
    endloop
  endfacet
  facet normal 0.92388 0.382683 0
    outer loop
      vertex -28.2322 -38.2322 2
      vertex -27.5 -40 5
      vertex -27.5 -40 2
    endloop
  endfacet
  facet normal 0.92388 0.382683 0
    outer loop
      vertex -28.2322 -38.2322 2
      vertex -28.2322 -38.2322 5
      vertex -27.5 -40 5
    endloop
  endfacet
  facet normal 0 -0 1
    outer loop
      vertex -28.2322 -38.2322 2
      vertex 27.5 -40 2
      vertex 28.2322 -38.2322 2
    endloop
  endfacet
  facet normal 0 0 1
    outer loop
      vertex -28.2322 -38.2322 2
      vertex 28.2322 -38.2322 2
      vertex -28.2322 38.2322 2
    endloop
  endfacet
  facet normal 0.92388 -0.382683 0
    outer loop
      vertex -28.2322 -41.7678 2
      vertex -27.5 -40 2
      vertex -28.2322 -41.7678 5
    endloop
  endfacet
  facet normal 0 0 1
    outer loop
      vertex -28.2322 -41.7678 2
      vertex 28.2322 -41.7678 2
      vertex -27.5 -40 2
    endloop
  endfacet
  facet normal -0 0 1
    outer loop
      vertex -28.2322 -41.7678 2
      vertex 35 -45 2
      vertex 28.2322 -41.7678 2
    endloop
  endfacet
  facet normal 0.92388 -0.382683 0
    outer loop
      vertex -28.2322 -41.7678 5
      vertex -27.5 -40 2
      vertex -27.5 -40 5
    endloop
  endfacet
  facet normal 0.92388 -0.382683 0
    outer loop
      vertex -28.2322 38.2322 2
      vertex -27.5 40 2
      vertex -28.2322 38.2322 5
    endloop
  endfacet
  facet normal 0 -0 1
    outer loop
      vertex -28.2322 38.2322 2
      vertex 28.2322 -38.2322 2
      vertex 28.2322 38.2322 2
    endloop
  endfacet
  facet normal 0 0 1
    outer loop
      vertex -28.2322 38.2322 2
      vertex 28.2322 38.2322 2
      vertex -27.5 40 2
    endloop
  endfacet
  facet normal 0.92388 -0.382683 0
    outer loop
      vertex -28.2322 38.2322 5
      vertex -27.5 40 2
      vertex -27.5 40 5
    endloop
  endfacet
  facet normal 0 0 1
    outer loop
      vertex -28.2322 41.7678 2
      vertex -27.5 40 2
      vertex 27.5 40 2
    endloop
  endfacet
  facet normal 0.92388 0.382683 0
    outer loop
      vertex -28.2322 41.7678 2
      vertex -27.5 40 5
      vertex -27.5 40 2
    endloop
  endfacet
  facet normal 0.92388 0.382683 0
    outer loop
      vertex -28.2322 41.7678 2
      vertex -28.2322 41.7678 5
      vertex -27.5 40 5
    endloop
  endfacet
  facet normal -0 0 1
    outer loop
      vertex -28.2322 41.7678 2
      vertex 27.5 40 2
      vertex 28.2322 41.7678 2
    endloop
  endfacet
  facet normal 0 -0 -1
    outer loop
      vertex -28.5 -40 0
      vertex 28.7865 -39.1183 0
      vertex 28.7865 -40.8817 0
    endloop
  endfacet
  facet normal 0 0 1
    outer loop
      vertex -28.5 -40 5
      vertex -27.5 -40 5
      vertex -28.2322 -38.2322 5
    endloop
  endfacet
  facet normal -0 0 1
    outer loop
      vertex -28.5 -40 5
      vertex -28.2322 -41.7678 5
      vertex -27.5 -40 5
    endloop
  endfacet
  facet normal 0 0 -1
    outer loop
      vertex -28.5 40 0
      vertex 28.7865 40.8817 0
      vertex 28.7865 39.1183 0
    endloop
  endfacet
  facet normal 0 0 1
    outer loop
      vertex -28.5 40 5
      vertex -27.5 40 5
      vertex -28.2322 41.7678 5
    endloop
  endfacet
  facet normal -0 0 1
    outer loop
      vertex -28.5 40 5
      vertex -28.2322 38.2322 5
      vertex -27.5 40 5
    endloop
  endfacet
  facet normal -0.809017 -0.587785 0
    outer loop
      vertex -29.5365 -38.5734 0
      vertex -28.5 -40 0
      vertex -28.5 -40 5
    endloop
  endfacet
  facet normal -0.809017 -0.587785 -0
    outer loop
      vertex -29.5365 -38.5734 0
      vertex -28.5 -40 5
      vertex -29.5365 -38.5734 5
    endloop
  endfacet
  facet normal 0 0 -1
    outer loop
      vertex -29.5365 -38.5734 0
      vertex -29.5365 38.5734 0
      vertex 28.7865 -39.1183 0
    endloop
  endfacet
  facet normal 0 0 -1
    outer loop
      vertex -29.5365 -38.5734 0
      vertex 28.7865 -39.1183 0
      vertex -28.5 -40 0
    endloop
  endfacet
  facet normal -0 0 1
    outer loop
      vertex -29.5365 -38.5734 5
      vertex -28.5 -40 5
      vertex -28.2322 -38.2322 5
    endloop
  endfacet
  facet normal 0 0 -1
    outer loop
      vertex -29.5365 -41.4266 0
      vertex -28.5 -40 0
      vertex 28.7865 -40.8817 0
    endloop
  endfacet
  facet normal -0.809017 0.587785 0
    outer loop
      vertex -29.5365 -41.4266 0
      vertex -29.5365 -41.4266 5
      vertex -28.5 -40 0
    endloop
  endfacet
  facet normal 0 -0 -1
    outer loop
      vertex -29.5365 -41.4266 0
      vertex 28.7865 -40.8817 0
      vertex 35 -45 0
    endloop
  endfacet
  facet normal 0 0 1
    outer loop
      vertex -29.5365 -41.4266 5
      vertex -28.2322 -41.7678 5
      vertex -28.5 -40 5
    endloop
  endfacet
  facet normal -0.809017 0.587785 0
    outer loop
      vertex -29.5365 -41.4266 5
      vertex -28.5 -40 5
      vertex -28.5 -40 0
    endloop
  endfacet
  facet normal -0 0 -1
    outer loop
      vertex -29.5365 38.5734 0
      vertex -28.5 40 0
      vertex 28.7865 39.1183 0
    endloop
  endfacet
  facet normal -0.809017 0.587785 0
    outer loop
      vertex -29.5365 38.5734 0
      vertex -29.5365 38.5734 5
      vertex -28.5 40 0
    endloop
  endfacet
  facet normal 0 -0 -1
    outer loop
      vertex -29.5365 38.5734 0
      vertex 28.7865 39.1183 0
      vertex 28.7865 -39.1183 0
    endloop
  endfacet
  facet normal 0 0 1
    outer loop
      vertex -29.5365 38.5734 5
      vertex -28.2322 38.2322 5
      vertex -28.5 40 5
    endloop
  endfacet
  facet normal -0.809017 0.587785 0
    outer loop
      vertex -29.5365 38.5734 5
      vertex -28.5 40 5
      vertex -28.5 40 0
    endloop
  endfacet
  facet normal -0.809017 -0.587785 0
    outer loop
      vertex -29.5365 41.4266 0
      vertex -28.5 40 0
      vertex -28.5 40 5
    endloop
  endfacet
  facet normal -0.809017 -0.587785 -0
    outer loop
      vertex -29.5365 41.4266 0
      vertex -28.5 40 5
      vertex -29.5365 41.4266 5
    endloop
  endfacet
  facet normal -0 0 -1
    outer loop
      vertex -29.5365 41.4266 0
      vertex 28.7865 40.8817 0
      vertex -28.5 40 0
    endloop
  endfacet
  facet normal 0 0 -1
    outer loop
      vertex -29.5365 41.4266 0
      vertex 35 45 0
      vertex 28.7865 40.8817 0
    endloop
  endfacet
  facet normal -0 0 1
    outer loop
      vertex -29.5365 41.4266 5
      vertex -28.5 40 5
      vertex -28.2322 41.7678 5
    endloop
  endfacet
  facet normal -0 0 1
    outer loop
      vertex -30 -37.5 2
      vertex -28.2322 -38.2322 2
      vertex -30 37.5 2
    endloop
  endfacet
  facet normal 0.382683 0.92388 0
    outer loop
      vertex -30 -37.5 2
      vertex -30 -37.5 5
      vertex -28.2322 -38.2322 2
    endloop
  endfacet
  facet normal 0.382683 0.92388 0
    outer loop
      vertex -30 -37.5 5
      vertex -28.2322 -38.2322 5
      vertex -28.2322 -38.2322 2
    endloop
  endfacet
  facet normal 0 0 1
    outer loop
      vertex -30 -37.5 5
      vertex -29.5365 -38.5734 5
      vertex -28.2322 -38.2322 5
    endloop
  endfacet
  facet normal 0.382683 -0.92388 0
    outer loop
      vertex -30 -42.5 2
      vertex -28.2322 -41.7678 2
      vertex -30 -42.5 5
    endloop
  endfacet
  facet normal 0.382683 -0.92388 0
    outer loop
      vertex -30 -42.5 5
      vertex -28.2322 -41.7678 2
      vertex -28.2322 -41.7678 5
    endloop
  endfacet
  facet normal 0 0 1
    outer loop
      vertex -30 -42.5 5
      vertex -28.2322 -41.7678 5
      vertex -29.5365 -41.4266 5
    endloop
  endfacet
  facet normal 0 -0 1
    outer loop
      vertex -30 37.5 2
      vertex -28.2322 -38.2322 2
      vertex -28.2322 38.2322 2
    endloop
  endfacet
  facet normal 0.382683 -0.92388 0
    outer loop
      vertex -30 37.5 2
      vertex -28.2322 38.2322 2
      vertex -30 37.5 5
    endloop
  endfacet
  facet normal 0.382683 -0.92388 0
    outer loop
      vertex -30 37.5 5
      vertex -28.2322 38.2322 2
      vertex -28.2322 38.2322 5
    endloop
  endfacet
  facet normal 0 0 1
    outer loop
      vertex -30 37.5 5
      vertex -28.2322 38.2322 5
      vertex -29.5365 38.5734 5
    endloop
  endfacet
  facet normal 0.382683 0.92388 0
    outer loop
      vertex -30 42.5 2
      vertex -30 42.5 5
      vertex -28.2322 41.7678 2
    endloop
  endfacet
  facet normal 0.382683 0.92388 0
    outer loop
      vertex -30 42.5 5
      vertex -28.2322 41.7678 5
      vertex -28.2322 41.7678 2
    endloop
  endfacet
  facet normal 0 0 1
    outer loop
      vertex -30 42.5 5
      vertex -29.5365 41.4266 5
      vertex -28.2322 41.7678 5
    endloop
  endfacet
  facet normal 0.309017 -0.951057 0
    outer loop
      vertex -31.2135 -39.1183 0
      vertex -29.5365 -38.5734 0
      vertex -31.2135 -39.1183 5
    endloop
  endfacet
  facet normal -0 0 -1
    outer loop
      vertex -31.2135 -39.1183 0
      vertex -31.2135 39.1183 0
      vertex -29.5365 -38.5734 0
    endloop
  endfacet
  facet normal 0.309017 -0.951057 0
    outer loop
      vertex -31.2135 -39.1183 5
      vertex -29.5365 -38.5734 0
      vertex -29.5365 -38.5734 5
    endloop
  endfacet
  facet normal 0 0 1
    outer loop
      vertex -31.2135 -39.1183 5
      vertex -29.5365 -38.5734 5
      vertex -30 -37.5 5
    endloop
  endfacet
  facet normal 1 0 0
    outer loop
      vertex -31.2135 -40.8817 0
      vertex -31.2135 -39.1183 0
      vertex -31.2135 -40.8817 5
    endloop
  endfacet
  facet normal 0.309017 0.951057 0
    outer loop
      vertex -31.2135 -40.8817 0
      vertex -31.2135 -40.8817 5
      vertex -29.5365 -41.4266 0
    endloop
  endfacet
  facet normal 0.309017 0.951057 -0
    outer loop
      vertex -31.2135 -40.8817 5
      vertex -29.5365 -41.4266 5
      vertex -29.5365 -41.4266 0
    endloop
  endfacet
  facet normal 0 0 1
    outer loop
      vertex -31.2135 -40.8817 5
      vertex -30 -42.5 5
      vertex -29.5365 -41.4266 5
    endloop
  endfacet
  facet normal 1 -0 0
    outer loop
      vertex -31.2135 -40.8817 5
      vertex -31.2135 -39.1183 0
      vertex -31.2135 -39.1183 5
    endloop
  endfacet
  facet normal -0 -0 -1
    outer loop
      vertex -31.2135 39.1183 0
      vertex -29.5365 38.5734 0
      vertex -29.5365 -38.5734 0
    endloop
  endfacet
  facet normal 0.309017 0.951057 0
    outer loop
      vertex -31.2135 39.1183 0
      vertex -31.2135 39.1183 5
      vertex -29.5365 38.5734 0
    endloop
  endfacet
  facet normal 1 0 0
    outer loop
      vertex -31.2135 39.1183 0
      vertex -31.2135 40.8817 0
      vertex -31.2135 39.1183 5
    endloop
  endfacet
  facet normal 0.309017 0.951057 -0
    outer loop
      vertex -31.2135 39.1183 5
      vertex -29.5365 38.5734 5
      vertex -29.5365 38.5734 0
    endloop
  endfacet
  facet normal 0 0 1
    outer loop
      vertex -31.2135 39.1183 5
      vertex -30 37.5 5
      vertex -29.5365 38.5734 5
    endloop
  endfacet
  facet normal 1 -0 0
    outer loop
      vertex -31.2135 39.1183 5
      vertex -31.2135 40.8817 0
      vertex -31.2135 40.8817 5
    endloop
  endfacet
  facet normal 0.309017 -0.951057 0
    outer loop
      vertex -31.2135 40.8817 0
      vertex -29.5365 41.4266 0
      vertex -31.2135 40.8817 5
    endloop
  endfacet
  facet normal 0.309017 -0.951057 0
    outer loop
      vertex -31.2135 40.8817 5
      vertex -29.5365 41.4266 0
      vertex -29.5365 41.4266 5
    endloop
  endfacet
  facet normal 0 0 1
    outer loop
      vertex -31.2135 40.8817 5
      vertex -29.5365 41.4266 5
      vertex -30 42.5 5
    endloop
  endfacet
  facet normal 0 -0 1
    outer loop
      vertex -31.7678 -38.2322 2
      vertex -30 -37.5 2
      vertex -30 37.5 2
    endloop
  endfacet
  facet normal 0 0 1
    outer loop
      vertex -31.7678 -38.2322 2
      vertex -30 37.5 2
      vertex -31.7678 38.2322 2
    endloop
  endfacet
  facet normal -0.382683 0.92388 0
    outer loop
      vertex -31.7678 -38.2322 2
      vertex -31.7678 -38.2322 5
      vertex -30 -37.5 2
    endloop
  endfacet
  facet normal -0.382683 0.92388 0
    outer loop
      vertex -31.7678 -38.2322 5
      vertex -30 -37.5 5
      vertex -30 -37.5 2
    endloop
  endfacet
  facet normal 0 0 1
    outer loop
      vertex -31.7678 -38.2322 5
      vertex -31.2135 -39.1183 5
      vertex -30 -37.5 5
    endloop
  endfacet
  facet normal -0.382683 -0.92388 0
    outer loop
      vertex -31.7678 -41.7678 2
      vertex -30 -42.5 2
      vertex -31.7678 -41.7678 5
    endloop
  endfacet
  facet normal -0.382683 -0.92388 0
    outer loop
      vertex -31.7678 -41.7678 5
      vertex -30 -42.5 2
      vertex -30 -42.5 5
    endloop
  endfacet
  facet normal 0 0 1
    outer loop
      vertex -31.7678 -41.7678 5
      vertex -30 -42.5 5
      vertex -31.2135 -40.8817 5
    endloop
  endfacet
  facet normal -0.382683 -0.92388 0
    outer loop
      vertex -31.7678 38.2322 2
      vertex -30 37.5 2
      vertex -31.7678 38.2322 5
    endloop
  endfacet
  facet normal -0.382683 -0.92388 0
    outer loop
      vertex -31.7678 38.2322 5
      vertex -30 37.5 2
      vertex -30 37.5 5
    endloop
  endfacet
  facet normal 0 0 1
    outer loop
      vertex -31.7678 38.2322 5
      vertex -30 37.5 5
      vertex -31.2135 39.1183 5
    endloop
  endfacet
  facet normal -0.382683 0.92388 0
    outer loop
      vertex -31.7678 41.7678 2
      vertex -31.7678 41.7678 5
      vertex -30 42.5 2
    endloop
  endfacet
  facet normal -0.382683 0.92388 0
    outer loop
      vertex -31.7678 41.7678 5
      vertex -30 42.5 5
      vertex -30 42.5 2
    endloop
  endfacet
  facet normal 0 0 1
    outer loop
      vertex -31.7678 41.7678 5
      vertex -31.2135 40.8817 5
      vertex -30 42.5 5
    endloop
  endfacet
  facet normal -0.92388 -0.382683 0
    outer loop
      vertex -32.5 -40 2
      vertex -31.7678 -41.7678 2
      vertex -31.7678 -41.7678 5
    endloop
  endfacet
  facet normal -0.92388 -0.382683 0
    outer loop
      vertex -32.5 -40 2
      vertex -31.7678 -41.7678 5
      vertex -32.5 -40 5
    endloop
  endfacet
  facet normal -0.92388 0.382683 0
    outer loop
      vertex -32.5 -40 2
      vertex -32.5 -40 5
      vertex -31.7678 -38.2322 2
    endloop
  endfacet
  facet normal 0 0 1
    outer loop
      vertex -32.5 -40 5
      vertex -31.2135 -39.1183 5
      vertex -31.7678 -38.2322 5
    endloop
  endfacet
  facet normal 0 0 1
    outer loop
      vertex -32.5 -40 5
      vertex -31.2135 -40.8817 5
      vertex -31.2135 -39.1183 5
    endloop
  endfacet
  facet normal -0.92388 0.382683 0
    outer loop
      vertex -32.5 -40 5
      vertex -31.7678 -38.2322 5
      vertex -31.7678 -38.2322 2
    endloop
  endfacet
  facet normal 0 -0 1
    outer loop
      vertex -32.5 -40 5
      vertex -31.7678 -41.7678 5
      vertex -31.2135 -40.8817 5
    endloop
  endfacet
  facet normal -0.92388 -0.382683 0
    outer loop
      vertex -32.5 40 2
      vertex -31.7678 38.2322 2
      vertex -31.7678 38.2322 5
    endloop
  endfacet
  facet normal -0.92388 -0.382683 0
    outer loop
      vertex -32.5 40 2
      vertex -31.7678 38.2322 5
      vertex -32.5 40 5
    endloop
  endfacet
  facet normal -0.92388 0.382683 0
    outer loop
      vertex -32.5 40 2
      vertex -32.5 40 5
      vertex -31.7678 41.7678 2
    endloop
  endfacet
  facet normal 0 0 1
    outer loop
      vertex -32.5 40 5
      vertex -31.2135 39.1183 5
      vertex -31.2135 40.8817 5
    endloop
  endfacet
  facet normal 0 0 1
    outer loop
      vertex -32.5 40 5
      vertex -31.2135 40.8817 5
      vertex -31.7678 41.7678 5
    endloop
  endfacet
  facet normal 0 -0 1
    outer loop
      vertex -32.5 40 5
      vertex -31.7678 38.2322 5
      vertex -31.2135 39.1183 5
    endloop
  endfacet
  facet normal -0.92388 0.382683 0
    outer loop
      vertex -32.5 40 5
      vertex -31.7678 41.7678 5
      vertex -31.7678 41.7678 2
    endloop
  endfacet
  facet normal 0 -0 -1
    outer loop
      vertex -35 -45 0
      vertex -29.5365 -41.4266 0
      vertex 35 -45 0
    endloop
  endfacet
  facet normal 0 -0 -1
    outer loop
      vertex -35 -45 0
      vertex -31.2135 -39.1183 0
      vertex -31.2135 -40.8817 0
    endloop
  endfacet
  facet normal 0 -0 -1
    outer loop
      vertex -35 -45 0
      vertex -31.2135 -40.8817 0
      vertex -29.5365 -41.4266 0
    endloop
  endfacet
  facet normal -1 0 0
    outer loop
      vertex -35 -45 0
      vertex -35 -45 2
      vertex -35 45 0
    endloop
  endfacet
  facet normal 0 0 -1
    outer loop
      vertex -35 -45 0
      vertex -35 45 0
      vertex -31.2135 -39.1183 0
    endloop
  endfacet
  facet normal 0 -1 0
    outer loop
      vertex -35 -45 0
      vertex 35 -45 0
      vertex -35 -45 2
    endloop
  endfacet
  facet normal 0 0 1
    outer loop
      vertex -35 -45 2
      vertex -28.2322 -41.7678 2
      vertex -30 -42.5 2
    endloop
  endfacet
  facet normal 0 0 1
    outer loop
      vertex -35 -45 2
      vertex -30 -42.5 2
      vertex -31.7678 -41.7678 2
    endloop
  endfacet
  facet normal 0 0 1
    outer loop
      vertex -35 -45 2
      vertex -31.7678 -38.2322 2
      vertex -31.7678 38.2322 2
    endloop
  endfacet
  facet normal 0 0 1
    outer loop
      vertex -35 -45 2
      vertex -31.7678 -41.7678 2
      vertex -32.5 -40 2
    endloop
  endfacet
  facet normal 0 0 1
    outer loop
      vertex -35 -45 2
      vertex -31.7678 38.2322 2
      vertex -35 45 2
    endloop
  endfacet
  facet normal 0 0 1
    outer loop
      vertex -35 -45 2
      vertex -32.5 -40 2
      vertex -31.7678 -38.2322 2
    endloop
  endfacet
  facet normal -1 0 0
    outer loop
      vertex -35 -45 2
      vertex -35 45 2
      vertex -35 45 0
    endloop
  endfacet
  facet normal 0 -1 0
    outer loop
      vertex -35 -45 2
      vertex 35 -45 0
      vertex 35 -45 2
    endloop
  endfacet
  facet normal 0 0 1
    outer loop
      vertex -35 -45 2
      vertex 35 -45 2
      vertex -28.2322 -41.7678 2
    endloop
  endfacet
  facet normal -0 0 -1
    outer loop
      vertex -35 45 0
      vertex -29.5365 41.4266 0
      vertex -31.2135 40.8817 0
    endloop
  endfacet
  facet normal -0 -0 -1
    outer loop
      vertex -35 45 0
      vertex -31.2135 39.1183 0
      vertex -31.2135 -39.1183 0
    endloop
  endfacet
  facet normal -0 -0 -1
    outer loop
      vertex -35 45 0
      vertex -31.2135 40.8817 0
      vertex -31.2135 39.1183 0
    endloop
  endfacet
  facet normal 0 1 0
    outer loop
      vertex -35 45 0
      vertex -35 45 2
      vertex 35 45 0
    endloop
  endfacet
  facet normal -0 0 -1
    outer loop
      vertex -35 45 0
      vertex 35 45 0
      vertex -29.5365 41.4266 0
    endloop
  endfacet
  facet normal 0 -0 1
    outer loop
      vertex -35 45 2
      vertex -28.2322 41.7678 2
      vertex 28.2322 41.7678 2
    endloop
  endfacet
  facet normal -0 -0 1
    outer loop
      vertex -35 45 2
      vertex -30 42.5 2
      vertex -28.2322 41.7678 2
    endloop
  endfacet
  facet normal 0 0 1
    outer loop
      vertex -35 45 2
      vertex -31.7678 38.2322 2
      vertex -32.5 40 2
    endloop
  endfacet
  facet normal 0 0 1
    outer loop
      vertex -35 45 2
      vertex -31.7678 41.7678 2
      vertex -30 42.5 2
    endloop
  endfacet
  facet normal 0 0 1
    outer loop
      vertex -35 45 2
      vertex -32.5 40 2
      vertex -31.7678 41.7678 2
    endloop
  endfacet
  facet normal -0 0 1
    outer loop
      vertex -35 45 2
      vertex 28.2322 41.7678 2
      vertex 35 45 2
    endloop
  endfacet
  facet normal -0 1 0
    outer loop
      vertex -35 45 2
      vertex 35 45 2
      vertex 35 45 0
    endloop
  endfacet
  facet normal -0.92388 0.382683 0
    outer loop
      vertex 27.5 -40 2
      vertex 27.5 -40 5
      vertex 28.2322 -38.2322 2
    endloop
  endfacet
  facet normal -0.92388 -0.382683 0
    outer loop
      vertex 27.5 -40 2
      vertex 28.2322 -41.7678 2
      vertex 28.2322 -41.7678 5
    endloop
  endfacet
  facet normal -0.92388 -0.382683 0
    outer loop
      vertex 27.5 -40 2
      vertex 28.2322 -41.7678 5
      vertex 27.5 -40 5
    endloop
  endfacet
  facet normal -0.92388 0.382683 0
    outer loop
      vertex 27.5 -40 5
      vertex 28.2322 -38.2322 5
      vertex 28.2322 -38.2322 2
    endloop
  endfacet
  facet normal 0 -0 1
    outer loop
      vertex 27.5 -40 5
      vertex 28.2322 -41.7678 5
      vertex 28.7865 -40.8817 5
    endloop
  endfacet
  facet normal 0 0 1
    outer loop
      vertex 27.5 -40 5
      vertex 28.7865 -39.1183 5
      vertex 28.2322 -38.2322 5
    endloop
  endfacet
  facet normal 0 0 1
    outer loop
      vertex 27.5 -40 5
      vertex 28.7865 -40.8817 5
      vertex 28.7865 -39.1183 5
    endloop
  endfacet
  facet normal -0.92388 0.382683 0
    outer loop
      vertex 27.5 40 2
      vertex 27.5 40 5
      vertex 28.2322 41.7678 2
    endloop
  endfacet
  facet normal -0.92388 -0.382683 0
    outer loop
      vertex 27.5 40 2
      vertex 28.2322 38.2322 2
      vertex 28.2322 38.2322 5
    endloop
  endfacet
  facet normal -0.92388 -0.382683 0
    outer loop
      vertex 27.5 40 2
      vertex 28.2322 38.2322 5
      vertex 27.5 40 5
    endloop
  endfacet
  facet normal 0 -0 1
    outer loop
      vertex 27.5 40 5
      vertex 28.2322 38.2322 5
      vertex 28.7865 39.1183 5
    endloop
  endfacet
  facet normal -0.92388 0.382683 0
    outer loop
      vertex 27.5 40 5
      vertex 28.2322 41.7678 5
      vertex 28.2322 41.7678 2
    endloop
  endfacet
  facet normal 0 0 1
    outer loop
      vertex 27.5 40 5
      vertex 28.7865 39.1183 5
      vertex 28.7865 40.8817 5
    endloop
  endfacet
  facet normal 0 0 1
    outer loop
      vertex 27.5 40 5
      vertex 28.7865 40.8817 5
      vertex 28.2322 41.7678 5
    endloop
  endfacet
  facet normal -0.382683 0.92388 0
    outer loop
      vertex 28.2322 -38.2322 2
      vertex 28.2322 -38.2322 5
      vertex 30 -37.5 2
    endloop
  endfacet
  facet normal 0 0 1
    outer loop
      vertex 28.2322 -38.2322 2
      vertex 30 -37.5 2
      vertex 30 37.5 2
    endloop
  endfacet
  facet normal 0 0 1
    outer loop
      vertex 28.2322 -38.2322 2
      vertex 30 37.5 2
      vertex 28.2322 38.2322 2
    endloop
  endfacet
  facet normal 0 0 1
    outer loop
      vertex 28.2322 -38.2322 5
      vertex 28.7865 -39.1183 5
      vertex 30 -37.5 5
    endloop
  endfacet
  facet normal -0.382683 0.92388 0
    outer loop
      vertex 28.2322 -38.2322 5
      vertex 30 -37.5 5
      vertex 30 -37.5 2
    endloop
  endfacet
  facet normal -0.382683 -0.92388 0
    outer loop
      vertex 28.2322 -41.7678 2
      vertex 30 -42.5 2
      vertex 28.2322 -41.7678 5
    endloop
  endfacet
  facet normal 0 0 1
    outer loop
      vertex 28.2322 -41.7678 2
      vertex 35 -45 2
      vertex 30 -42.5 2
    endloop
  endfacet
  facet normal -0.382683 -0.92388 0
    outer loop
      vertex 28.2322 -41.7678 5
      vertex 30 -42.5 2
      vertex 30 -42.5 5
    endloop
  endfacet
  facet normal 0 0 1
    outer loop
      vertex 28.2322 -41.7678 5
      vertex 30 -42.5 5
      vertex 28.7865 -40.8817 5
    endloop
  endfacet
  facet normal -0.382683 -0.92388 0
    outer loop
      vertex 28.2322 38.2322 2
      vertex 30 37.5 2
      vertex 28.2322 38.2322 5
    endloop
  endfacet
  facet normal -0.382683 -0.92388 0
    outer loop
      vertex 28.2322 38.2322 5
      vertex 30 37.5 2
      vertex 30 37.5 5
    endloop
  endfacet
  facet normal 0 0 1
    outer loop
      vertex 28.2322 38.2322 5
      vertex 30 37.5 5
      vertex 28.7865 39.1183 5
    endloop
  endfacet
  facet normal -0.382683 0.92388 0
    outer loop
      vertex 28.2322 41.7678 2
      vertex 28.2322 41.7678 5
      vertex 30 42.5 2
    endloop
  endfacet
  facet normal 0 0 1
    outer loop
      vertex 28.2322 41.7678 2
      vertex 30 42.5 2
      vertex 35 45 2
    endloop
  endfacet
  facet normal 0 0 1
    outer loop
      vertex 28.2322 41.7678 5
      vertex 28.7865 40.8817 5
      vertex 30 42.5 5
    endloop
  endfacet
  facet normal -0.382683 0.92388 0
    outer loop
      vertex 28.2322 41.7678 5
      vertex 30 42.5 5
      vertex 30 42.5 2
    endloop
  endfacet
  facet normal -0 0 -1
    outer loop
      vertex 28.7865 -39.1183 0
      vertex 28.7865 39.1183 0
      vertex 30.4635 -38.5734 0
    endloop
  endfacet
  facet normal 0.309017 -0.951057 0
    outer loop
      vertex 28.7865 -39.1183 0
      vertex 30.4635 -38.5734 0
      vertex 28.7865 -39.1183 5
    endloop
  endfacet
  facet normal 0.309017 -0.951057 0
    outer loop
      vertex 28.7865 -39.1183 5
      vertex 30.4635 -38.5734 0
      vertex 30.4635 -38.5734 5
    endloop
  endfacet
  facet normal 0 0 1
    outer loop
      vertex 28.7865 -39.1183 5
      vertex 30.4635 -38.5734 5
      vertex 30 -37.5 5
    endloop
  endfacet
  facet normal 1 0 0
    outer loop
      vertex 28.7865 -40.8817 0
      vertex 28.7865 -39.1183 0
      vertex 28.7865 -40.8817 5
    endloop
  endfacet
  facet normal 0.309017 0.951057 0
    outer loop
      vertex 28.7865 -40.8817 0
      vertex 28.7865 -40.8817 5
      vertex 30.4635 -41.4266 0
    endloop
  endfacet
  facet normal -0 -0 -1
    outer loop
      vertex 28.7865 -40.8817 0
      vertex 30.4635 -41.4266 0
      vertex 35 -45 0
    endloop
  endfacet
  facet normal 1 -0 0
    outer loop
      vertex 28.7865 -40.8817 5
      vertex 28.7865 -39.1183 0
      vertex 28.7865 -39.1183 5
    endloop
  endfacet
  facet normal 0 0 1
    outer loop
      vertex 28.7865 -40.8817 5
      vertex 30 -42.5 5
      vertex 30.4635 -41.4266 5
    endloop
  endfacet
  facet normal 0.309017 0.951057 -0
    outer loop
      vertex 28.7865 -40.8817 5
      vertex 30.4635 -41.4266 5
      vertex 30.4635 -41.4266 0
    endloop
  endfacet
  facet normal 0.309017 0.951057 0
    outer loop
      vertex 28.7865 39.1183 0
      vertex 28.7865 39.1183 5
      vertex 30.4635 38.5734 0
    endloop
  endfacet
  facet normal 1 0 0
    outer loop
      vertex 28.7865 39.1183 0
      vertex 28.7865 40.8817 0
      vertex 28.7865 39.1183 5
    endloop
  endfacet
  facet normal 0 0 -1
    outer loop
      vertex 28.7865 39.1183 0
      vertex 30.4635 38.5734 0
      vertex 30.4635 -38.5734 0
    endloop
  endfacet
  facet normal 1 -0 0
    outer loop
      vertex 28.7865 39.1183 5
      vertex 28.7865 40.8817 0
      vertex 28.7865 40.8817 5
    endloop
  endfacet
  facet normal 0 0 1
    outer loop
      vertex 28.7865 39.1183 5
      vertex 30 37.5 5
      vertex 30.4635 38.5734 5
    endloop
  endfacet
  facet normal 0.309017 0.951057 -0
    outer loop
      vertex 28.7865 39.1183 5
      vertex 30.4635 38.5734 5
      vertex 30.4635 38.5734 0
    endloop
  endfacet
  facet normal 0.309017 -0.951057 0
    outer loop
      vertex 28.7865 40.8817 0
      vertex 30.4635 41.4266 0
      vertex 28.7865 40.8817 5
    endloop
  endfacet
  facet normal -0 0 -1
    outer loop
      vertex 28.7865 40.8817 0
      vertex 35 45 0
      vertex 30.4635 41.4266 0
    endloop
  endfacet
  facet normal 0.309017 -0.951057 0
    outer loop
      vertex 28.7865 40.8817 5
      vertex 30.4635 41.4266 0
      vertex 30.4635 41.4266 5
    endloop
  endfacet
  facet normal 0 0 1
    outer loop
      vertex 28.7865 40.8817 5
      vertex 30.4635 41.4266 5
      vertex 30 42.5 5
    endloop
  endfacet
  facet normal 0.382683 0.92388 0
    outer loop
      vertex 30 -37.5 2
      vertex 30 -37.5 5
      vertex 31.7678 -38.2322 2
    endloop
  endfacet
  facet normal 0 0 1
    outer loop
      vertex 30 -37.5 2
      vertex 31.7678 -38.2322 2
      vertex 30 37.5 2
    endloop
  endfacet
  facet normal 0 0 1
    outer loop
      vertex 30 -37.5 5
      vertex 30.4635 -38.5734 5
      vertex 31.7678 -38.2322 5
    endloop
  endfacet
  facet normal 0.382683 0.92388 0
    outer loop
      vertex 30 -37.5 5
      vertex 31.7678 -38.2322 5
      vertex 31.7678 -38.2322 2
    endloop
  endfacet
  facet normal 0.382683 -0.92388 0
    outer loop
      vertex 30 -42.5 2
      vertex 31.7678 -41.7678 2
      vertex 30 -42.5 5
    endloop
  endfacet
  facet normal -0 0 1
    outer loop
      vertex 30 -42.5 2
      vertex 35 -45 2
      vertex 31.7678 -41.7678 2
    endloop
  endfacet
  facet normal 0.382683 -0.92388 0
    outer loop
      vertex 30 -42.5 5
      vertex 31.7678 -41.7678 2
      vertex 31.7678 -41.7678 5
    endloop
  endfacet
  facet normal 0 0 1
    outer loop
      vertex 30 -42.5 5
      vertex 31.7678 -41.7678 5
      vertex 30.4635 -41.4266 5
    endloop
  endfacet
  facet normal 0 0 1
    outer loop
      vertex 30 37.5 2
      vertex 31.7678 -38.2322 2
      vertex 31.7678 38.2322 2
    endloop
  endfacet
  facet normal 0.382683 -0.92388 0
    outer loop
      vertex 30 37.5 2
      vertex 31.7678 38.2322 2
      vertex 30 37.5 5
    endloop
  endfacet
  facet normal 0.382683 -0.92388 0
    outer loop
      vertex 30 37.5 5
      vertex 31.7678 38.2322 2
      vertex 31.7678 38.2322 5
    endloop
  endfacet
  facet normal 0 0 1
    outer loop
      vertex 30 37.5 5
      vertex 31.7678 38.2322 5
      vertex 30.4635 38.5734 5
    endloop
  endfacet
  facet normal 0.382683 0.92388 0
    outer loop
      vertex 30 42.5 2
      vertex 30 42.5 5
      vertex 31.7678 41.7678 2
    endloop
  endfacet
  facet normal -0 0 1
    outer loop
      vertex 30 42.5 2
      vertex 31.7678 41.7678 2
      vertex 35 45 2
    endloop
  endfacet
  facet normal 0 0 1
    outer loop
      vertex 30 42.5 5
      vertex 30.4635 41.4266 5
      vertex 31.7678 41.7678 5
    endloop
  endfacet
  facet normal 0.382683 0.92388 0
    outer loop
      vertex 30 42.5 5
      vertex 31.7678 41.7678 5
      vertex 31.7678 41.7678 2
    endloop
  endfacet
  facet normal 0 0 -1
    outer loop
      vertex 30.4635 -38.5734 0
      vertex 30.4635 38.5734 0
      vertex 31.5 -40 0
    endloop
  endfacet
  facet normal -0.809017 -0.587785 0
    outer loop
      vertex 30.4635 -38.5734 0
      vertex 31.5 -40 0
      vertex 31.5 -40 5
    endloop
  endfacet
  facet normal -0.809017 -0.587785 -0
    outer loop
      vertex 30.4635 -38.5734 0
      vertex 31.5 -40 5
      vertex 30.4635 -38.5734 5
    endloop
  endfacet
  facet normal -0 0 1
    outer loop
      vertex 30.4635 -38.5734 5
      vertex 31.5 -40 5
      vertex 31.7678 -38.2322 5
    endloop
  endfacet
  facet normal -0.809017 0.587785 0
    outer loop
      vertex 30.4635 -41.4266 0
      vertex 30.4635 -41.4266 5
      vertex 31.5 -40 0
    endloop
  endfacet
  facet normal 0 -0 -1
    outer loop
      vertex 30.4635 -41.4266 0
      vertex 31.5 -40 0
      vertex 35 -45 0
    endloop
  endfacet
  facet normal -0.809017 0.587785 0
    outer loop
      vertex 30.4635 -41.4266 5
      vertex 31.5 -40 5
      vertex 31.5 -40 0
    endloop
  endfacet
  facet normal 0 0 1
    outer loop
      vertex 30.4635 -41.4266 5
      vertex 31.7678 -41.7678 5
      vertex 31.5 -40 5
    endloop
  endfacet
  facet normal -0.809017 0.587785 0
    outer loop
      vertex 30.4635 38.5734 0
      vertex 30.4635 38.5734 5
      vertex 31.5 40 0
    endloop
  endfacet
  facet normal 0 0 -1
    outer loop
      vertex 30.4635 38.5734 0
      vertex 31.5 40 0
      vertex 31.5 -40 0
    endloop
  endfacet
  facet normal -0.809017 0.587785 0
    outer loop
      vertex 30.4635 38.5734 5
      vertex 31.5 40 5
      vertex 31.5 40 0
    endloop
  endfacet
  facet normal 0 0 1
    outer loop
      vertex 30.4635 38.5734 5
      vertex 31.7678 38.2322 5
      vertex 31.5 40 5
    endloop
  endfacet
  facet normal -0.809017 -0.587785 0
    outer loop
      vertex 30.4635 41.4266 0
      vertex 31.5 40 0
      vertex 31.5 40 5
    endloop
  endfacet
  facet normal -0.809017 -0.587785 -0
    outer loop
      vertex 30.4635 41.4266 0
      vertex 31.5 40 5
      vertex 30.4635 41.4266 5
    endloop
  endfacet
  facet normal 0 0 -1
    outer loop
      vertex 30.4635 41.4266 0
      vertex 35 45 0
      vertex 31.5 40 0
    endloop
  endfacet
  facet normal -0 0 1
    outer loop
      vertex 30.4635 41.4266 5
      vertex 31.5 40 5
      vertex 31.7678 41.7678 5
    endloop
  endfacet
  facet normal 0 0 -1
    outer loop
      vertex 31.5 -40 0
      vertex 31.5 40 0
      vertex 35 -45 0
    endloop
  endfacet
  facet normal -0 0 1
    outer loop
      vertex 31.5 -40 5
      vertex 31.7678 -41.7678 5
      vertex 32.5 -40 5
    endloop
  endfacet
  facet normal 0 0 1
    outer loop
      vertex 31.5 -40 5
      vertex 32.5 -40 5
      vertex 31.7678 -38.2322 5
    endloop
  endfacet
  facet normal 0 0 -1
    outer loop
      vertex 31.5 40 0
      vertex 35 45 0
      vertex 35 -45 0
    endloop
  endfacet
  facet normal -0 0 1
    outer loop
      vertex 31.5 40 5
      vertex 31.7678 38.2322 5
      vertex 32.5 40 5
    endloop
  endfacet
  facet normal 0 0 1
    outer loop
      vertex 31.5 40 5
      vertex 32.5 40 5
      vertex 31.7678 41.7678 5
    endloop
  endfacet
  facet normal 0.92388 0.382683 0
    outer loop
      vertex 31.7678 -38.2322 2
      vertex 31.7678 -38.2322 5
      vertex 32.5 -40 5
    endloop
  endfacet
  facet normal -0 -0 1
    outer loop
      vertex 31.7678 -38.2322 2
      vertex 32.5 -40 2
      vertex 35 -45 2
    endloop
  endfacet
  facet normal 0.92388 0.382683 0
    outer loop
      vertex 31.7678 -38.2322 2
      vertex 32.5 -40 5
      vertex 32.5 -40 2
    endloop
  endfacet
  facet normal -0 0 1
    outer loop
      vertex 31.7678 -38.2322 2
      vertex 35 -45 2
      vertex 31.7678 38.2322 2
    endloop
  endfacet
  facet normal 0.92388 -0.382683 0
    outer loop
      vertex 31.7678 -41.7678 2
      vertex 32.5 -40 2
      vertex 31.7678 -41.7678 5
    endloop
  endfacet
  facet normal -0 0 1
    outer loop
      vertex 31.7678 -41.7678 2
      vertex 35 -45 2
      vertex 32.5 -40 2
    endloop
  endfacet
  facet normal 0.92388 -0.382683 0
    outer loop
      vertex 31.7678 -41.7678 5
      vertex 32.5 -40 2
      vertex 32.5 -40 5
    endloop
  endfacet
  facet normal 0.92388 -0.382683 0
    outer loop
      vertex 31.7678 38.2322 2
      vertex 32.5 40 2
      vertex 31.7678 38.2322 5
    endloop
  endfacet
  facet normal 0 -0 1
    outer loop
      vertex 31.7678 38.2322 2
      vertex 35 -45 2
      vertex 35 45 2
    endloop
  endfacet
  facet normal -0 0 1
    outer loop
      vertex 31.7678 38.2322 2
      vertex 35 45 2
      vertex 32.5 40 2
    endloop
  endfacet
  facet normal 0.92388 -0.382683 0
    outer loop
      vertex 31.7678 38.2322 5
      vertex 32.5 40 2
      vertex 32.5 40 5
    endloop
  endfacet
  facet normal 0.92388 0.382683 0
    outer loop
      vertex 31.7678 41.7678 2
      vertex 31.7678 41.7678 5
      vertex 32.5 40 5
    endloop
  endfacet
  facet normal 0 -0 1
    outer loop
      vertex 31.7678 41.7678 2
      vertex 32.5 40 2
      vertex 35 45 2
    endloop
  endfacet
  facet normal 0.92388 0.382683 0
    outer loop
      vertex 31.7678 41.7678 2
      vertex 32.5 40 5
      vertex 32.5 40 2
    endloop
  endfacet
  facet normal 1 0 0
    outer loop
      vertex 35 -45 0
      vertex 35 45 0
      vertex 35 -45 2
    endloop
  endfacet
  facet normal 1 0 -0
    outer loop
      vertex 35 -45 2
      vertex 35 45 0
      vertex 35 45 2
    endloop
  endfacet
endsolid model
