solid model
  facet normal 0.707107 -0.707107 0
    outer loop
      vertex -2 -0.571068 -0.5
      vertex 0.571068 2 -0.5
      vertex -2 -0.571068 0.5
    endloop
  endfacet
  facet normal 0.707107 -0.707107 0
    outer loop
      vertex -2 -0.571068 0.5
      vertex 0.571068 2 -0.5
      vertex 0.571068 2 0.5
    endloop
  endfacet
  facet normal 1 0 0
    outer loop
      vertex -2 -6 -0.5
      vertex -2 -0.571068 -0.5
      vertex -2 -6 0.5
    endloop
  endfacet
  facet normal 0 1 0
    outer loop
      vertex -2 -6 -0.5
      vertex -2 -6 0.5
      vertex 8 -6 -0.5
    endloop
  endfacet
  facet normal -0 -0 -1
    outer loop
      vertex -2 -6 -0.5
      vertex 8 -6 -0.5
      vertex 9 -7 -0.5
    endloop
  endfacet
  facet normal 1 -0 0
    outer loop
      vertex -2 -6 0.5
      vertex -2 -0.571068 -0.5
      vertex -2 -0.571068 0.5
    endloop
  endfacet
  facet normal 0 1 -0
    outer loop
      vertex -2 -6 0.5
      vertex 8 -6 0.5
      vertex 8 -6 -0.5
    endloop
  endfacet
  facet normal 0 0 1
    outer loop
      vertex -2 -6 0.5
      vertex 9 -7 0.5
      vertex 8 -6 0.5
    endloop
  endfacet
  facet normal 0 1 0
    outer loop
      vertex -4.27208 7 -0.5
      vertex -4.27208 7 0.5
      vertex 9 7 -0.5
    endloop
  endfacet
  facet normal 0 0 -1
    outer loop
      vertex -4.27208 7 -0.5
      vertex 0.571068 2 -0.5
      vertex -2 -0.571068 -0.5
    endloop
  endfacet
  facet normal 0 0 -1
    outer loop
      vertex -4.27208 7 -0.5
      vertex 9 7 -0.5
      vertex 0.571068 2 -0.5
    endloop
  endfacet
  facet normal 0 0 1
    outer loop
      vertex -4.27208 7 0.5
      vertex -2 -0.571068 0.5
      vertex 0.571068 2 0.5
    endloop
  endfacet
  facet normal 0 0 1
    outer loop
      vertex -4.27208 7 0.5
      vertex 0.571068 2 0.5
      vertex 9 7 0.5
    endloop
  endfacet
  facet normal -0 1 0
    outer loop
      vertex -4.27208 7 0.5
      vertex 9 7 0.5
      vertex 9 7 -0.5
    endloop
  endfacet
  facet normal 0 -0 -1
    outer loop
      vertex -9 -7 -0.5
      vertex -2 -0.571068 -0.5
      vertex -2 -6 -0.5
    endloop
  endfacet
  facet normal 0 -0 -1
    outer loop
      vertex -9 -7 -0.5
      vertex -2 -6 -0.5
      vertex 9 -7 -0.5
    endloop
  endfacet
  facet normal -1 0 0
    outer loop
      vertex -9 -7 -0.5
      vertex -9 -7 0.5
      vertex -9 2.27208 -0.5
    endloop
  endfacet
  facet normal 0 0 -1
    outer loop
      vertex -9 -7 -0.5
      vertex -9 2.27208 -0.5
      vertex -2 -0.571068 -0.5
    endloop
  endfacet
  facet normal 0 -1 0
    outer loop
      vertex -9 -7 -0.5
      vertex 9 -7 -0.5
      vertex -9 -7 0.5
    endloop
  endfacet
  facet normal 0 0 1
    outer loop
      vertex -9 -7 0.5
      vertex -2 -0.571068 0.5
      vertex -9 2.27208 0.5
    endloop
  endfacet
  facet normal 0 0 1
    outer loop
      vertex -9 -7 0.5
      vertex -2 -6 0.5
      vertex -2 -0.571068 0.5
    endloop
  endfacet
  facet normal -1 0 0
    outer loop
      vertex -9 -7 0.5
      vertex -9 2.27208 0.5
      vertex -9 2.27208 -0.5
    endloop
  endfacet
  facet normal 0 -1 0
    outer loop
      vertex -9 -7 0.5
      vertex 9 -7 -0.5
      vertex 9 -7 0.5
    endloop
  endfacet
  facet normal 0 0 1
    outer loop
      vertex -9 -7 0.5
      vertex 9 -7 0.5
      vertex -2 -6 0.5
    endloop
  endfacet
  facet normal 0 0 -1
    outer loop
      vertex -9 2.27208 -0.5
      vertex -4.27208 7 -0.5
      vertex -2 -0.571068 -0.5
    endloop
  endfacet
  facet normal -0.707107 0.707107 0
    outer loop
      vertex -9 2.27208 -0.5
      vertex -9 2.27208 0.5
      vertex -4.27208 7 -0.5
    endloop
  endfacet
  facet normal 0 0 1
    outer loop
      vertex -9 2.27208 0.5
      vertex -2 -0.571068 0.5
      vertex -4.27208 7 0.5
    endloop
  endfacet
  facet normal -0.707107 0.707107 0
    outer loop
      vertex -9 2.27208 0.5
      vertex -4.27208 7 0.5
      vertex -4.27208 7 -0.5
    endloop
  endfacet
  facet normal 0 -1 0
    outer loop
      vertex 0.571068 2 -0.5
      vertex 8 2 -0.5
      vertex 0.571068 2 0.5
    endloop
  endfacet
  facet normal 0 0 -1
    outer loop
      vertex 0.571068 2 -0.5
      vertex 9 7 -0.5
      vertex 8 2 -0.5
    endloop
  endfacet
  facet normal 0 -1 0
    outer loop
      vertex 0.571068 2 0.5
      vertex 8 2 -0.5
      vertex 8 2 0.5
    endloop
  endfacet
  facet normal 0 0 1
    outer loop
      vertex 0.571068 2 0.5
      vertex 8 2 0.5
      vertex 9 7 0.5
    endloop
  endfacet
  facet normal -1 0 0
    outer loop
      vertex 8 -6 -0.5
      vertex 8 -6 0.5
      vertex 8 2 -0.5
    endloop
  endfacet
  facet normal 0 0 -1
    outer loop
      vertex 8 -6 -0.5
      vertex 8 2 -0.5
      vertex 9 -7 -0.5
    endloop
  endfacet
  facet normal -1 0 0
    outer loop
      vertex 8 -6 0.5
      vertex 8 2 0.5
      vertex 8 2 -0.5
    endloop
  endfacet
  facet normal 0 0 1
    outer loop
      vertex 8 -6 0.5
      vertex 9 -7 0.5
      vertex 8 2 0.5
    endloop
  endfacet
  facet normal 0 0 -1
    outer loop
      vertex 8 2 -0.5
      vertex 9 7 -0.5
      vertex 9 -7 -0.5
    endloop
  endfacet
  facet normal 0 0 1
    outer loop
      vertex 8 2 0.5
      vertex 9 -7 0.5
      vertex 9 7 0.5
    endloop
  endfacet
  facet normal 1 0 0
    outer loop
      vertex 9 -7 -0.5
      vertex 9 7 -0.5
      vertex 9 -7 0.5
    endloop
  endfacet
  facet normal 1 0 -0
    outer loop
      vertex 9 -7 0.5
      vertex 9 7 -0.5
      vertex 9 7 0.5
    endloop
  endfacet
endsolid model
