solid OpenSCAD_Model
  facet normal -1 0 0
    outer loop
      vertex -20 8.36777 1.80194
      vertex -20 0 5
      vertex -20 30 -5
    endloop
  endfacet
  facet normal -1 0 0
    outer loop
      vertex -20 21.6322 1.80194
      vertex -20 0 5
      vertex -20 30 5
    endloop
  endfacet
  facet normal -1 0 0
    outer loop
      vertex -20 0 -5
      vertex -20 0 5
      vertex -20 5.55014 0.445042
    endloop
  endfacet
  facet normal -1 0 0
    outer loop
      vertex -20 0 -5
      vertex -20 5.55014 0.445042
      vertex -20 5.93634 -1.24698
    endloop
  endfacet
  facet normal -1 0 0
    outer loop
      vertex -20 0 -5
      vertex -20 5.93634 -1.24698
      vertex -20 7.5 -2
    endloop
  endfacet
  facet normal -1 0 0
    outer loop
      vertex -20 0 -5
      vertex -20 7.5 -2
      vertex -20 30 -5
    endloop
  endfacet
  facet normal -1 0 0
    outer loop
      vertex -20 9.44986 0.445042
      vertex -20 30 -5
      vertex -20 9.06366 -1.24698
    endloop
  endfacet
  facet normal -1 0 0
    outer loop
      vertex -20 24.0637 -1.24698
      vertex -20 30 -5
      vertex -20 22.5 -2
    endloop
  endfacet
  facet normal -1 0 0
    outer loop
      vertex -20 6.63223 1.80194
      vertex -20 0 5
      vertex -20 8.36777 1.80194
    endloop
  endfacet
  facet normal -1 0 0
    outer loop
      vertex -20 9.44986 0.445042
      vertex -20 8.36777 1.80194
      vertex -20 30 -5
    endloop
  endfacet
  facet normal -1 0 0
    outer loop
      vertex -20 5.55014 0.445042
      vertex -20 0 5
      vertex -20 6.63223 1.80194
    endloop
  endfacet
  facet normal -1 0 0
    outer loop
      vertex -20 20.9363 -1.24698
      vertex -20 0 5
      vertex -20 20.5501 0.445042
    endloop
  endfacet
  facet normal -1 0 0
    outer loop
      vertex -20 22.5 -2
      vertex -20 0 5
      vertex -20 20.9363 -1.24698
    endloop
  endfacet
  facet normal -1 0 0
    outer loop
      vertex -20 30 -5
      vertex -20 0 5
      vertex -20 22.5 -2
    endloop
  endfacet
  facet normal -1 0 0
    outer loop
      vertex -20 21.6322 1.80194
      vertex -20 30 5
      vertex -20 23.3678 1.80194
    endloop
  endfacet
  facet normal -1 0 0
    outer loop
      vertex -20 30 -5
      vertex -20 24.0637 -1.24698
      vertex -20 30 5
    endloop
  endfacet
  facet normal -1 0 0
    outer loop
      vertex -20 24.0637 -1.24698
      vertex -20 24.4499 0.445042
      vertex -20 30 5
    endloop
  endfacet
  facet normal -1 0 0
    outer loop
      vertex -20 24.4499 0.445042
      vertex -20 23.3678 1.80194
      vertex -20 30 5
    endloop
  endfacet
  facet normal -1 0 0
    outer loop
      vertex -20 20.5501 0.445042
      vertex -20 0 5
      vertex -20 21.6322 1.80194
    endloop
  endfacet
  facet normal -1 0 0
    outer loop
      vertex -20 9.06366 -1.24698
      vertex -20 30 -5
      vertex -20 7.5 -2
    endloop
  endfacet
  facet normal -0.994522 -0.104528 0
    outer loop
      vertex -20 0 -5
      vertex -19.563 -4.15823 -5
      vertex -20 0 5
    endloop
  endfacet
  facet normal -0.994522 -0.104528 0
    outer loop
      vertex -20 0 5
      vertex -19.563 -4.15823 -5
      vertex -19.563 -4.15823 5
    endloop
  endfacet
  facet normal 0 0 -1
    outer loop
      vertex -20 0 -5
      vertex -20 30 -5
      vertex -19.563 -4.15823 -5
    endloop
  endfacet
  facet normal 0 0 -1
    outer loop
      vertex -10 27.3205 -5
      vertex -20 30 -5
      vertex 5 73.3013 -5
    endloop
  endfacet
  facet normal 0 0 -1
    outer loop
      vertex -19.563 -4.15823 -5
      vertex -20 30 -5
      vertex -10 27.3205 -5
    endloop
  endfacet
  facet normal 0 0 -1
    outer loop
      vertex -10 0 -5
      vertex -19.563 -4.15823 -5
      vertex -10 27.3205 -5
    endloop
  endfacet
  facet normal 0 0 -1
    outer loop
      vertex -19.563 -4.15823 -5
      vertex -10 0 -5
      vertex -9.78148 -2.07912 -5
    endloop
  endfacet
  facet normal 0 0 -1
    outer loop
      vertex -9.78148 -2.07912 -5
      vertex -9.13546 -4.06737 -5
      vertex -19.563 -4.15823 -5
    endloop
  endfacet
  facet normal 0 0 -1
    outer loop
      vertex -9.13546 -4.06737 -5
      vertex -8.09017 -5.87785 -5
      vertex -19.563 -4.15823 -5
    endloop
  endfacet
  facet normal 0 0 -1
    outer loop
      vertex -8.09017 -5.87785 -5
      vertex -6.69131 -7.43145 -5
      vertex -19.563 -4.15823 -5
    endloop
  endfacet
  facet normal 0 0 -1
    outer loop
      vertex -6.69131 -7.43145 -5
      vertex -5 -8.66025 -5
      vertex -19.563 -4.15823 -5
    endloop
  endfacet
  facet normal 0 0 -1
    outer loop
      vertex -5 -8.66025 -5
      vertex -3.09017 -9.51056 -5
      vertex -19.563 -4.15823 -5
    endloop
  endfacet
  facet normal 0 0 -1
    outer loop
      vertex -3.09017 -9.51056 -5
      vertex 13.3826 -14.8629 -5
      vertex -19.563 -4.15823 -5
    endloop
  endfacet
  facet normal 0 0 -1
    outer loop
      vertex 6.69131 -7.43145 -5
      vertex 20 0 -5
      vertex 5 -8.66025 -5
    endloop
  endfacet
  facet normal 0 0 -1
    outer loop
      vertex 8.09017 -5.87785 -5
      vertex 20 0 -5
      vertex 6.69131 -7.43145 -5
    endloop
  endfacet
  facet normal 0 0 -1
    outer loop
      vertex 9.13546 -4.06737 -5
      vertex 20 0 -5
      vertex 8.09017 -5.87785 -5
    endloop
  endfacet
  facet normal 0 0 -1
    outer loop
      vertex 9.78148 -2.07912 -5
      vertex 10 0 -5
      vertex 20 0 -5
    endloop
  endfacet
  facet normal 0 0 -1
    outer loop
      vertex 9.78148 -2.07912 -5
      vertex 20 0 -5
      vertex 9.13546 -4.06737 -5
    endloop
  endfacet
  facet normal 0 0 -1
    outer loop
      vertex 5 -8.66025 -5
      vertex 20 0 -5
      vertex 19.563 -4.15823 -5
    endloop
  endfacet
  facet normal 0 0 -1
    outer loop
      vertex 5 -8.66025 -5
      vertex 19.563 -4.15823 -5
      vertex 3.09017 -9.51056 -5
    endloop
  endfacet
  facet normal 0 0 -1
    outer loop
      vertex 3.09017 -9.51056 -5
      vertex 19.563 -4.15823 -5
      vertex 18.2709 -8.13473 -5
    endloop
  endfacet
  facet normal 0 0 -1
    outer loop
      vertex 3.09017 -9.51056 -5
      vertex 18.2709 -8.13473 -5
      vertex 1.04529 -9.94522 -5
    endloop
  endfacet
  facet normal 0 0 -1
    outer loop
      vertex 1.04529 -9.94522 -5
      vertex 18.2709 -8.13473 -5
      vertex 16.1803 -11.7557 -5
    endloop
  endfacet
  facet normal 0 0 -1
    outer loop
      vertex 1.04529 -9.94522 -5
      vertex 16.1803 -11.7557 -5
      vertex -1.04529 -9.94522 -5
    endloop
  endfacet
  facet normal 0 0 -1
    outer loop
      vertex -1.04529 -9.94522 -5
      vertex 16.1803 -11.7557 -5
      vertex 13.3826 -14.8629 -5
    endloop
  endfacet
  facet normal 0 0 -1
    outer loop
      vertex -1.04529 -9.94522 -5
      vertex 13.3826 -14.8629 -5
      vertex -3.09017 -9.51056 -5
    endloop
  endfacet
  facet normal 0 0 -1
    outer loop
      vertex -19.563 -4.15823 -5
      vertex 13.3826 -14.8629 -5
      vertex 10 -17.3205 -5
    endloop
  endfacet
  facet normal 0 0 -1
    outer loop
      vertex -19.563 -4.15823 -5
      vertex 10 -17.3205 -5
      vertex 6.18034 -19.0211 -5
    endloop
  endfacet
  facet normal 0 0 -1
    outer loop
      vertex -19.563 -4.15823 -5
      vertex 6.18034 -19.0211 -5
      vertex 2.09057 -19.8904 -5
    endloop
  endfacet
  facet normal 0 0 -1
    outer loop
      vertex -19.563 -4.15823 -5
      vertex 2.09057 -19.8904 -5
      vertex -2.09057 -19.8904 -5
    endloop
  endfacet
  facet normal 0 0 -1
    outer loop
      vertex -19.563 -4.15823 -5
      vertex -2.09057 -19.8904 -5
      vertex -6.18034 -19.0211 -5
    endloop
  endfacet
  facet normal 0 0 -1
    outer loop
      vertex -19.563 -4.15823 -5
      vertex -6.18034 -19.0211 -5
      vertex -10 -17.3205 -5
    endloop
  endfacet
  facet normal 0 0 -1
    outer loop
      vertex -19.563 -4.15823 -5
      vertex -10 -17.3205 -5
      vertex -13.3826 -14.8629 -5
    endloop
  endfacet
  facet normal 0 0 -1
    outer loop
      vertex -19.563 -4.15823 -5
      vertex -13.3826 -14.8629 -5
      vertex -16.1803 -11.7557 -5
    endloop
  endfacet
  facet normal 0 0 -1
    outer loop
      vertex -19.563 -4.15823 -5
      vertex -16.1803 -11.7557 -5
      vertex -18.2709 -8.13473 -5
    endloop
  endfacet
  facet normal 0 0 -1
    outer loop
      vertex -10 27.3205 -5
      vertex 5 73.3013 -5
      vertex 13.6603 68.3013 -5
    endloop
  endfacet
  facet normal -0.866025 0.5 0
    outer loop
      vertex -20 30 -5
      vertex -20 30 5
      vertex 5 73.3013 -5
    endloop
  endfacet
  facet normal -0.866025 0.5 0
    outer loop
      vertex 5 73.3013 -5
      vertex -20 30 5
      vertex 5 73.3013 5
    endloop
  endfacet
  facet normal 0 0 1
    outer loop
      vertex -20 30 5
      vertex -20 0 5
      vertex -19.563 -4.15823 5
    endloop
  endfacet
  facet normal 0 0 1
    outer loop
      vertex -16.1803 -11.7557 5
      vertex -20 30 5
      vertex -18.2709 -8.13473 5
    endloop
  endfacet
  facet normal 0 0 1
    outer loop
      vertex -18.2709 -8.13473 5
      vertex -20 30 5
      vertex -19.563 -4.15823 5
    endloop
  endfacet
  facet normal 0 0 1
    outer loop
      vertex -13.3826 -14.8629 5
      vertex -20 30 5
      vertex -16.1803 -11.7557 5
    endloop
  endfacet
  facet normal 0 0 1
    outer loop
      vertex -10 -17.3205 5
      vertex -20 30 5
      vertex -13.3826 -14.8629 5
    endloop
  endfacet
  facet normal 0 0 1
    outer loop
      vertex -6.18034 -19.0211 5
      vertex -20 30 5
      vertex -10 -17.3205 5
    endloop
  endfacet
  facet normal 0 0 1
    outer loop
      vertex -9.78148 -2.07912 5
      vertex -20 30 5
      vertex -6.18034 -19.0211 5
    endloop
  endfacet
  facet normal 0 0 1
    outer loop
      vertex -5 -8.66025 5
      vertex -6.69131 -7.43145 5
      vertex -2.09057 -19.8904 5
    endloop
  endfacet
  facet normal 0 0 1
    outer loop
      vertex -1.04529 -9.94522 5
      vertex -3.09017 -9.51056 5
      vertex 2.09057 -19.8904 5
    endloop
  endfacet
  facet normal 0 0 1
    outer loop
      vertex 3.09017 -9.51056 5
      vertex 1.04529 -9.94522 5
      vertex 6.18034 -19.0211 5
    endloop
  endfacet
  facet normal 0 0 1
    outer loop
      vertex 5 -8.66025 5
      vertex 3.09017 -9.51056 5
      vertex 10 -17.3205 5
    endloop
  endfacet
  facet normal 0 0 1
    outer loop
      vertex 8.09017 -5.87785 5
      vertex 6.69131 -7.43145 5
      vertex 13.3826 -14.8629 5
    endloop
  endfacet
  facet normal 0 0 1
    outer loop
      vertex 9.78148 -2.07912 5
      vertex 9.13546 -4.06737 5
      vertex 16.1803 -11.7557 5
    endloop
  endfacet
  facet normal 0 0 1
    outer loop
      vertex -9.78148 -2.07912 5
      vertex -10 0 5
      vertex -20 30 5
    endloop
  endfacet
  facet normal 0 0 1
    outer loop
      vertex 18.2709 -8.13473 5
      vertex 10 0 5
      vertex 16.1803 -11.7557 5
    endloop
  endfacet
  facet normal 0 0 1
    outer loop
      vertex 10 0 5
      vertex 9.78148 -2.07912 5
      vertex 16.1803 -11.7557 5
    endloop
  endfacet
  facet normal 0 0 1
    outer loop
      vertex 16.1803 -11.7557 5
      vertex 9.13546 -4.06737 5
      vertex 13.3826 -14.8629 5
    endloop
  endfacet
  facet normal 0 0 1
    outer loop
      vertex 9.13546 -4.06737 5
      vertex 8.09017 -5.87785 5
      vertex 13.3826 -14.8629 5
    endloop
  endfacet
  facet normal 0 0 1
    outer loop
      vertex 13.3826 -14.8629 5
      vertex 6.69131 -7.43145 5
      vertex 10 -17.3205 5
    endloop
  endfacet
  facet normal 0 0 1
    outer loop
      vertex 6.69131 -7.43145 5
      vertex 5 -8.66025 5
      vertex 10 -17.3205 5
    endloop
  endfacet
  facet normal 0 0 1
    outer loop
      vertex 10 -17.3205 5
      vertex 3.09017 -9.51056 5
      vertex 6.18034 -19.0211 5
    endloop
  endfacet
  facet normal 0 0 1
    outer loop
      vertex 6.18034 -19.0211 5
      vertex 1.04529 -9.94522 5
      vertex 2.09057 -19.8904 5
    endloop
  endfacet
  facet normal 0 0 1
    outer loop
      vertex 1.04529 -9.94522 5
      vertex -1.04529 -9.94522 5
      vertex 2.09057 -19.8904 5
    endloop
  endfacet
  facet normal 0 0 1
    outer loop
      vertex 2.09057 -19.8904 5
      vertex -3.09017 -9.51056 5
      vertex -2.09057 -19.8904 5
    endloop
  endfacet
  facet normal 0 0 1
    outer loop
      vertex -3.09017 -9.51056 5
      vertex -5 -8.66025 5
      vertex -2.09057 -19.8904 5
    endloop
  endfacet
  facet normal 0 0 1
    outer loop
      vertex -2.09057 -19.8904 5
      vertex -6.69131 -7.43145 5
      vertex -6.18034 -19.0211 5
    endloop
  endfacet
  facet normal 0 0 1
    outer loop
      vertex -6.69131 -7.43145 5
      vertex -8.09017 -5.87785 5
      vertex -6.18034 -19.0211 5
    endloop
  endfacet
  facet normal 0 0 1
    outer loop
      vertex -8.09017 -5.87785 5
      vertex -9.13546 -4.06737 5
      vertex -6.18034 -19.0211 5
    endloop
  endfacet
  facet normal 0 0 1
    outer loop
      vertex -9.13546 -4.06737 5
      vertex -9.78148 -2.07912 5
      vertex -6.18034 -19.0211 5
    endloop
  endfacet
  facet normal 0 0 1
    outer loop
      vertex 13.6603 68.3013 5
      vertex -20 30 5
      vertex -10 27.3205 5
    endloop
  endfacet
  facet normal 0 0 1
    outer loop
      vertex 5 73.3013 5
      vertex -20 30 5
      vertex 13.6603 68.3013 5
    endloop
  endfacet
  facet normal 0 0 1
    outer loop
      vertex 20 0 5
      vertex 18.2709 -8.13473 5
      vertex 19.563 -4.15823 5
    endloop
  endfacet
  facet normal 0 0 1
    outer loop
      vertex 20 0 5
      vertex 10 0 5
      vertex 18.2709 -8.13473 5
    endloop
  endfacet
  facet normal 0 0 1
    outer loop
      vertex -10 0 5
      vertex -10 27.3205 5
      vertex -20 30 5
    endloop
  endfacet
  facet normal -4.94096e-17 0.974928 0.222521
    outer loop
      vertex -10 5.93634 -1.24698
      vertex -20 5.93634 -1.24698
      vertex -10 5.55014 0.445042
    endloop
  endfacet
  facet normal -4.94096e-17 0.974928 0.222521
    outer loop
      vertex -10 5.55014 0.445042
      vertex -20 5.93634 -1.24698
      vertex -20 5.55014 0.445042
    endloop
  endfacet
  facet normal 1.38443e-16 0.781831 -0.62349
    outer loop
      vertex -10 6.63223 1.80194
      vertex -10 5.55014 0.445042
      vertex -20 6.63223 1.80194
    endloop
  endfacet
  facet normal 1.38443e-16 0.781831 -0.62349
    outer loop
      vertex -20 6.63223 1.80194
      vertex -10 5.55014 0.445042
      vertex -20 5.55014 0.445042
    endloop
  endfacet
  facet normal 2.22045e-16 0 -1
    outer loop
      vertex -10 8.36777 1.80194
      vertex -10 6.63223 1.80194
      vertex -20 8.36777 1.80194
    endloop
  endfacet
  facet normal 2.22045e-16 0 -1
    outer loop
      vertex -20 8.36777 1.80194
      vertex -10 6.63223 1.80194
      vertex -20 6.63223 1.80194
    endloop
  endfacet
  facet normal 1.38443e-16 -0.781831 -0.62349
    outer loop
      vertex -20 9.44986 0.445042
      vertex -10 9.44986 0.445042
      vertex -10 8.36777 1.80194
    endloop
  endfacet
  facet normal 1.38443e-16 -0.781831 -0.62349
    outer loop
      vertex -20 8.36777 1.80194
      vertex -20 9.44986 0.445042
      vertex -10 8.36777 1.80194
    endloop
  endfacet
  facet normal -4.94096e-17 -0.974928 0.222521
    outer loop
      vertex -10 9.06366 -1.24698
      vertex -10 9.44986 0.445042
      vertex -20 9.44986 0.445042
    endloop
  endfacet
  facet normal -4.94096e-17 -0.974928 0.222521
    outer loop
      vertex -20 9.06366 -1.24698
      vertex -10 9.06366 -1.24698
      vertex -20 9.44986 0.445042
    endloop
  endfacet
  facet normal -2.00055e-16 -0.433884 0.900969
    outer loop
      vertex -10 7.5 -2
      vertex -10 9.06366 -1.24698
      vertex -20 9.06366 -1.24698
    endloop
  endfacet
  facet normal -2.00055e-16 -0.433884 0.900969
    outer loop
      vertex -20 7.5 -2
      vertex -10 7.5 -2
      vertex -20 9.06366 -1.24698
    endloop
  endfacet
  facet normal -2.00055e-16 0.433884 0.900969
    outer loop
      vertex -10 5.93634 -1.24698
      vertex -10 7.5 -2
      vertex -20 7.5 -2
    endloop
  endfacet
  facet normal -2.00055e-16 0.433884 0.900969
    outer loop
      vertex -20 5.93634 -1.24698
      vertex -10 5.93634 -1.24698
      vertex -20 7.5 -2
    endloop
  endfacet
  facet normal -4.94096e-17 0.974928 0.222521
    outer loop
      vertex -10 20.9363 -1.24698
      vertex -20 20.9363 -1.24698
      vertex -10 20.5501 0.445042
    endloop
  endfacet
  facet normal -4.94096e-17 0.974928 0.222521
    outer loop
      vertex -10 20.5501 0.445042
      vertex -20 20.9363 -1.24698
      vertex -20 20.5501 0.445042
    endloop
  endfacet
  facet normal 1.38443e-16 0.781831 -0.62349
    outer loop
      vertex -10 21.6322 1.80194
      vertex -10 20.5501 0.445042
      vertex -20 21.6322 1.80194
    endloop
  endfacet
  facet normal 1.38443e-16 0.781831 -0.62349
    outer loop
      vertex -20 21.6322 1.80194
      vertex -10 20.5501 0.445042
      vertex -20 20.5501 0.445042
    endloop
  endfacet
  facet normal 2.22045e-16 0 -1
    outer loop
      vertex -10 23.3678 1.80194
      vertex -10 21.6322 1.80194
      vertex -20 23.3678 1.80194
    endloop
  endfacet
  facet normal 2.22045e-16 0 -1
    outer loop
      vertex -20 23.3678 1.80194
      vertex -10 21.6322 1.80194
      vertex -20 21.6322 1.80194
    endloop
  endfacet
  facet normal 1.38443e-16 -0.781831 -0.62349
    outer loop
      vertex -20 24.4499 0.445042
      vertex -10 24.4499 0.445042
      vertex -10 23.3678 1.80194
    endloop
  endfacet
  facet normal 1.38443e-16 -0.781831 -0.62349
    outer loop
      vertex -20 23.3678 1.80194
      vertex -20 24.4499 0.445042
      vertex -10 23.3678 1.80194
    endloop
  endfacet
  facet normal -4.94096e-17 -0.974928 0.222521
    outer loop
      vertex -10 24.0637 -1.24698
      vertex -10 24.4499 0.445042
      vertex -20 24.4499 0.445042
    endloop
  endfacet
  facet normal -4.94096e-17 -0.974928 0.222521
    outer loop
      vertex -20 24.0637 -1.24698
      vertex -10 24.0637 -1.24698
      vertex -20 24.4499 0.445042
    endloop
  endfacet
  facet normal -2.00055e-16 -0.433884 0.900969
    outer loop
      vertex -10 22.5 -2
      vertex -10 24.0637 -1.24698
      vertex -20 24.0637 -1.24698
    endloop
  endfacet
  facet normal -2.00055e-16 -0.433884 0.900969
    outer loop
      vertex -20 22.5 -2
      vertex -10 22.5 -2
      vertex -20 24.0637 -1.24698
    endloop
  endfacet
  facet normal -2.00055e-16 0.433884 0.900969
    outer loop
      vertex -10 20.9363 -1.24698
      vertex -10 22.5 -2
      vertex -20 22.5 -2
    endloop
  endfacet
  facet normal -2.00055e-16 0.433884 0.900969
    outer loop
      vertex -20 20.9363 -1.24698
      vertex -10 20.9363 -1.24698
      vertex -20 22.5 -2
    endloop
  endfacet
  facet normal -0.951057 -0.309017 0
    outer loop
      vertex -19.563 -4.15823 -5
      vertex -18.2709 -8.13473 -5
      vertex -19.563 -4.15823 5
    endloop
  endfacet
  facet normal -0.951057 -0.309017 0
    outer loop
      vertex -19.563 -4.15823 5
      vertex -18.2709 -8.13473 -5
      vertex -18.2709 -8.13473 5
    endloop
  endfacet
  facet normal -0.866025 -0.5 0
    outer loop
      vertex -18.2709 -8.13473 -5
      vertex -16.1803 -11.7557 -5
      vertex -18.2709 -8.13473 5
    endloop
  endfacet
  facet normal -0.866025 -0.5 0
    outer loop
      vertex -18.2709 -8.13473 5
      vertex -16.1803 -11.7557 -5
      vertex -16.1803 -11.7557 5
    endloop
  endfacet
  facet normal -0.743145 -0.669131 0
    outer loop
      vertex -16.1803 -11.7557 -5
      vertex -13.3826 -14.8629 -5
      vertex -16.1803 -11.7557 5
    endloop
  endfacet
  facet normal -0.743145 -0.669131 0
    outer loop
      vertex -16.1803 -11.7557 5
      vertex -13.3826 -14.8629 -5
      vertex -13.3826 -14.8629 5
    endloop
  endfacet
  facet normal -0.587785 -0.809017 0
    outer loop
      vertex -13.3826 -14.8629 5
      vertex -13.3826 -14.8629 -5
      vertex -10 -17.3205 -5
    endloop
  endfacet
  facet normal -0.587785 -0.809017 0
    outer loop
      vertex -10 -17.3205 5
      vertex -13.3826 -14.8629 5
      vertex -10 -17.3205 -5
    endloop
  endfacet
  facet normal -0.406737 -0.913545 0
    outer loop
      vertex -10 -17.3205 5
      vertex -10 -17.3205 -5
      vertex -6.18034 -19.0211 -5
    endloop
  endfacet
  facet normal -0.406737 -0.913545 0
    outer loop
      vertex -6.18034 -19.0211 5
      vertex -10 -17.3205 5
      vertex -6.18034 -19.0211 -5
    endloop
  endfacet
  facet normal -0.207912 -0.978148 0
    outer loop
      vertex -6.18034 -19.0211 5
      vertex -6.18034 -19.0211 -5
      vertex -2.09057 -19.8904 -5
    endloop
  endfacet
  facet normal -0.207912 -0.978148 0
    outer loop
      vertex -2.09057 -19.8904 5
      vertex -6.18034 -19.0211 5
      vertex -2.09057 -19.8904 -5
    endloop
  endfacet
  facet normal 0 -1 0
    outer loop
      vertex -2.09057 -19.8904 5
      vertex -2.09057 -19.8904 -5
      vertex 2.09057 -19.8904 -5
    endloop
  endfacet
  facet normal 0 -1 0
    outer loop
      vertex 2.09057 -19.8904 5
      vertex -2.09057 -19.8904 5
      vertex 2.09057 -19.8904 -5
    endloop
  endfacet
  facet normal 0.207912 -0.978148 0
    outer loop
      vertex 2.09057 -19.8904 5
      vertex 2.09057 -19.8904 -5
      vertex 6.18034 -19.0211 -5
    endloop
  endfacet
  facet normal 0.207912 -0.978148 0
    outer loop
      vertex 6.18034 -19.0211 5
      vertex 2.09057 -19.8904 5
      vertex 6.18034 -19.0211 -5
    endloop
  endfacet
  facet normal 0.406737 -0.913545 0
    outer loop
      vertex 6.18034 -19.0211 5
      vertex 6.18034 -19.0211 -5
      vertex 10 -17.3205 -5
    endloop
  endfacet
  facet normal 0.406737 -0.913545 0
    outer loop
      vertex 10 -17.3205 5
      vertex 6.18034 -19.0211 5
      vertex 10 -17.3205 -5
    endloop
  endfacet
  facet normal 0.587785 -0.809017 0
    outer loop
      vertex 10 -17.3205 5
      vertex 10 -17.3205 -5
      vertex 13.3826 -14.8629 -5
    endloop
  endfacet
  facet normal 0.587785 -0.809017 0
    outer loop
      vertex 13.3826 -14.8629 5
      vertex 10 -17.3205 5
      vertex 13.3826 -14.8629 -5
    endloop
  endfacet
  facet normal 0.743145 -0.669131 0
    outer loop
      vertex 13.3826 -14.8629 5
      vertex 13.3826 -14.8629 -5
      vertex 16.1803 -11.7557 -5
    endloop
  endfacet
  facet normal 0.743145 -0.669131 0
    outer loop
      vertex 16.1803 -11.7557 5
      vertex 13.3826 -14.8629 5
      vertex 16.1803 -11.7557 -5
    endloop
  endfacet
  facet normal 0.866025 -0.5 0
    outer loop
      vertex 16.1803 -11.7557 5
      vertex 16.1803 -11.7557 -5
      vertex 18.2709 -8.13473 -5
    endloop
  endfacet
  facet normal 0.866025 -0.5 0
    outer loop
      vertex 18.2709 -8.13473 5
      vertex 16.1803 -11.7557 5
      vertex 18.2709 -8.13473 -5
    endloop
  endfacet
  facet normal 0.951057 -0.309017 0
    outer loop
      vertex 18.2709 -8.13473 5
      vertex 18.2709 -8.13473 -5
      vertex 19.563 -4.15823 -5
    endloop
  endfacet
  facet normal 0.951057 -0.309017 0
    outer loop
      vertex 19.563 -4.15823 5
      vertex 18.2709 -8.13473 5
      vertex 19.563 -4.15823 -5
    endloop
  endfacet
  facet normal 0.994522 -0.104528 0
    outer loop
      vertex 19.563 -4.15823 5
      vertex 19.563 -4.15823 -5
      vertex 20 0 -5
    endloop
  endfacet
  facet normal 0.994522 -0.104528 0
    outer loop
      vertex 20 0 5
      vertex 19.563 -4.15823 5
      vertex 20 0 -5
    endloop
  endfacet
  facet normal 0 1 0
    outer loop
      vertex 20 0 5
      vertex 20 0 -5
      vertex 10 0 5
    endloop
  endfacet
  facet normal 0 1 0
    outer loop
      vertex 10 0 5
      vertex 20 0 -5
      vertex 10 0 -5
    endloop
  endfacet
  facet normal -0.994522 0.104528 0
    outer loop
      vertex 10 0 5
      vertex 10 0 -5
      vertex 9.78148 -2.07912 5
    endloop
  endfacet
  facet normal -0.994522 0.104528 0
    outer loop
      vertex 9.78148 -2.07912 5
      vertex 10 0 -5
      vertex 9.78148 -2.07912 -5
    endloop
  endfacet
  facet normal -0.951057 0.309017 0
    outer loop
      vertex 9.78148 -2.07912 5
      vertex 9.78148 -2.07912 -5
      vertex 9.13546 -4.06737 5
    endloop
  endfacet
  facet normal -0.951057 0.309017 0
    outer loop
      vertex 9.13546 -4.06737 5
      vertex 9.78148 -2.07912 -5
      vertex 9.13546 -4.06737 -5
    endloop
  endfacet
  facet normal -0.866025 0.5 0
    outer loop
      vertex 9.13546 -4.06737 5
      vertex 9.13546 -4.06737 -5
      vertex 8.09017 -5.87785 5
    endloop
  endfacet
  facet normal -0.866025 0.5 0
    outer loop
      vertex 8.09017 -5.87785 5
      vertex 9.13546 -4.06737 -5
      vertex 8.09017 -5.87785 -5
    endloop
  endfacet
  facet normal -0.743145 0.669131 0
    outer loop
      vertex 8.09017 -5.87785 5
      vertex 8.09017 -5.87785 -5
      vertex 6.69131 -7.43145 5
    endloop
  endfacet
  facet normal -0.743145 0.669131 0
    outer loop
      vertex 6.69131 -7.43145 5
      vertex 8.09017 -5.87785 -5
      vertex 6.69131 -7.43145 -5
    endloop
  endfacet
  facet normal -0.587785 0.809017 0
    outer loop
      vertex 6.69131 -7.43145 5
      vertex 6.69131 -7.43145 -5
      vertex 5 -8.66025 5
    endloop
  endfacet
  facet normal -0.587785 0.809017 0
    outer loop
      vertex 5 -8.66025 5
      vertex 6.69131 -7.43145 -5
      vertex 5 -8.66025 -5
    endloop
  endfacet
  facet normal -0.406737 0.913545 0
    outer loop
      vertex 5 -8.66025 5
      vertex 5 -8.66025 -5
      vertex 3.09017 -9.51056 5
    endloop
  endfacet
  facet normal -0.406737 0.913545 0
    outer loop
      vertex 3.09017 -9.51056 5
      vertex 5 -8.66025 -5
      vertex 3.09017 -9.51056 -5
    endloop
  endfacet
  facet normal -0.207912 0.978148 0
    outer loop
      vertex 3.09017 -9.51056 5
      vertex 3.09017 -9.51056 -5
      vertex 1.04529 -9.94522 5
    endloop
  endfacet
  facet normal -0.207912 0.978148 0
    outer loop
      vertex 1.04529 -9.94522 5
      vertex 3.09017 -9.51056 -5
      vertex 1.04529 -9.94522 -5
    endloop
  endfacet
  facet normal 0 1 0
    outer loop
      vertex 1.04529 -9.94522 5
      vertex 1.04529 -9.94522 -5
      vertex -1.04529 -9.94522 5
    endloop
  endfacet
  facet normal 0 1 0
    outer loop
      vertex -1.04529 -9.94522 5
      vertex 1.04529 -9.94522 -5
      vertex -1.04529 -9.94522 -5
    endloop
  endfacet
  facet normal 0.207912 0.978148 0
    outer loop
      vertex -1.04529 -9.94522 5
      vertex -1.04529 -9.94522 -5
      vertex -3.09017 -9.51056 5
    endloop
  endfacet
  facet normal 0.207912 0.978148 0
    outer loop
      vertex -3.09017 -9.51056 5
      vertex -1.04529 -9.94522 -5
      vertex -3.09017 -9.51056 -5
    endloop
  endfacet
  facet normal 0.406737 0.913545 0
    outer loop
      vertex -3.09017 -9.51056 5
      vertex -3.09017 -9.51056 -5
      vertex -5 -8.66025 5
    endloop
  endfacet
  facet normal 0.406737 0.913545 0
    outer loop
      vertex -5 -8.66025 5
      vertex -3.09017 -9.51056 -5
      vertex -5 -8.66025 -5
    endloop
  endfacet
  facet normal 0.587785 0.809017 0
    outer loop
      vertex -5 -8.66025 5
      vertex -5 -8.66025 -5
      vertex -6.69131 -7.43145 5
    endloop
  endfacet
  facet normal 0.587785 0.809017 0
    outer loop
      vertex -6.69131 -7.43145 5
      vertex -5 -8.66025 -5
      vertex -6.69131 -7.43145 -5
    endloop
  endfacet
  facet normal 0.743145 0.669131 0
    outer loop
      vertex -8.09017 -5.87785 5
      vertex -6.69131 -7.43145 5
      vertex -6.69131 -7.43145 -5
    endloop
  endfacet
  facet normal 0.743145 0.669131 0
    outer loop
      vertex -8.09017 -5.87785 -5
      vertex -8.09017 -5.87785 5
      vertex -6.69131 -7.43145 -5
    endloop
  endfacet
  facet normal 0.866025 0.5 0
    outer loop
      vertex -9.13546 -4.06737 5
      vertex -8.09017 -5.87785 5
      vertex -8.09017 -5.87785 -5
    endloop
  endfacet
  facet normal 0.866025 0.5 0
    outer loop
      vertex -9.13546 -4.06737 -5
      vertex -9.13546 -4.06737 5
      vertex -8.09017 -5.87785 -5
    endloop
  endfacet
  facet normal 0.951057 0.309017 0
    outer loop
      vertex -9.78148 -2.07912 5
      vertex -9.13546 -4.06737 5
      vertex -9.13546 -4.06737 -5
    endloop
  endfacet
  facet normal 0.951057 0.309017 0
    outer loop
      vertex -9.78148 -2.07912 -5
      vertex -9.78148 -2.07912 5
      vertex -9.13546 -4.06737 -5
    endloop
  endfacet
  facet normal 0.994522 0.104528 0
    outer loop
      vertex -10 0 5
      vertex -9.78148 -2.07912 5
      vertex -9.78148 -2.07912 -5
    endloop
  endfacet
  facet normal 0.994522 0.104528 0
    outer loop
      vertex -10 0 -5
      vertex -10 0 5
      vertex -9.78148 -2.07912 -5
    endloop
  endfacet
  facet normal 1 0 0
    outer loop
      vertex -10 7.5 -2
      vertex -10 0 -5
      vertex -10 27.3205 -5
    endloop
  endfacet
  facet normal 1 0 0
    outer loop
      vertex -10 20.9363 -1.24698
      vertex -10 0 5
      vertex -10 27.3205 -5
    endloop
  endfacet
  facet normal 1 0 0
    outer loop
      vertex -10 21.6322 1.80194
      vertex -10 23.3678 1.80194
      vertex -10 27.3205 5
    endloop
  endfacet
  facet normal 1 0 0
    outer loop
      vertex -10 0 5
      vertex -10 0 -5
      vertex -10 5.93634 -1.24698
    endloop
  endfacet
  facet normal 1 0 0
    outer loop
      vertex -10 9.06366 -1.24698
      vertex -10 7.5 -2
      vertex -10 27.3205 -5
    endloop
  endfacet
  facet normal 1 0 0
    outer loop
      vertex -10 0 5
      vertex -10 5.93634 -1.24698
      vertex -10 5.55014 0.445042
    endloop
  endfacet
  facet normal 1 0 0
    outer loop
      vertex -10 9.44986 0.445042
      vertex -10 9.06366 -1.24698
      vertex -10 27.3205 -5
    endloop
  endfacet
  facet normal 1 0 0
    outer loop
      vertex -10 0 5
      vertex -10 5.55014 0.445042
      vertex -10 6.63223 1.80194
    endloop
  endfacet
  facet normal 1 0 0
    outer loop
      vertex -10 0 5
      vertex -10 8.36777 1.80194
      vertex -10 27.3205 -5
    endloop
  endfacet
  facet normal 1 0 0
    outer loop
      vertex -10 0 5
      vertex -10 6.63223 1.80194
      vertex -10 8.36777 1.80194
    endloop
  endfacet
  facet normal 1 0 0
    outer loop
      vertex -10 5.93634 -1.24698
      vertex -10 0 -5
      vertex -10 7.5 -2
    endloop
  endfacet
  facet normal 1 0 0
    outer loop
      vertex -10 22.5 -2
      vertex -10 20.9363 -1.24698
      vertex -10 27.3205 -5
    endloop
  endfacet
  facet normal 1 0 0
    outer loop
      vertex -10 20.5501 0.445042
      vertex -10 0 5
      vertex -10 20.9363 -1.24698
    endloop
  endfacet
  facet normal 1 0 0
    outer loop
      vertex -10 21.6322 1.80194
      vertex -10 0 5
      vertex -10 20.5501 0.445042
    endloop
  endfacet
  facet normal 1 0 0
    outer loop
      vertex -10 23.3678 1.80194
      vertex -10 24.4499 0.445042
      vertex -10 27.3205 5
    endloop
  endfacet
  facet normal 1 0 0
    outer loop
      vertex -10 27.3205 5
      vertex -10 0 5
      vertex -10 21.6322 1.80194
    endloop
  endfacet
  facet normal 1 0 0
    outer loop
      vertex -10 27.3205 5
      vertex -10 24.4499 0.445042
      vertex -10 27.3205 -5
    endloop
  endfacet
  facet normal 1 0 0
    outer loop
      vertex -10 24.4499 0.445042
      vertex -10 24.0637 -1.24698
      vertex -10 27.3205 -5
    endloop
  endfacet
  facet normal 1 0 0
    outer loop
      vertex -10 24.0637 -1.24698
      vertex -10 22.5 -2
      vertex -10 27.3205 -5
    endloop
  endfacet
  facet normal 1 0 0
    outer loop
      vertex -10 8.36777 1.80194
      vertex -10 9.44986 0.445042
      vertex -10 27.3205 -5
    endloop
  endfacet
  facet normal 0.866025 -0.5 0
    outer loop
      vertex -10 27.3205 5
      vertex -10 27.3205 -5
      vertex 13.6603 68.3013 -5
    endloop
  endfacet
  facet normal 0.866025 -0.5 0
    outer loop
      vertex 13.6603 68.3013 5
      vertex -10 27.3205 5
      vertex 13.6603 68.3013 -5
    endloop
  endfacet
  facet normal 0.5 0.866025 0
    outer loop
      vertex 5 73.3013 -5
      vertex 5 73.3013 5
      vertex 13.6603 68.3013 -5
    endloop
  endfacet
  facet normal 0.5 0.866025 0
    outer loop
      vertex 13.6603 68.3013 -5
      vertex 5 73.3013 5
      vertex 13.6603 68.3013 5
    endloop
  endfacet
endsolid OpenSCAD_Model
